<svg width="375" height="62" viewBox="0 0 375 62" fill="none" xmlns="http://www.w3.org/2000/svg">
<g filter="url(#filter0_i_29_106)">
<path d="M3 3H372V59H3V3Z" fill="#FFF258"/>
</g>
<path d="M3 1.5H1.5V3V59V60.5H3H372H373.5V59V3V1.5H372H3Z" stroke="black" stroke-width="3"/>
<g filter="url(#filter1_i_29_106)">
<path d="M3 3H372V59H3V3Z" fill="#3DFD00"/>
</g>
<path d="M4 4H371V58H4V4Z" stroke="#3DFD00" stroke-width="2"/>
<path d="M90.4205 18.7273V42H86.6705L75.7045 26.1477H75.5114V42H71.2955V18.7273H75.0682L86.0227 34.5909H86.2273V18.7273H90.4205ZM115.81 30.3636C115.81 32.8712 115.34 35.0189 114.401 36.8068C113.469 38.5871 112.196 39.9508 110.582 40.8977C108.976 41.8447 107.154 42.3182 105.116 42.3182C103.079 42.3182 101.253 41.8447 99.6392 40.8977C98.0331 39.9432 96.7604 38.5758 95.821 36.7955C94.8892 35.0076 94.4233 32.8636 94.4233 30.3636C94.4233 27.8561 94.8892 25.7121 95.821 23.9318C96.7604 22.1439 98.0331 20.7765 99.6392 19.8295C101.253 18.8826 103.079 18.4091 105.116 18.4091C107.154 18.4091 108.976 18.8826 110.582 19.8295C112.196 20.7765 113.469 22.1439 114.401 23.9318C115.34 25.7121 115.81 27.8561 115.81 30.3636ZM111.571 30.3636C111.571 28.5985 111.295 27.1098 110.741 25.8977C110.196 24.678 109.438 23.7576 108.469 23.1364C107.499 22.5076 106.382 22.1932 105.116 22.1932C103.851 22.1932 102.734 22.5076 101.764 23.1364C100.795 23.7576 100.033 24.678 99.4801 25.8977C98.9347 27.1098 98.6619 28.5985 98.6619 30.3636C98.6619 32.1288 98.9347 33.6212 99.4801 34.8409C100.033 36.053 100.795 36.9735 101.764 37.6023C102.734 38.2235 103.851 38.5341 105.116 38.5341C106.382 38.5341 107.499 38.2235 108.469 37.6023C109.438 36.9735 110.196 36.053 110.741 34.8409C111.295 33.6212 111.571 32.1288 111.571 30.3636ZM140.591 30.3636C140.591 32.8712 140.121 35.0189 139.182 36.8068C138.25 38.5871 136.977 39.9508 135.364 40.8977C133.758 41.8447 131.936 42.3182 129.898 42.3182C127.86 42.3182 126.034 41.8447 124.42 40.8977C122.814 39.9432 121.542 38.5758 120.602 36.7955C119.67 35.0076 119.205 32.8636 119.205 30.3636C119.205 27.8561 119.67 25.7121 120.602 23.9318C121.542 22.1439 122.814 20.7765 124.42 19.8295C126.034 18.8826 127.86 18.4091 129.898 18.4091C131.936 18.4091 133.758 18.8826 135.364 19.8295C136.977 20.7765 138.25 22.1439 139.182 23.9318C140.121 25.7121 140.591 27.8561 140.591 30.3636ZM136.352 30.3636C136.352 28.5985 136.076 27.1098 135.523 25.8977C134.977 24.678 134.22 23.7576 133.25 23.1364C132.28 22.5076 131.163 22.1932 129.898 22.1932C128.633 22.1932 127.515 22.5076 126.545 23.1364C125.576 23.7576 124.814 24.678 124.261 25.8977C123.716 27.1098 123.443 28.5985 123.443 30.3636C123.443 32.1288 123.716 33.6212 124.261 34.8409C124.814 36.053 125.576 36.9735 126.545 37.6023C127.515 38.2235 128.633 38.5341 129.898 38.5341C131.163 38.5341 132.28 38.2235 133.25 37.6023C134.22 36.9735 134.977 36.053 135.523 34.8409C136.076 33.6212 136.352 32.1288 136.352 30.3636ZM144.577 42V18.7273H153.486C155.168 18.7273 156.565 18.9924 157.679 19.5227C158.8 20.0455 159.637 20.7614 160.19 21.6705C160.751 22.5795 161.031 23.6098 161.031 24.7614C161.031 25.7083 160.849 26.5189 160.486 27.1932C160.122 27.8598 159.634 28.4015 159.02 28.8182C158.406 29.2348 157.721 29.5341 156.963 29.7159V29.9432C157.789 29.9886 158.58 30.2424 159.338 30.7045C160.103 31.1591 160.728 31.803 161.213 32.6364C161.698 33.4697 161.94 34.4773 161.94 35.6591C161.94 36.8636 161.649 37.947 161.065 38.9091C160.482 39.8636 159.603 40.6174 158.429 41.1705C157.255 41.7235 155.777 42 153.997 42H144.577ZM148.793 38.4773H153.327C154.857 38.4773 155.959 38.1856 156.634 37.6023C157.315 37.0114 157.656 36.2538 157.656 35.3295C157.656 34.6402 157.486 34.0189 157.145 33.4659C156.804 32.9053 156.319 32.4659 155.69 32.1477C155.062 31.822 154.312 31.6591 153.44 31.6591H148.793V38.4773ZM148.793 28.625H152.963C153.69 28.625 154.346 28.4924 154.929 28.2273C155.512 27.9545 155.971 27.572 156.304 27.0795C156.645 26.5795 156.815 25.9886 156.815 25.3068C156.815 24.4053 156.497 23.6629 155.861 23.0795C155.232 22.4962 154.296 22.2045 153.054 22.2045H148.793V28.625ZM182.784 18.7273V42H178.568V22.8295H178.432L172.989 26.3068V22.4432L178.773 18.7273H182.784ZM197.045 42.3182C195.409 42.3182 193.955 42.0379 192.682 41.4773C191.417 40.9167 190.417 40.1364 189.682 39.1364C188.947 38.1364 188.557 36.9811 188.511 35.6705H192.784C192.822 36.2992 193.03 36.8485 193.409 37.3182C193.788 37.7803 194.292 38.1402 194.92 38.3977C195.549 38.6553 196.254 38.7841 197.034 38.7841C197.867 38.7841 198.606 38.6402 199.25 38.3523C199.894 38.0568 200.398 37.6477 200.761 37.125C201.125 36.6023 201.303 36 201.295 35.3182C201.303 34.6136 201.121 33.9924 200.75 33.4545C200.379 32.9167 199.841 32.4962 199.136 32.1932C198.439 31.8902 197.598 31.7386 196.614 31.7386H194.557V28.4886H196.614C197.424 28.4886 198.133 28.3485 198.739 28.0682C199.352 27.7879 199.833 27.3939 200.182 26.8864C200.53 26.3712 200.701 25.7765 200.693 25.1023C200.701 24.4432 200.553 23.8712 200.25 23.3864C199.955 22.8939 199.534 22.5114 198.989 22.2386C198.451 21.9659 197.818 21.8295 197.091 21.8295C196.379 21.8295 195.72 21.9583 195.114 22.2159C194.508 22.4735 194.019 22.8409 193.648 23.3182C193.277 23.7879 193.08 24.3485 193.057 25H189C189.03 23.697 189.405 22.553 190.125 21.5682C190.852 20.5758 191.822 19.803 193.034 19.25C194.246 18.6894 195.606 18.4091 197.114 18.4091C198.667 18.4091 200.015 18.7008 201.159 19.2841C202.311 19.8598 203.201 20.6364 203.83 21.6136C204.458 22.5909 204.773 23.6705 204.773 24.8523C204.78 26.1629 204.394 27.2614 203.614 28.1477C202.841 29.0341 201.826 29.6136 200.568 29.8864V30.0682C202.205 30.2955 203.458 30.9015 204.33 31.8864C205.208 32.8636 205.644 34.0795 205.636 35.5341C205.636 36.8371 205.265 38.0038 204.523 39.0341C203.788 40.0568 202.773 40.8598 201.477 41.4432C200.189 42.0265 198.712 42.3182 197.045 42.3182ZM218.139 42.4432C216.268 42.4432 214.662 41.9697 213.321 41.0227C211.988 40.0682 210.961 38.6932 210.241 36.8977C209.529 35.0947 209.173 32.9242 209.173 30.3864C209.181 27.8485 209.541 25.6894 210.253 23.9091C210.973 22.1212 211.999 20.7576 213.332 19.8182C214.673 18.8788 216.276 18.4091 218.139 18.4091C220.003 18.4091 221.605 18.8788 222.946 19.8182C224.287 20.7576 225.313 22.1212 226.026 23.9091C226.745 25.697 227.105 27.8561 227.105 30.3864C227.105 32.9318 226.745 35.1061 226.026 36.9091C225.313 38.7045 224.287 40.0758 222.946 41.0227C221.613 41.9697 220.01 42.4432 218.139 42.4432ZM218.139 38.8864C219.594 38.8864 220.741 38.1705 221.582 36.7386C222.431 35.2992 222.855 33.1818 222.855 30.3864C222.855 28.5379 222.662 26.9848 222.276 25.7273C221.889 24.4697 221.344 23.5227 220.639 22.8864C219.935 22.2424 219.101 21.9205 218.139 21.9205C216.692 21.9205 215.548 22.6402 214.707 24.0795C213.866 25.5114 213.442 27.6136 213.435 30.3864C213.427 32.2424 213.613 33.803 213.991 35.0682C214.378 36.3333 214.923 37.2879 215.628 37.9318C216.332 38.5682 217.17 38.8864 218.139 38.8864ZM240.426 17.6364L232.926 45.5H229.324L236.824 17.6364H240.426ZM252.472 18.7273V42H248.256V22.8295H248.119L242.676 26.3068V22.4432L248.46 18.7273H252.472ZM266.733 42.3182C265.097 42.3182 263.642 42.0379 262.369 41.4773C261.104 40.9167 260.104 40.1364 259.369 39.1364C258.634 38.1364 258.244 36.9811 258.199 35.6705H262.472C262.509 36.2992 262.718 36.8485 263.097 37.3182C263.475 37.7803 263.979 38.1402 264.608 38.3977C265.237 38.6553 265.941 38.7841 266.722 38.7841C267.555 38.7841 268.294 38.6402 268.938 38.3523C269.581 38.0568 270.085 37.6477 270.449 37.125C270.813 36.6023 270.991 36 270.983 35.3182C270.991 34.6136 270.809 33.9924 270.438 33.4545C270.066 32.9167 269.528 32.4962 268.824 32.1932C268.127 31.8902 267.286 31.7386 266.301 31.7386H264.244V28.4886H266.301C267.112 28.4886 267.82 28.3485 268.426 28.0682C269.04 27.7879 269.521 27.3939 269.869 26.8864C270.218 26.3712 270.388 25.7765 270.381 25.1023C270.388 24.4432 270.241 23.8712 269.938 23.3864C269.642 22.8939 269.222 22.5114 268.676 22.2386C268.138 21.9659 267.506 21.8295 266.778 21.8295C266.066 21.8295 265.407 21.9583 264.801 22.2159C264.195 22.4735 263.706 22.8409 263.335 23.3182C262.964 23.7879 262.767 24.3485 262.744 25H258.688C258.718 23.697 259.093 22.553 259.812 21.5682C260.54 20.5758 261.509 19.803 262.722 19.25C263.934 18.6894 265.294 18.4091 266.801 18.4091C268.354 18.4091 269.703 18.7008 270.847 19.2841C271.998 19.8598 272.888 20.6364 273.517 21.6136C274.146 22.5909 274.46 23.6705 274.46 24.8523C274.468 26.1629 274.081 27.2614 273.301 28.1477C272.528 29.0341 271.513 29.6136 270.256 29.8864V30.0682C271.892 30.2955 273.146 30.9015 274.017 31.8864C274.896 32.8636 275.331 34.0795 275.324 35.5341C275.324 36.8371 274.953 38.0038 274.21 39.0341C273.475 40.0568 272.46 40.8598 271.165 41.4432C269.877 42.0265 268.4 42.3182 266.733 42.3182ZM287.827 42.4432C285.955 42.4432 284.349 41.9697 283.009 41.0227C281.675 40.0682 280.649 38.6932 279.929 36.8977C279.217 35.0947 278.861 32.9242 278.861 30.3864C278.868 27.8485 279.228 25.6894 279.94 23.9091C280.66 22.1212 281.687 20.7576 283.02 19.8182C284.361 18.8788 285.963 18.4091 287.827 18.4091C289.69 18.4091 291.293 18.8788 292.634 19.8182C293.974 20.7576 295.001 22.1212 295.713 23.9091C296.433 25.697 296.793 27.8561 296.793 30.3864C296.793 32.9318 296.433 35.1061 295.713 36.9091C295.001 38.7045 293.974 40.0758 292.634 41.0227C291.3 41.9697 289.698 42.4432 287.827 42.4432ZM287.827 38.8864C289.281 38.8864 290.429 38.1705 291.27 36.7386C292.118 35.2992 292.543 33.1818 292.543 30.3864C292.543 28.5379 292.349 26.9848 291.963 25.7273C291.577 24.4697 291.031 23.5227 290.327 22.8864C289.622 22.2424 288.789 21.9205 287.827 21.9205C286.38 21.9205 285.236 22.6402 284.395 24.0795C283.554 25.5114 283.13 27.6136 283.122 30.3864C283.115 32.2424 283.3 33.803 283.679 35.0682C284.065 36.3333 284.611 37.2879 285.315 37.9318C286.02 38.5682 286.857 38.8864 287.827 38.8864Z" fill="white"/>
<defs>
<filter id="filter0_i_29_106" x="0" y="0" width="375" height="62" filterUnits="userSpaceOnUse" color-interpolation-filters="sRGB">
<feFlood flood-opacity="0" result="BackgroundImageFix"/>
<feBlend mode="normal" in="SourceGraphic" in2="BackgroundImageFix" result="shape"/>
<feColorMatrix in="SourceAlpha" type="matrix" values="0 0 0 0 0 0 0 0 0 0 0 0 0 0 0 0 0 0 127 0" result="hardAlpha"/>
<feOffset dy="-32"/>
<feComposite in2="hardAlpha" operator="arithmetic" k2="-1" k3="1"/>
<feColorMatrix type="matrix" values="0 0 0 0 1 0 0 0 0 0.835294 0 0 0 0 0.192157 0 0 0 1 0"/>
<feBlend mode="normal" in2="shape" result="effect1_innerShadow_29_106"/>
</filter>
<filter id="filter1_i_29_106" x="3" y="3" width="369" height="56" filterUnits="userSpaceOnUse" color-interpolation-filters="sRGB">
<feFlood flood-opacity="0" result="BackgroundImageFix"/>
<feBlend mode="normal" in="SourceGraphic" in2="BackgroundImageFix" result="shape"/>
<feColorMatrix in="SourceAlpha" type="matrix" values="0 0 0 0 0 0 0 0 0 0 0 0 0 0 0 0 0 0 127 0" result="hardAlpha"/>
<feOffset dy="-28"/>
<feComposite in2="hardAlpha" operator="arithmetic" k2="-1" k3="1"/>
<feColorMatrix type="matrix" values="0 0 0 0 0.101961 0 0 0 0 0.776471 0 0 0 0 0 0 0 0 1 0"/>
<feBlend mode="normal" in2="shape" result="effect1_innerShadow_29_106"/>
</filter>
</defs>
</svg>
