<svg width="822" height="253" viewBox="0 0 822 253" fill="none" xmlns="http://www.w3.org/2000/svg">
<mask id="path-1-outside-1_29_117" maskUnits="userSpaceOnUse" x="9" y="8" width="796" height="184" fill="black">
<rect fill="white" x="9" y="8" width="796" height="184"/>
<path d="M27.6239 167L73.8453 33.9172H157.829L204.05 167H145.183L137.509 144.5H94.2525L86.578 167H27.6239ZM116.055 80.5747H115.706L104.979 113.104H126.782L116.055 80.5747ZM300.33 33.9172C310.563 33.9172 319.313 35.1382 326.581 37.5801C333.034 39.7312 338.267 42.7836 342.278 46.7371C345.767 50.1674 348.325 54.1791 349.953 58.7721C351.29 62.6094 351.959 66.7083 351.959 71.0688C351.959 76.9991 350.767 82.1735 348.383 86.5922C345.534 91.7085 340.97 96.069 334.691 99.6737C342.54 103.86 348.121 108.627 351.435 113.976C354.168 118.511 355.534 123.918 355.534 130.197C355.534 141.069 351.842 149.761 344.459 156.273C336.377 163.424 324.894 167 310.011 167H217.132V33.9172H300.33ZM276.086 86.5922H277.481C289.284 86.5922 295.185 82.2607 295.185 73.5979C295.185 64.9931 290.01 60.6908 279.661 60.6908H276.086V86.5922ZM276.086 137.697H277.83C290.33 137.697 296.58 133.104 296.58 123.918C296.58 113.918 291.115 108.918 280.185 108.918H276.086V137.697ZM395.913 24.1497L514.867 54.9349L515.391 55.4581L484.082 175.372C407.57 155.779 367.744 145.343 364.604 144.064C383.558 69.4699 393.994 29.4986 395.913 24.1497ZM431.494 85.284L425.739 109.005H426.262L448.5 114.674C452.338 101.244 454.256 93.5109 454.256 91.476L431.494 85.284ZM658.677 94.2667C658.677 118.918 652.543 137.378 640.276 149.645C633.648 156.273 625.915 161.273 617.078 164.645C609.113 167.669 600.886 169.18 592.397 169.18C583.676 169.18 575.159 167.552 566.845 164.296C558.007 160.808 550.391 155.866 543.996 149.471C537.368 142.843 532.658 134.616 529.868 124.79C527.484 116.186 526.292 105.139 526.292 91.6504V33.9172H585.246V95.5748C585.246 105.691 587.572 110.749 592.223 110.749C595.188 110.749 597.165 109.383 598.153 106.651C599.2 103.802 599.723 98.2493 599.723 89.9934V33.9172H658.677V94.2667ZM672.979 33.9172H791.236V92.8713H761.585V167H702.631V92.8713H672.979V33.9172Z"/>
</mask>
<path d="M27.6239 167L73.8453 33.9172H157.829L204.05 167H145.183L137.509 144.5H94.2525L86.578 167H27.6239ZM116.055 80.5747H115.706L104.979 113.104H126.782L116.055 80.5747ZM300.33 33.9172C310.563 33.9172 319.313 35.1382 326.581 37.5801C333.034 39.7312 338.267 42.7836 342.278 46.7371C345.767 50.1674 348.325 54.1791 349.953 58.7721C351.29 62.6094 351.959 66.7083 351.959 71.0688C351.959 76.9991 350.767 82.1735 348.383 86.5922C345.534 91.7085 340.97 96.069 334.691 99.6737C342.54 103.86 348.121 108.627 351.435 113.976C354.168 118.511 355.534 123.918 355.534 130.197C355.534 141.069 351.842 149.761 344.459 156.273C336.377 163.424 324.894 167 310.011 167H217.132V33.9172H300.33ZM276.086 86.5922H277.481C289.284 86.5922 295.185 82.2607 295.185 73.5979C295.185 64.9931 290.01 60.6908 279.661 60.6908H276.086V86.5922ZM276.086 137.697H277.83C290.33 137.697 296.58 133.104 296.58 123.918C296.58 113.918 291.115 108.918 280.185 108.918H276.086V137.697ZM395.913 24.1497L514.867 54.9349L515.391 55.4581L484.082 175.372C407.57 155.779 367.744 145.343 364.604 144.064C383.558 69.4699 393.994 29.4986 395.913 24.1497ZM431.494 85.284L425.739 109.005H426.262L448.5 114.674C452.338 101.244 454.256 93.5109 454.256 91.476L431.494 85.284ZM658.677 94.2667C658.677 118.918 652.543 137.378 640.276 149.645C633.648 156.273 625.915 161.273 617.078 164.645C609.113 167.669 600.886 169.18 592.397 169.18C583.676 169.18 575.159 167.552 566.845 164.296C558.007 160.808 550.391 155.866 543.996 149.471C537.368 142.843 532.658 134.616 529.868 124.79C527.484 116.186 526.292 105.139 526.292 91.6504V33.9172H585.246V95.5748C585.246 105.691 587.572 110.749 592.223 110.749C595.188 110.749 597.165 109.383 598.153 106.651C599.2 103.802 599.723 98.2493 599.723 89.9934V33.9172H658.677V94.2667ZM672.979 33.9172H791.236V92.8713H761.585V167H702.631V92.8713H672.979V33.9172Z" fill="url(#paint0_linear_29_117)"/>
<path d="M27.6239 167L15.3435 162.735L9.34709 180H27.6239V167ZM73.8453 33.9172V20.9172H64.5986L61.5649 29.6521L73.8453 33.9172ZM157.829 33.9172L170.109 29.6521L167.075 20.9172H157.829V33.9172ZM204.05 167V180H222.327L216.331 162.735L204.05 167ZM145.183 167L132.879 171.197L135.882 180H145.183V167ZM137.509 144.5L149.813 140.303L146.81 131.5H137.509V144.5ZM94.2525 144.5V131.5H84.9512L81.9485 140.303L94.2525 144.5ZM86.578 167V180H95.8793L98.882 171.197L86.578 167ZM116.055 80.5747L128.401 76.5035L125.457 67.5747H116.055V80.5747ZM115.706 80.5747V67.5747H106.305L103.36 76.5035L115.706 80.5747ZM104.979 113.104L92.6333 109.033L87.0039 126.104H104.979V113.104ZM126.782 113.104V126.104H144.757L139.128 109.033L126.782 113.104ZM39.9043 171.265L86.1257 38.1824L61.5649 29.6521L15.3435 162.735L39.9043 171.265ZM73.8453 46.9172H157.829V20.9172H73.8453V46.9172ZM145.548 38.1824L191.77 171.265L216.331 162.735L170.109 29.6521L145.548 38.1824ZM204.05 154H145.183V180H204.05V154ZM157.487 162.803L149.813 140.303L125.205 148.696L132.879 171.197L157.487 162.803ZM137.509 131.5H94.2525V157.5H137.509V131.5ZM81.9485 140.303L74.274 162.803L98.882 171.197L106.556 148.696L81.9485 140.303ZM86.578 154H27.6239V180H86.578V154ZM116.055 67.5747H115.706V93.5747H116.055V67.5747ZM103.36 76.5035L92.6333 109.033L117.325 117.175L128.052 84.6459L103.36 76.5035ZM104.979 126.104H126.782V100.104H104.979V126.104ZM139.128 109.033L128.401 76.5035L103.709 84.6459L114.436 117.175L139.128 109.033ZM326.581 37.5801L322.44 49.903L322.455 49.908L322.47 49.9129L326.581 37.5801ZM342.278 46.7371L333.153 55.9964L333.158 56.0014L333.164 56.0064L342.278 46.7371ZM349.953 58.7721L362.229 54.4942L362.217 54.4617L362.206 54.4292L349.953 58.7721ZM348.383 86.5922L359.741 92.9165L359.783 92.8408L359.824 92.7645L348.383 86.5922ZM334.691 99.6737L328.219 88.3994L307.851 100.092L328.573 111.144L334.691 99.6737ZM351.435 113.976L362.57 107.267L362.529 107.198L362.486 107.129L351.435 113.976ZM344.459 156.273L335.86 146.523L335.852 146.53L335.844 146.538L344.459 156.273ZM217.132 167H204.132V180H217.132V167ZM217.132 33.9172V20.9172H204.132V33.9172H217.132ZM276.086 86.5922H263.086V99.5922H276.086V86.5922ZM276.086 60.6908V47.6908H263.086V60.6908H276.086ZM276.086 137.697H263.086V150.697H276.086V137.697ZM276.086 108.918V95.918H263.086V108.918H276.086ZM300.33 46.9172C309.596 46.9172 316.869 48.0312 322.44 49.903L330.721 25.2571C321.757 22.2451 311.53 20.9172 300.33 20.9172V46.9172ZM322.47 49.9129C327.425 51.5648 330.82 53.697 333.153 55.9964L351.403 37.4779C345.713 31.8702 338.643 27.8977 330.691 25.2472L322.47 49.9129ZM333.164 56.0064C335.251 58.0596 336.733 60.3886 337.7 63.115L362.206 54.4292C359.916 47.9696 356.282 42.2752 351.393 37.4678L333.164 56.0064ZM337.677 63.0501C338.501 65.4147 338.959 68.058 338.959 71.0688H364.959C364.959 65.3585 364.079 59.8041 362.229 54.4942L337.677 63.0501ZM338.959 71.0688C338.959 75.2348 338.132 78.214 336.942 80.4199L359.824 92.7645C363.402 86.1331 364.959 78.7634 364.959 71.0688H338.959ZM337.025 80.2679C335.568 82.8845 332.932 85.6938 328.219 88.3994L341.163 110.948C349.009 106.444 355.5 100.533 359.741 92.9165L337.025 80.2679ZM328.573 111.144C335.192 114.674 338.677 118.067 340.385 120.823L362.486 107.129C357.566 99.1878 349.888 93.0455 340.809 88.2031L328.573 111.144ZM340.301 120.686C341.603 122.847 342.534 125.839 342.534 130.197H368.534C368.534 121.997 366.733 114.176 362.57 107.267L340.301 120.686ZM342.534 130.197C342.534 137.775 340.134 142.754 335.86 146.523L353.057 166.023C363.551 156.769 368.534 144.364 368.534 130.197H342.534ZM335.844 146.538C330.909 150.904 322.927 154 310.011 154V180C326.862 180 341.845 175.945 353.074 166.009L335.844 146.538ZM310.011 154H217.132V180H310.011V154ZM230.132 167V33.9172H204.132V167H230.132ZM217.132 46.9172H300.33V20.9172H217.132V46.9172ZM276.086 99.5922H277.481V73.5922H276.086V99.5922ZM277.481 99.5922C284.589 99.5922 292.276 98.3561 298.451 93.8236C305.376 88.7406 308.185 81.2078 308.185 73.5979H282.185C282.185 74.2982 282.067 74.2929 282.242 73.9074C282.45 73.4491 282.794 73.0635 283.067 72.8636C283.262 72.7202 283.083 72.9211 282.137 73.1525C281.181 73.3863 279.679 73.5922 277.481 73.5922V99.5922ZM308.185 73.5979C308.185 66.5957 305.965 59.2006 299.615 53.9215C293.726 49.0244 286.316 47.6908 279.661 47.6908V73.6908C281.39 73.6908 282.439 73.8751 282.981 74.0252C283.491 74.1665 283.365 74.2235 282.993 73.9136C282.569 73.5614 282.277 73.1107 282.148 72.7885C282.051 72.5457 282.185 72.7231 282.185 73.5979H308.185ZM279.661 47.6908H276.086V73.6908H279.661V47.6908ZM263.086 60.6908V86.5922H289.086V60.6908H263.086ZM276.086 150.697H277.83V124.697H276.086V150.697ZM277.83 150.697C285.289 150.697 293.24 149.395 299.591 144.728C306.689 139.512 309.58 131.784 309.58 123.918H283.58C283.58 124.751 283.44 124.862 283.569 124.577C283.732 124.218 284.009 123.913 284.194 123.777C284.303 123.697 284.015 123.946 282.94 124.209C281.855 124.475 280.201 124.697 277.83 124.697V150.697ZM309.58 123.918C309.58 116.602 307.528 108.814 301.256 103.077C295.204 97.5395 287.381 95.918 280.185 95.918V121.918C283.918 121.918 284.293 122.797 283.706 122.26C283.411 121.989 283.317 121.74 283.341 121.806C283.392 121.946 283.58 122.568 283.58 123.918H309.58ZM280.185 95.918H276.086V121.918H280.185V95.918ZM263.086 108.918V137.697H289.086V108.918H263.086ZM395.913 24.1497L399.17 11.5643L387.682 8.5914L383.676 19.7605L395.913 24.1497ZM514.867 54.9349L524.06 45.7425L521.554 43.2372L518.124 42.3495L514.867 54.9349ZM515.391 55.4581L527.969 58.7422L529.851 51.5338L524.583 46.2658L515.391 55.4581ZM484.082 175.372L480.857 187.966L493.392 191.176L496.66 178.656L484.082 175.372ZM364.604 144.064L352.005 140.862L349.217 151.832L359.699 156.103L364.604 144.064ZM431.494 85.284L434.907 72.7399L422.012 69.2321L418.861 82.2186L431.494 85.284ZM425.739 109.005L413.105 105.94L409.207 122.005H425.739V109.005ZM426.262 109.005L429.473 96.408L427.893 96.0052H426.262V109.005ZM448.5 114.674L445.289 127.271L457.53 130.391L461 118.245L448.5 114.674ZM454.256 91.476H467.256V81.5399L457.669 78.9318L454.256 91.476ZM392.656 36.735L511.61 67.5203L518.124 42.3495L399.17 11.5643L392.656 36.735ZM505.675 64.1273L506.198 64.6505L524.583 46.2658L524.06 45.7425L505.675 64.1273ZM502.812 52.1741L471.504 172.088L496.66 178.656L527.969 58.7422L502.812 52.1741ZM487.307 162.779C449.057 152.984 420.001 145.483 400.124 140.275C390.18 137.669 382.566 135.645 377.257 134.198C371.374 132.594 369.358 131.963 369.509 132.025L359.699 156.103C361.42 156.804 365.56 157.958 370.418 159.282C375.851 160.764 383.563 162.813 393.533 165.426C413.482 170.653 442.595 178.168 480.857 187.966L487.307 162.779ZM377.204 147.265C386.678 109.977 394.018 81.368 399.225 61.4239C404.549 41.0303 407.443 30.508 408.149 28.5389L383.676 19.7605C382.464 23.1403 379.18 35.278 374.068 54.8558C368.839 74.883 361.484 103.557 352.005 140.862L377.204 147.265ZM418.861 82.2186L413.105 105.94L438.372 112.071L444.128 88.3495L418.861 82.2186ZM425.739 122.005H426.262V96.0052H425.739V122.005ZM423.051 121.602L445.289 127.271L451.711 102.077L429.473 96.408L423.051 121.602ZM461 118.245C462.935 111.475 464.421 106.016 465.435 101.932C465.939 99.8987 466.355 98.0921 466.653 96.5762C466.889 95.373 467.256 93.3872 467.256 91.476H441.256C441.256 90.5822 441.384 90.3261 441.14 91.5648C440.958 92.4907 440.655 93.8382 440.2 95.671C439.294 99.32 437.903 104.443 436.001 111.103L461 118.245ZM457.669 78.9318L434.907 72.7399L428.082 97.8282L450.844 104.02L457.669 78.9318ZM640.276 149.645L631.083 140.453L640.276 149.645ZM617.078 164.645L621.691 176.799L621.702 176.795L621.712 176.791L617.078 164.645ZM566.845 164.296L562.071 176.389L562.088 176.395L562.104 176.401L566.845 164.296ZM529.868 124.79L517.339 128.261L517.351 128.302L517.362 128.342L529.868 124.79ZM526.292 33.9172V20.9172H513.292V33.9172H526.292ZM585.246 33.9172H598.246V20.9172H585.246V33.9172ZM598.153 106.651L585.95 102.168L585.939 102.198L585.928 102.229L598.153 106.651ZM599.723 33.9172V20.9172H586.723V33.9172H599.723ZM658.677 33.9172H671.677V20.9172H658.677V33.9172ZM645.677 94.2667C645.677 116.935 640.043 131.493 631.083 140.453L649.468 158.838C665.044 143.262 671.677 120.901 671.677 94.2667H645.677ZM631.083 140.453C625.762 145.774 619.586 149.774 612.443 152.5L621.712 176.791C632.244 172.773 641.534 166.772 649.468 158.838L631.083 140.453ZM612.465 152.491C605.968 154.957 599.303 156.18 592.397 156.18V182.18C602.468 182.18 612.258 180.38 621.691 176.799L612.465 152.491ZM592.397 156.18C585.337 156.18 578.425 154.87 571.585 152.192L562.104 176.401C571.892 180.234 582.015 182.18 592.397 182.18V156.18ZM571.618 152.204C564.351 149.336 558.261 145.352 553.188 140.278L534.803 158.663C542.521 166.381 551.663 172.28 562.071 176.389L571.618 152.204ZM553.188 140.278C548.265 135.356 544.614 129.129 542.373 121.238L517.362 128.342C520.703 140.103 526.47 150.33 534.803 158.663L553.188 140.278ZM542.396 121.32C540.441 114.264 539.292 104.499 539.292 91.6504H513.292C513.292 105.779 514.527 118.107 517.339 128.261L542.396 121.32ZM539.292 91.6504V33.9172H513.292V91.6504H539.292ZM526.292 46.9172H585.246V20.9172H526.292V46.9172ZM572.246 33.9172V95.5748H598.246V33.9172H572.246ZM572.246 95.5748C572.246 101.221 572.831 107.28 575.179 112.386C576.427 115.102 578.406 118.054 581.54 120.326C584.81 122.697 588.549 123.749 592.223 123.749V97.7494C593.571 97.7494 595.275 98.1695 596.801 99.2761C598.19 100.283 598.716 101.339 598.802 101.525C598.876 101.687 598.703 101.362 598.532 100.244C598.367 99.1665 598.246 97.6387 598.246 95.5748H572.246ZM592.223 123.749C595.722 123.749 599.698 122.923 603.321 120.419C606.965 117.9 609.16 114.439 610.378 111.072L585.928 102.229C586.157 101.595 586.87 100.183 588.538 99.0305C590.184 97.8927 591.688 97.7494 592.223 97.7494V123.749ZM610.356 111.133C612.312 105.807 612.723 98.0026 612.723 89.9934H586.723C586.723 93.8874 586.598 96.9012 586.388 99.1299C586.159 101.555 585.891 102.33 585.95 102.168L610.356 111.133ZM612.723 89.9934V33.9172H586.723V89.9934H612.723ZM599.723 46.9172H658.677V20.9172H599.723V46.9172ZM645.677 33.9172V94.2667H671.677V33.9172H645.677ZM672.979 33.9172V20.9172H659.979V33.9172H672.979ZM791.236 33.9172H804.236V20.9172H791.236V33.9172ZM791.236 92.8713V105.871H804.236V92.8713H791.236ZM761.585 92.8713V79.8713H748.585V92.8713H761.585ZM761.585 167V180H774.585V167H761.585ZM702.631 167H689.631V180H702.631V167ZM702.631 92.8713H715.631V79.8713H702.631V92.8713ZM672.979 92.8713H659.979V105.871H672.979V92.8713ZM672.979 46.9172H791.236V20.9172H672.979V46.9172ZM778.236 33.9172V92.8713H804.236V33.9172H778.236ZM791.236 79.8713H761.585V105.871H791.236V79.8713ZM748.585 92.8713V167H774.585V92.8713H748.585ZM761.585 154H702.631V180H761.585V154ZM715.631 167V92.8713H689.631V167H715.631ZM702.631 79.8713H672.979V105.871H702.631V79.8713ZM685.979 92.8713V33.9172H659.979V92.8713H685.979Z" fill="black" mask="url(#path-1-outside-1_29_117)"/>
<mask id="path-3-outside-2_29_117" maskUnits="userSpaceOnUse" x="20" y="18" width="777" height="164" fill="black">
<rect fill="white" x="20" y="18" width="777" height="164"/>
<path d="M27.6239 167L73.8453 33.9172H157.829L204.05 167H145.183L137.509 144.5H94.2525L86.578 167H27.6239ZM116.055 80.5747H115.706L104.979 113.104H126.782L116.055 80.5747ZM300.33 33.9172C310.563 33.9172 319.313 35.1382 326.581 37.5801C333.034 39.7312 338.267 42.7836 342.278 46.7371C345.767 50.1674 348.325 54.1791 349.953 58.7721C351.29 62.6094 351.959 66.7083 351.959 71.0688C351.959 76.9991 350.767 82.1735 348.383 86.5922C345.534 91.7085 340.97 96.069 334.691 99.6737C342.54 103.86 348.121 108.627 351.435 113.976C354.168 118.511 355.534 123.918 355.534 130.197C355.534 141.069 351.842 149.761 344.459 156.273C336.377 163.424 324.894 167 310.011 167H217.132V33.9172H300.33ZM276.086 86.5922H277.481C289.284 86.5922 295.185 82.2607 295.185 73.5979C295.185 64.9931 290.01 60.6908 279.661 60.6908H276.086V86.5922ZM276.086 137.697H277.83C290.33 137.697 296.58 133.104 296.58 123.918C296.58 113.918 291.115 108.918 280.185 108.918H276.086V137.697ZM395.913 24.1497L514.867 54.9349L515.391 55.4581L484.082 175.372C407.57 155.779 367.744 145.343 364.604 144.064C383.558 69.4699 393.994 29.4986 395.913 24.1497ZM431.494 85.284L425.739 109.005H426.262L448.5 114.674C452.338 101.244 454.256 93.5109 454.256 91.476L431.494 85.284ZM658.677 94.2667C658.677 118.918 652.543 137.378 640.276 149.645C633.648 156.273 625.915 161.273 617.078 164.645C609.113 167.669 600.886 169.18 592.397 169.18C583.676 169.18 575.159 167.552 566.845 164.296C558.007 160.808 550.391 155.866 543.996 149.471C537.368 142.843 532.658 134.616 529.868 124.79C527.484 116.186 526.292 105.139 526.292 91.6504V33.9172H585.246V95.5748C585.246 105.691 587.572 110.749 592.223 110.749C595.188 110.749 597.165 109.383 598.153 106.651C599.2 103.802 599.723 98.2493 599.723 89.9934V33.9172H658.677V94.2667ZM672.979 33.9172H791.236V92.8713H761.585V167H702.631V92.8713H672.979V33.9172Z"/>
</mask>
<path d="M27.6239 167L73.8453 33.9172H157.829L204.05 167H145.183L137.509 144.5H94.2525L86.578 167H27.6239ZM116.055 80.5747H115.706L104.979 113.104H126.782L116.055 80.5747ZM300.33 33.9172C310.563 33.9172 319.313 35.1382 326.581 37.5801C333.034 39.7312 338.267 42.7836 342.278 46.7371C345.767 50.1674 348.325 54.1791 349.953 58.7721C351.29 62.6094 351.959 66.7083 351.959 71.0688C351.959 76.9991 350.767 82.1735 348.383 86.5922C345.534 91.7085 340.97 96.069 334.691 99.6737C342.54 103.86 348.121 108.627 351.435 113.976C354.168 118.511 355.534 123.918 355.534 130.197C355.534 141.069 351.842 149.761 344.459 156.273C336.377 163.424 324.894 167 310.011 167H217.132V33.9172H300.33ZM276.086 86.5922H277.481C289.284 86.5922 295.185 82.2607 295.185 73.5979C295.185 64.9931 290.01 60.6908 279.661 60.6908H276.086V86.5922ZM276.086 137.697H277.83C290.33 137.697 296.58 133.104 296.58 123.918C296.58 113.918 291.115 108.918 280.185 108.918H276.086V137.697ZM395.913 24.1497L514.867 54.9349L515.391 55.4581L484.082 175.372C407.57 155.779 367.744 145.343 364.604 144.064C383.558 69.4699 393.994 29.4986 395.913 24.1497ZM431.494 85.284L425.739 109.005H426.262L448.5 114.674C452.338 101.244 454.256 93.5109 454.256 91.476L431.494 85.284ZM658.677 94.2667C658.677 118.918 652.543 137.378 640.276 149.645C633.648 156.273 625.915 161.273 617.078 164.645C609.113 167.669 600.886 169.18 592.397 169.18C583.676 169.18 575.159 167.552 566.845 164.296C558.007 160.808 550.391 155.866 543.996 149.471C537.368 142.843 532.658 134.616 529.868 124.79C527.484 116.186 526.292 105.139 526.292 91.6504V33.9172H585.246V95.5748C585.246 105.691 587.572 110.749 592.223 110.749C595.188 110.749 597.165 109.383 598.153 106.651C599.2 103.802 599.723 98.2493 599.723 89.9934V33.9172H658.677V94.2667ZM672.979 33.9172H791.236V92.8713H761.585V167H702.631V92.8713H672.979V33.9172Z" fill="url(#paint1_linear_29_117)"/>
<path d="M27.6239 167L22.9007 165.36L20.5944 172H27.6239V167ZM73.8453 33.9172V28.9172H70.2889L69.1221 32.2768L73.8453 33.9172ZM157.829 33.9172L162.552 32.2768L161.385 28.9172H157.829V33.9172ZM204.05 167V172H211.08L208.773 165.36L204.05 167ZM145.183 167L140.451 168.614L141.606 172H145.183V167ZM137.509 144.5L142.241 142.886L141.086 139.5H137.509V144.5ZM94.2525 144.5V139.5H90.6751L89.5202 142.886L94.2525 144.5ZM86.578 167V172H90.1554L91.3103 168.614L86.578 167ZM116.055 80.5747L120.804 79.0088L119.671 75.5747H116.055V80.5747ZM115.706 80.5747V75.5747H112.09L110.958 79.0088L115.706 80.5747ZM104.979 113.104L100.231 111.538L98.0657 118.104H104.979V113.104ZM126.782 113.104V118.104H133.696L131.53 111.538L126.782 113.104ZM32.3471 168.64L78.5686 35.5577L69.1221 32.2768L22.9007 165.36L32.3471 168.64ZM73.8453 38.9172H157.829V28.9172H73.8453V38.9172ZM153.106 35.5577L199.327 168.64L208.773 165.36L162.552 32.2768L153.106 35.5577ZM204.05 162H145.183V172H204.05V162ZM149.916 165.386L142.241 142.886L132.776 146.114L140.451 168.614L149.916 165.386ZM137.509 139.5H94.2525V149.5H137.509V139.5ZM89.5202 142.886L81.8457 165.386L91.3103 168.614L98.9848 146.114L89.5202 142.886ZM86.578 162H27.6239V172H86.578V162ZM116.055 75.5747H115.706V85.5747H116.055V75.5747ZM110.958 79.0088L100.231 111.538L109.728 114.67L120.455 82.1405L110.958 79.0088ZM104.979 118.104H126.782V108.104H104.979V118.104ZM131.53 111.538L120.804 79.0088L111.307 82.1405L122.033 114.67L131.53 111.538ZM326.581 37.5801L324.988 42.3197L324.999 42.3235L326.581 37.5801ZM342.278 46.7371L338.769 50.2984L338.773 50.3022L342.278 46.7371ZM349.953 58.7721L354.674 57.1268L354.67 57.1143L354.666 57.1018L349.953 58.7721ZM348.383 86.5922L352.752 89.0246L352.768 88.9955L352.784 88.9661L348.383 86.5922ZM334.691 99.6737L332.202 95.3375L324.368 99.8347L332.338 104.085L334.691 99.6737ZM351.435 113.976L355.718 111.396L355.702 111.369L355.686 111.343L351.435 113.976ZM344.459 156.273L341.151 152.523L341.145 152.529L344.459 156.273ZM217.132 167H212.132V172H217.132V167ZM217.132 33.9172V28.9172H212.132V33.9172H217.132ZM276.086 86.5922H271.086V91.5922H276.086V86.5922ZM276.086 60.6908V55.6908H271.086V60.6908H276.086ZM276.086 137.697H271.086V142.697H276.086V137.697ZM276.086 108.918V103.918H271.086V108.918H276.086ZM300.33 38.9172C310.191 38.9172 318.373 40.097 324.988 42.3197L328.173 32.8404C320.253 30.1793 310.935 28.9172 300.33 28.9172V38.9172ZM324.999 42.3235C330.877 44.2826 335.403 46.9811 338.769 50.2984L345.788 43.1759C341.131 38.5861 335.191 35.1799 328.162 32.8366L324.999 42.3235ZM338.773 50.3022C341.722 53.2029 343.867 56.5673 345.24 60.4425L354.666 57.1018C352.783 51.7908 349.811 47.1319 345.784 43.172L338.773 50.3022ZM345.231 60.4175C346.371 63.6884 346.959 67.2274 346.959 71.0688H356.959C356.959 66.1891 356.209 61.5304 354.674 57.1268L345.231 60.4175ZM346.959 71.0688C346.959 76.3205 345.907 80.6506 343.983 84.2182L352.784 88.9661C355.626 83.6964 356.959 77.6776 356.959 71.0688H346.959ZM344.015 84.1598C341.701 88.3147 337.878 92.0786 332.202 95.3375L337.18 104.01C344.062 100.059 349.367 95.1024 352.752 89.0246L344.015 84.1598ZM332.338 104.085C339.714 108.019 344.489 112.258 347.185 116.61L355.686 111.343C351.754 104.997 345.366 99.7005 337.044 95.262L332.338 104.085ZM347.153 116.557C349.335 120.179 350.534 124.657 350.534 130.197H360.534C360.534 123.179 359.001 116.844 355.718 111.396L347.153 116.557ZM350.534 130.197C350.534 139.802 347.339 147.066 341.151 152.523L347.766 160.023C356.346 152.457 360.534 142.337 360.534 130.197H350.534ZM341.145 152.529C334.274 158.609 324.138 162 310.011 162V172C325.651 172 338.48 168.24 347.772 160.018L341.145 152.529ZM310.011 162H217.132V172H310.011V162ZM222.132 167V33.9172H212.132V167H222.132ZM217.132 38.9172H300.33V28.9172H217.132V38.9172ZM276.086 91.5922H277.481V81.5922H276.086V91.5922ZM277.481 91.5922C283.847 91.5922 289.527 90.4504 293.717 87.3744C298.197 84.0866 300.185 79.1903 300.185 73.5979H290.185C290.185 76.6683 289.222 78.2692 287.8 79.3128C286.09 80.5682 282.918 81.5922 277.481 81.5922V91.5922ZM300.185 73.5979C300.185 68.2571 298.535 63.4272 294.501 60.0729C290.643 56.8656 285.405 55.6908 279.661 55.6908V65.6908C284.267 65.6908 286.79 66.6671 288.107 67.7622C289.248 68.7103 290.185 70.3339 290.185 73.5979H300.185ZM279.661 55.6908H276.086V65.6908H279.661V55.6908ZM271.086 60.6908V86.5922H281.086V60.6908H271.086ZM276.086 142.697H277.83V132.697H276.086V142.697ZM277.83 142.697C284.545 142.697 290.488 141.49 294.854 138.282C299.507 134.862 301.58 129.77 301.58 123.918H291.58C291.58 127.253 290.529 129.05 288.932 130.224C287.047 131.608 283.615 132.697 277.83 132.697V142.697ZM301.58 123.918C301.58 118.027 299.95 112.724 295.856 108.979C291.847 105.311 286.316 103.918 280.185 103.918V113.918C284.984 113.918 287.65 115.025 289.106 116.357C290.478 117.612 291.58 119.809 291.58 123.918H301.58ZM280.185 103.918H276.086V113.918H280.185V103.918ZM271.086 108.918V137.697H281.086V108.918H271.086ZM395.913 24.1497L397.165 19.3092L392.747 18.1657L391.206 22.4615L395.913 24.1497ZM514.867 54.9349L518.403 51.3993L517.439 50.4358L516.12 50.0944L514.867 54.9349ZM515.391 55.4581L520.228 56.7213L520.952 53.9488L518.926 51.9226L515.391 55.4581ZM484.082 175.372L482.842 180.216L487.663 181.45L488.92 176.635L484.082 175.372ZM364.604 144.064L359.758 142.832L358.686 147.052L362.718 148.694L364.604 144.064ZM431.494 85.284L432.807 80.4594L427.847 79.1102L426.635 84.105L431.494 85.284ZM425.739 109.005L420.88 107.826L419.38 114.005H425.739V109.005ZM426.262 109.005L427.497 104.16L426.889 104.005H426.262V109.005ZM448.5 114.674L447.265 119.519L451.973 120.719L453.308 116.047L448.5 114.674ZM454.256 91.476H459.256V87.6544L455.569 86.6513L454.256 91.476ZM394.66 28.9902L513.615 59.7754L516.12 50.0944L397.165 19.3092L394.66 28.9902ZM511.332 58.4704L511.855 58.9937L518.926 51.9226L518.403 51.3993L511.332 58.4704ZM510.553 54.195L479.244 174.109L488.92 176.635L520.228 56.7213L510.553 54.195ZM485.323 170.528C447.069 160.732 417.995 153.228 398.096 148.013C388.144 145.406 380.5 143.374 375.153 141.916C372.477 141.187 370.395 140.605 368.893 140.17C368.141 139.952 367.554 139.776 367.119 139.64C366.638 139.489 366.476 139.427 366.491 139.433L362.718 148.694C363.863 149.161 367.349 150.153 372.522 151.564C377.917 153.035 385.599 155.076 395.561 157.687C415.488 162.909 444.583 170.419 482.842 180.216L485.323 170.528ZM369.45 145.295C378.926 108.001 386.27 79.3726 391.484 59.403C396.743 39.2604 399.757 28.241 400.619 25.8378L391.206 22.4615C390.15 25.4073 386.986 37.048 381.809 56.8767C376.586 76.8784 369.236 105.532 359.758 142.832L369.45 145.295ZM426.635 84.105L420.88 107.826L430.598 110.184L436.353 86.4631L426.635 84.105ZM425.739 114.005H426.262V104.005H425.739V114.005ZM425.027 113.85L447.265 119.519L449.735 109.829L427.497 104.16L425.027 113.85ZM453.308 116.047C455.233 109.311 456.69 103.956 457.67 100.006C458.159 98.034 458.541 96.3686 458.803 95.0342C459.041 93.8201 459.256 92.5241 459.256 91.476H449.256C449.256 91.4453 449.231 91.879 448.99 93.1067C448.773 94.2142 448.435 95.703 447.964 97.5975C447.026 101.38 445.605 106.606 443.693 113.3L453.308 116.047ZM455.569 86.6513L432.807 80.4594L430.182 90.1087L452.944 96.3006L455.569 86.6513ZM640.276 149.645L636.74 146.11L640.276 149.645ZM617.078 164.645L618.852 169.32L618.86 169.317L617.078 164.645ZM566.845 164.296L565.009 168.947L565.021 168.952L566.845 164.296ZM529.868 124.79L525.049 126.125L525.053 126.141L525.058 126.156L529.868 124.79ZM526.292 33.9172V28.9172H521.292V33.9172H526.292ZM585.246 33.9172H590.246V28.9172H585.246V33.9172ZM598.153 106.651L593.46 104.926L593.455 104.938L593.451 104.95L598.153 106.651ZM599.723 33.9172V28.9172H594.723V33.9172H599.723ZM658.677 33.9172H663.677V28.9172H658.677V33.9172ZM653.677 94.2667C653.677 118.155 647.735 135.114 636.74 146.11L643.811 153.181C657.351 139.641 663.677 119.681 663.677 94.2667H653.677ZM636.74 146.11C630.615 152.235 623.481 156.85 615.295 159.974L618.86 169.317C628.349 165.696 636.681 160.311 643.811 153.181L636.74 146.11ZM615.303 159.971C607.903 162.78 600.277 164.18 592.397 164.18V174.18C601.494 174.18 610.322 172.558 618.852 169.32L615.303 159.971ZM592.397 164.18C584.315 164.18 576.415 162.675 568.668 159.641L565.021 168.952C573.902 172.43 583.037 174.18 592.397 174.18V164.18ZM568.68 159.646C560.447 156.396 553.418 151.822 547.531 145.935L540.46 153.006C547.364 159.91 555.567 165.22 565.009 168.947L568.68 159.646ZM547.531 145.935C541.559 139.963 537.257 132.505 534.677 123.424L525.058 126.156C528.06 136.726 533.176 145.722 540.46 153.006L547.531 145.935ZM534.686 123.455C532.467 115.446 531.292 104.893 531.292 91.6504H521.292C521.292 105.385 522.5 116.925 525.049 126.125L534.686 123.455ZM531.292 91.6504V33.9172H521.292V91.6504H531.292ZM526.292 38.9172H585.246V28.9172H526.292V38.9172ZM580.246 33.9172V95.5748H590.246V33.9172H580.246ZM580.246 95.5748C580.246 100.859 580.829 105.524 582.447 109.044C583.285 110.867 584.494 112.586 586.236 113.849C588.03 115.15 590.094 115.749 592.223 115.749V105.749C592.099 105.749 592.058 105.733 592.071 105.737C592.088 105.743 592.105 105.753 592.105 105.753C592.103 105.751 591.858 105.574 591.533 104.867C590.826 103.329 590.246 100.407 590.246 95.5748H580.246ZM592.223 115.749C594.481 115.749 596.77 115.221 598.772 113.838C600.782 112.449 602.083 110.487 602.855 108.351L593.451 104.95C593.34 105.258 593.236 105.43 593.175 105.513C593.12 105.59 593.089 105.609 593.086 105.612C593.083 105.614 593.043 105.642 592.929 105.674C592.807 105.708 592.583 105.749 592.223 105.749V115.749ZM602.846 108.375C604.243 104.573 604.723 98.1544 604.723 89.9934H594.723C594.723 98.3442 594.156 103.03 593.46 104.926L602.846 108.375ZM604.723 89.9934V33.9172H594.723V89.9934H604.723ZM599.723 38.9172H658.677V28.9172H599.723V38.9172ZM653.677 33.9172V94.2667H663.677V33.9172H653.677ZM672.979 33.9172V28.9172H667.979V33.9172H672.979ZM791.236 33.9172H796.236V28.9172H791.236V33.9172ZM791.236 92.8713V97.8713H796.236V92.8713H791.236ZM761.585 92.8713V87.8713H756.585V92.8713H761.585ZM761.585 167V172H766.585V167H761.585ZM702.631 167H697.631V172H702.631V167ZM702.631 92.8713H707.631V87.8713H702.631V92.8713ZM672.979 92.8713H667.979V97.8713H672.979V92.8713ZM672.979 38.9172H791.236V28.9172H672.979V38.9172ZM786.236 33.9172V92.8713H796.236V33.9172H786.236ZM791.236 87.8713H761.585V97.8713H791.236V87.8713ZM756.585 92.8713V167H766.585V92.8713H756.585ZM761.585 162H702.631V172H761.585V162ZM707.631 167V92.8713H697.631V167H707.631ZM702.631 87.8713H672.979V97.8713H702.631V87.8713ZM677.979 92.8713V33.9172H667.979V92.8713H677.979Z" fill="#FFEB01" mask="url(#path-3-outside-2_29_117)"/>
<defs>
<linearGradient id="paint0_linear_29_117" x1="411" y1="18" x2="411" y2="173.5" gradientUnits="userSpaceOnUse">
<stop stop-color="#FFF258"/>
<stop offset="0.522986" stop-color="#FFF258"/>
<stop offset="0.523086" stop-color="#D2C534"/>
<stop offset="1" stop-color="#D2C534"/>
</linearGradient>
<linearGradient id="paint1_linear_29_117" x1="411" y1="18" x2="411" y2="173.5" gradientUnits="userSpaceOnUse">
<stop stop-color="#FFEB01"/>
<stop offset="0.522986" stop-color="#FFEB01"/>
<stop offset="0.523086" stop-color="#C9BB0D"/>
<stop offset="1" stop-color="#C9BB0D"/>
</linearGradient>
</defs>
</svg>
