<svg width="146" height="44" viewBox="0 0 146 44" fill="none" xmlns="http://www.w3.org/2000/svg">
<g filter="url(#filter0_i_26_365)">
<rect x="3" y="3.5" width="140" height="37" fill="#FFF258"/>
</g>
<rect x="1.5" y="2" width="143" height="40" stroke="black" stroke-width="3"/>
<g filter="url(#filter1_i_26_365)">
<rect x="3" y="3.5" width="140" height="37" fill="#3DFD00"/>
</g>
<rect x="4" y="4.5" width="138" height="35" stroke="#3DFD00" stroke-width="2"/>
<path d="M28.4347 28.5V13.9545H34.0028C35.054 13.9545 35.9276 14.1203 36.6236 14.4517C37.3243 14.7784 37.8475 15.2259 38.1932 15.794C38.5436 16.3622 38.7188 17.0062 38.7188 17.7259C38.7188 18.3177 38.6051 18.8243 38.3778 19.2457C38.1506 19.6624 37.8452 20.0009 37.4616 20.2614C37.0781 20.5218 36.6496 20.7088 36.1761 20.8224V20.9645C36.6922 20.9929 37.187 21.1515 37.6605 21.4403C38.1387 21.7244 38.5294 22.1269 38.8324 22.6477C39.1354 23.1686 39.2869 23.7983 39.2869 24.5369C39.2869 25.2898 39.1046 25.9669 38.7401 26.5682C38.3755 27.1648 37.8262 27.6359 37.0923 27.9815C36.3584 28.3272 35.4351 28.5 34.3224 28.5H28.4347ZM31.0696 26.2983H33.9034C34.8598 26.2983 35.5488 26.116 35.9702 25.7514C36.3963 25.3821 36.6094 24.9086 36.6094 24.331C36.6094 23.9001 36.5028 23.5118 36.2898 23.1662C36.0767 22.8158 35.7737 22.5412 35.3807 22.3423C34.9877 22.1387 34.5189 22.0369 33.9744 22.0369H31.0696V26.2983ZM31.0696 20.1406H33.6761C34.1307 20.1406 34.5402 20.0578 34.9048 19.892C35.2694 19.7216 35.5559 19.4825 35.7642 19.1747C35.9773 18.8622 36.0838 18.4929 36.0838 18.0668C36.0838 17.5033 35.8849 17.0393 35.4872 16.6747C35.0942 16.3101 34.5095 16.1278 33.733 16.1278H31.0696V20.1406ZM48.4187 23.9119V17.5909H50.9897V28.5H48.4968V26.5611H48.3832C48.137 27.1719 47.7321 27.6714 47.1687 28.0597C46.61 28.4479 45.921 28.642 45.1019 28.642C44.387 28.642 43.7549 28.4834 43.2056 28.1662C42.6611 27.8442 42.235 27.3778 41.9272 26.767C41.6194 26.1515 41.4656 25.4081 41.4656 24.5369V17.5909H44.0366V24.1392C44.0366 24.8305 44.226 25.3797 44.6048 25.7869C44.9835 26.1941 45.4807 26.3977 46.0962 26.3977C46.475 26.3977 46.842 26.3054 47.1971 26.1207C47.5522 25.9361 47.8434 25.6615 48.0707 25.2969C48.3027 24.9276 48.4187 24.4659 48.4187 23.9119ZM55.2315 32.5909C54.8812 32.5909 54.5568 32.5625 54.2585 32.5057C53.965 32.4536 53.7306 32.392 53.5554 32.321L54.152 30.3182C54.526 30.4271 54.8598 30.4792 55.1534 30.4744C55.447 30.4697 55.705 30.3774 55.9276 30.1974C56.1548 30.0223 56.3466 29.7287 56.5028 29.3168L56.723 28.7273L52.767 17.5909H55.4943L58.0085 25.8295H58.1222L60.6435 17.5909H63.3778L59.0099 29.821C58.8063 30.3987 58.5365 30.8935 58.2003 31.3054C57.8641 31.7221 57.4522 32.0393 56.9645 32.2571C56.4815 32.4796 55.9039 32.5909 55.2315 32.5909ZM82.1847 13.9545V28.5H79.8409L72.9872 18.5923H72.8665V28.5H70.2315V13.9545H72.5895L79.4361 23.8693H79.5639V13.9545H82.1847ZM89.7006 28.7131C88.6353 28.7131 87.712 28.4787 86.9308 28.0099C86.1495 27.5412 85.5434 26.8854 85.1126 26.0426C84.6864 25.1998 84.4734 24.215 84.4734 23.0881C84.4734 21.9612 84.6864 20.974 85.1126 20.1264C85.5434 19.2789 86.1495 18.6207 86.9308 18.152C87.712 17.6832 88.6353 17.4489 89.7006 17.4489C90.766 17.4489 91.6893 17.6832 92.4705 18.152C93.2518 18.6207 93.8555 19.2789 94.2816 20.1264C94.7125 20.974 94.9279 21.9612 94.9279 23.0881C94.9279 24.215 94.7125 25.1998 94.2816 26.0426C93.8555 26.8854 93.2518 27.5412 92.4705 28.0099C91.6893 28.4787 90.766 28.7131 89.7006 28.7131ZM89.7148 26.6534C90.2925 26.6534 90.7754 26.4948 91.1637 26.1776C91.552 25.8556 91.8408 25.4247 92.0302 24.8849C92.2243 24.3452 92.3214 23.7438 92.3214 23.081C92.3214 22.4134 92.2243 21.8097 92.0302 21.2699C91.8408 20.7254 91.552 20.2921 91.1637 19.9702C90.7754 19.6482 90.2925 19.4872 89.7148 19.4872C89.123 19.4872 88.6306 19.6482 88.2376 19.9702C87.8493 20.2921 87.5581 20.7254 87.364 21.2699C87.1746 21.8097 87.0799 22.4134 87.0799 23.081C87.0799 23.7438 87.1746 24.3452 87.364 24.8849C87.5581 25.4247 87.8493 25.8556 88.2376 26.1776C88.6306 26.4948 89.123 26.6534 89.7148 26.6534ZM99.049 28.5L95.9666 17.5909H98.5874L100.505 25.2614H100.604L102.565 17.5909H105.157L107.117 25.2188H107.224L109.113 17.5909H111.741L108.651 28.5H105.974L103.928 21.1278H103.779L101.734 28.5H99.049ZM116.682 13.9545L116.448 24.2244H114.161L113.934 13.9545H116.682ZM115.304 28.6562C114.873 28.6562 114.504 28.5047 114.196 28.2017C113.893 27.8987 113.742 27.5294 113.742 27.0938C113.742 26.6676 113.893 26.303 114.196 26C114.504 25.697 114.873 25.5455 115.304 25.5455C115.726 25.5455 116.09 25.697 116.398 26C116.711 26.303 116.867 26.6676 116.867 27.0938C116.867 27.3826 116.793 27.6454 116.647 27.8821C116.505 28.1188 116.315 28.3082 116.078 28.4503C115.846 28.5876 115.588 28.6562 115.304 28.6562Z" fill="black"/>
<defs>
<filter id="filter0_i_26_365" x="0" y="0.5" width="146" height="43" filterUnits="userSpaceOnUse" color-interpolation-filters="sRGB">
<feFlood flood-opacity="0" result="BackgroundImageFix"/>
<feBlend mode="normal" in="SourceGraphic" in2="BackgroundImageFix" result="shape"/>
<feColorMatrix in="SourceAlpha" type="matrix" values="0 0 0 0 0 0 0 0 0 0 0 0 0 0 0 0 0 0 127 0" result="hardAlpha"/>
<feOffset dy="-32"/>
<feComposite in2="hardAlpha" operator="arithmetic" k2="-1" k3="1"/>
<feColorMatrix type="matrix" values="0 0 0 0 1 0 0 0 0 0.835294 0 0 0 0 0.192157 0 0 0 1 0"/>
<feBlend mode="normal" in2="shape" result="effect1_innerShadow_26_365"/>
</filter>
<filter id="filter1_i_26_365" x="3" y="3.5" width="140" height="37" filterUnits="userSpaceOnUse" color-interpolation-filters="sRGB">
<feFlood flood-opacity="0" result="BackgroundImageFix"/>
<feBlend mode="normal" in="SourceGraphic" in2="BackgroundImageFix" result="shape"/>
<feColorMatrix in="SourceAlpha" type="matrix" values="0 0 0 0 0 0 0 0 0 0 0 0 0 0 0 0 0 0 127 0" result="hardAlpha"/>
<feOffset dy="-19"/>
<feComposite in2="hardAlpha" operator="arithmetic" k2="-1" k3="1"/>
<feColorMatrix type="matrix" values="0 0 0 0 0.101961 0 0 0 0 0.776471 0 0 0 0 0 0 0 0 1 0"/>
<feBlend mode="normal" in2="shape" result="effect1_innerShadow_26_365"/>
</filter>
</defs>
</svg>
