<svg width="176" height="59" viewBox="0 0 176 59" fill="none" xmlns="http://www.w3.org/2000/svg">
<g filter="url(#filter0_i_26_419)">
<path d="M3 3H173V56H3V3Z" fill="#FFF258"/>
</g>
<path d="M3 1.5H1.5V3V56V57.5H3H173H174.5V56V3V1.5H173H3Z" stroke="black" stroke-width="3"/>
<g filter="url(#filter1_i_26_419)">
<path d="M3 3H173V56H3V3Z" fill="#3DFD00"/>
</g>
<path d="M4 4H172V55H4V4Z" stroke="#3DFD00" stroke-width="2"/>
<path d="M34.7216 38V20.5455H41.4034C42.6648 20.5455 43.7131 20.7443 44.5483 21.142C45.3892 21.5341 46.017 22.071 46.4318 22.7528C46.8523 23.4347 47.0625 24.2074 47.0625 25.071C47.0625 25.7812 46.9261 26.3892 46.6534 26.8949C46.3807 27.3949 46.0142 27.8011 45.554 28.1136C45.0938 28.4261 44.5795 28.6506 44.0114 28.7869V28.9574C44.6307 28.9915 45.2244 29.1818 45.7926 29.5284C46.3665 29.8693 46.8352 30.3523 47.1989 30.9773C47.5625 31.6023 47.7443 32.358 47.7443 33.2443C47.7443 34.1477 47.5256 34.9602 47.0881 35.6818C46.6506 36.3977 45.9915 36.9631 45.1108 37.3778C44.2301 37.7926 43.1222 38 41.7869 38H34.7216ZM37.8835 35.358H41.2841C42.4318 35.358 43.2585 35.1392 43.7642 34.7017C44.2756 34.2585 44.5312 33.6903 44.5312 32.9972C44.5312 32.4801 44.4034 32.0142 44.1477 31.5994C43.892 31.179 43.5284 30.8494 43.0568 30.6108C42.5852 30.3665 42.0227 30.2443 41.3693 30.2443H37.8835V35.358ZM37.8835 27.9688H41.0114C41.5568 27.9688 42.0483 27.8693 42.4858 27.6705C42.9233 27.4659 43.267 27.179 43.517 26.8097C43.7727 26.4347 43.9006 25.9915 43.9006 25.4801C43.9006 24.804 43.6619 24.2472 43.1847 23.8097C42.7131 23.3722 42.0114 23.1534 41.0795 23.1534H37.8835V27.9688ZM58.7024 32.4943V24.9091H61.7876V38H58.7962V35.6733H58.6598C58.3643 36.4062 57.8786 37.0057 57.2024 37.4716C56.532 37.9375 55.7053 38.1705 54.7223 38.1705C53.8643 38.1705 53.1058 37.9801 52.4467 37.5994C51.7933 37.2131 51.282 36.6534 50.9126 35.9205C50.5433 35.1818 50.3587 34.2898 50.3587 33.2443V24.9091H53.4439V32.767C53.4439 33.5966 53.6712 34.2557 54.1257 34.7443C54.5803 35.233 55.1768 35.4773 55.9155 35.4773C56.37 35.4773 56.8104 35.3665 57.2365 35.1449C57.6626 34.9233 58.0121 34.5938 58.2848 34.1562C58.5632 33.7131 58.7024 33.1591 58.7024 32.4943ZM66.8778 42.9091C66.4574 42.9091 66.0682 42.875 65.7102 42.8068C65.358 42.7443 65.0767 42.6705 64.8665 42.5852L65.5824 40.1818C66.0313 40.3125 66.4318 40.375 66.7841 40.3693C67.1364 40.3636 67.446 40.2528 67.7131 40.0369C67.9858 39.8267 68.2159 39.4744 68.4034 38.9801L68.6676 38.2727L63.9205 24.9091H67.1932L70.2102 34.7955H70.3466L73.3722 24.9091H76.6534L71.4119 39.5852C71.1676 40.2784 70.8438 40.8722 70.4403 41.3665C70.0369 41.8665 69.5426 42.2472 68.9574 42.5085C68.3778 42.7756 67.6847 42.9091 66.8778 42.9091ZM99.2216 20.5455V38H96.4091L88.1847 26.1108H88.0398V38H84.8778V20.5455H87.7074L95.9233 32.4432H96.0767V20.5455H99.2216ZM108.241 38.2557C106.962 38.2557 105.854 37.9744 104.917 37.4119C103.979 36.8494 103.252 36.0625 102.735 35.0511C102.224 34.0398 101.968 32.858 101.968 31.5057C101.968 30.1534 102.224 28.9687 102.735 27.9517C103.252 26.9347 103.979 26.1449 104.917 25.5824C105.854 25.0199 106.962 24.7386 108.241 24.7386C109.519 24.7386 110.627 25.0199 111.565 25.5824C112.502 26.1449 113.227 26.9347 113.738 27.9517C114.255 28.9687 114.513 30.1534 114.513 31.5057C114.513 32.858 114.255 34.0398 113.738 35.0511C113.227 36.0625 112.502 36.8494 111.565 37.4119C110.627 37.9744 109.519 38.2557 108.241 38.2557ZM108.258 35.7841C108.951 35.7841 109.531 35.5937 109.996 35.2131C110.462 34.8267 110.809 34.3097 111.036 33.6619C111.269 33.0142 111.386 32.2926 111.386 31.4972C111.386 30.696 111.269 29.9716 111.036 29.3239C110.809 28.6705 110.462 28.1506 109.996 27.7642C109.531 27.3778 108.951 27.1847 108.258 27.1847C107.548 27.1847 106.957 27.3778 106.485 27.7642C106.019 28.1506 105.67 28.6705 105.437 29.3239C105.21 29.9716 105.096 30.696 105.096 31.4972C105.096 32.2926 105.21 33.0142 105.437 33.6619C105.67 34.3097 106.019 34.8267 106.485 35.2131C106.957 35.5937 107.548 35.7841 108.258 35.7841ZM119.459 38L115.76 24.9091H118.905L121.206 34.1136H121.325L123.678 24.9091H126.788L129.141 34.0625H129.268L131.536 24.9091H134.689L130.982 38H127.768L125.314 29.1534H125.135L122.68 38H119.459ZM140.619 20.5455L140.337 32.8693H137.593L137.32 20.5455H140.619ZM138.965 38.1875C138.448 38.1875 138.005 38.0057 137.636 37.642C137.272 37.2784 137.09 36.8352 137.09 36.3125C137.09 35.8011 137.272 35.3636 137.636 35C138.005 34.6364 138.448 34.4545 138.965 34.4545C139.471 34.4545 139.908 34.6364 140.278 35C140.653 35.3636 140.84 35.8011 140.84 36.3125C140.84 36.6591 140.752 36.9744 140.576 37.2585C140.406 37.5426 140.178 37.7699 139.894 37.9403C139.616 38.1051 139.306 38.1875 138.965 38.1875Z" fill="white"/>
<defs>
<filter id="filter0_i_26_419" x="0" y="0" width="176" height="59" filterUnits="userSpaceOnUse" color-interpolation-filters="sRGB">
<feFlood flood-opacity="0" result="BackgroundImageFix"/>
<feBlend mode="normal" in="SourceGraphic" in2="BackgroundImageFix" result="shape"/>
<feColorMatrix in="SourceAlpha" type="matrix" values="0 0 0 0 0 0 0 0 0 0 0 0 0 0 0 0 0 0 127 0" result="hardAlpha"/>
<feOffset dy="-32"/>
<feComposite in2="hardAlpha" operator="arithmetic" k2="-1" k3="1"/>
<feColorMatrix type="matrix" values="0 0 0 0 1 0 0 0 0 0.835294 0 0 0 0 0.192157 0 0 0 1 0"/>
<feBlend mode="normal" in2="shape" result="effect1_innerShadow_26_419"/>
</filter>
<filter id="filter1_i_26_419" x="3" y="3" width="170" height="53" filterUnits="userSpaceOnUse" color-interpolation-filters="sRGB">
<feFlood flood-opacity="0" result="BackgroundImageFix"/>
<feBlend mode="normal" in="SourceGraphic" in2="BackgroundImageFix" result="shape"/>
<feColorMatrix in="SourceAlpha" type="matrix" values="0 0 0 0 0 0 0 0 0 0 0 0 0 0 0 0 0 0 127 0" result="hardAlpha"/>
<feOffset dy="-32"/>
<feComposite in2="hardAlpha" operator="arithmetic" k2="-1" k3="1"/>
<feColorMatrix type="matrix" values="0 0 0 0 0 0 0 0 0 0 0 0 0 0 0 0 0 0 0.2 0"/>
<feBlend mode="normal" in2="shape" result="effect1_innerShadow_26_419"/>
</filter>
</defs>
</svg>
