<svg width="525" height="77" viewBox="0 0 525 77" fill="none" xmlns="http://www.w3.org/2000/svg">
<mask id="path-1-outside-1_33_2744" maskUnits="userSpaceOnUse" x="13" y="3.04785" width="508" height="66" fill="black">
<rect fill="white" x="13" y="3.04785" width="508" height="66"/>
<path d="M17.8485 60.0479V12.2697H39.0137V29.7717H49.7841V12.2697H70.9492V60.0479H49.7841V42.2954H39.0137V60.0479H17.8485ZM88.1694 8.7631L130.875 19.8153L131.063 20.0032L119.823 63.0536C92.3544 56.0194 78.0565 52.2727 76.9293 51.8135C83.7339 25.0335 87.4806 10.6834 88.1694 8.7631ZM100.944 30.711L98.8772 39.2271H99.0651L107.049 41.2622C108.427 36.4406 109.115 33.6645 109.115 32.9339L100.944 30.711ZM147.908 60.0479L131.032 12.2697H151.665L157.207 27.8618L163.03 12.2697H177.714L183.82 27.8618L189.048 12.2697H209.712L193.619 60.0479H178.027L170.482 41.137L163.468 60.0479H147.908ZM226.839 12.2697H269.294V33.4349H258.649V60.0479H237.484V33.4349H226.839V12.2697ZM283.164 8.7631L325.87 19.8153L326.058 20.0032L314.818 63.0536C287.349 56.0194 273.051 52.2727 271.924 51.8135C278.729 25.0335 282.475 10.6834 283.164 8.7631ZM295.938 30.711L293.872 39.2271H294.06L302.044 41.2622C303.421 36.4406 304.11 33.6645 304.11 32.9339L295.938 30.711ZM376.404 12.2697C380.077 12.2697 383.219 12.7081 385.828 13.5847C388.145 14.357 390.023 15.4529 391.463 16.8722C392.716 18.1037 393.634 19.544 394.219 21.1929C394.699 22.5705 394.939 24.0421 394.939 25.6075C394.939 27.7366 394.511 29.5943 393.655 31.1806C392.632 33.0174 390.994 34.5829 388.739 35.877C391.557 37.3799 393.561 39.0914 394.751 41.0118C395.732 42.6398 396.222 44.581 396.222 46.8353C396.222 50.7385 394.897 53.859 392.246 56.1968C389.345 58.7642 385.222 60.0479 379.879 60.0479H346.534V12.2697H376.404ZM367.699 31.1806H368.2C372.438 31.1806 374.556 29.6256 374.556 26.5155C374.556 23.4263 372.699 21.8817 368.983 21.8817H367.699V31.1806ZM367.699 49.5279H368.326C372.813 49.5279 375.057 47.8789 375.057 44.581C375.057 40.9909 373.095 39.1958 369.171 39.1958H367.699V49.5279ZM449.511 33.9358C449.511 42.786 447.309 49.4131 442.905 53.8173C440.525 56.1968 437.749 57.9919 434.576 59.2025C431.717 60.2879 428.763 60.8306 425.716 60.8306C422.585 60.8306 419.527 60.2461 416.542 59.0773C413.369 57.8249 410.635 56.0507 408.339 53.7547C405.96 51.3752 404.269 48.4216 403.267 44.8941C402.411 41.8049 401.983 37.8391 401.983 32.9966V12.2697H423.148V34.4055C423.148 38.0374 423.983 39.8533 425.653 39.8533C426.718 39.8533 427.427 39.3628 427.782 38.3818C428.158 37.359 428.346 35.3656 428.346 32.4017V12.2697H449.511V33.9358ZM471.991 60.0479V39.1958L453.769 12.2697H475.185L482.574 23.1028L489.931 12.2697H511.347L493.125 39.1958V60.0479H471.991Z"/>
</mask>
<path d="M17.8485 60.0479V12.2697H39.0137V29.7717H49.7841V12.2697H70.9492V60.0479H49.7841V42.2954H39.0137V60.0479H17.8485ZM88.1694 8.7631L130.875 19.8153L131.063 20.0032L119.823 63.0536C92.3544 56.0194 78.0565 52.2727 76.9293 51.8135C83.7339 25.0335 87.4806 10.6834 88.1694 8.7631ZM100.944 30.711L98.8772 39.2271H99.0651L107.049 41.2622C108.427 36.4406 109.115 33.6645 109.115 32.9339L100.944 30.711ZM147.908 60.0479L131.032 12.2697H151.665L157.207 27.8618L163.03 12.2697H177.714L183.82 27.8618L189.048 12.2697H209.712L193.619 60.0479H178.027L170.482 41.137L163.468 60.0479H147.908ZM226.839 12.2697H269.294V33.4349H258.649V60.0479H237.484V33.4349H226.839V12.2697ZM283.164 8.7631L325.87 19.8153L326.058 20.0032L314.818 63.0536C287.349 56.0194 273.051 52.2727 271.924 51.8135C278.729 25.0335 282.475 10.6834 283.164 8.7631ZM295.938 30.711L293.872 39.2271H294.06L302.044 41.2622C303.421 36.4406 304.11 33.6645 304.11 32.9339L295.938 30.711ZM376.404 12.2697C380.077 12.2697 383.219 12.7081 385.828 13.5847C388.145 14.357 390.023 15.4529 391.463 16.8722C392.716 18.1037 393.634 19.544 394.219 21.1929C394.699 22.5705 394.939 24.0421 394.939 25.6075C394.939 27.7366 394.511 29.5943 393.655 31.1806C392.632 33.0174 390.994 34.5829 388.739 35.877C391.557 37.3799 393.561 39.0914 394.751 41.0118C395.732 42.6398 396.222 44.581 396.222 46.8353C396.222 50.7385 394.897 53.859 392.246 56.1968C389.345 58.7642 385.222 60.0479 379.879 60.0479H346.534V12.2697H376.404ZM367.699 31.1806H368.2C372.438 31.1806 374.556 29.6256 374.556 26.5155C374.556 23.4263 372.699 21.8817 368.983 21.8817H367.699V31.1806ZM367.699 49.5279H368.326C372.813 49.5279 375.057 47.8789 375.057 44.581C375.057 40.9909 373.095 39.1958 369.171 39.1958H367.699V49.5279ZM449.511 33.9358C449.511 42.786 447.309 49.4131 442.905 53.8173C440.525 56.1968 437.749 57.9919 434.576 59.2025C431.717 60.2879 428.763 60.8306 425.716 60.8306C422.585 60.8306 419.527 60.2461 416.542 59.0773C413.369 57.8249 410.635 56.0507 408.339 53.7547C405.96 51.3752 404.269 48.4216 403.267 44.8941C402.411 41.8049 401.983 37.8391 401.983 32.9966V12.2697H423.148V34.4055C423.148 38.0374 423.983 39.8533 425.653 39.8533C426.718 39.8533 427.427 39.3628 427.782 38.3818C428.158 37.359 428.346 35.3656 428.346 32.4017V12.2697H449.511V33.9358ZM471.991 60.0479V39.1958L453.769 12.2697H475.185L482.574 23.1028L489.931 12.2697H511.347L493.125 39.1958V60.0479H471.991Z" fill="url(#paint0_linear_33_2744)"/>
<path d="M17.8485 60.0479H13.1814V64.715H17.8485V60.0479ZM17.8485 12.2697V7.60261H13.1814V12.2697H17.8485ZM39.0137 12.2697H43.6808V7.60261H39.0137V12.2697ZM39.0137 29.7717H34.3465V34.4388H39.0137V29.7717ZM49.7841 29.7717V34.4388H54.4512V29.7717H49.7841ZM49.7841 12.2697V7.60261H45.117V12.2697H49.7841ZM70.9492 12.2697H75.6164V7.60261H70.9492V12.2697ZM70.9492 60.0479V64.715H75.6164V60.0479H70.9492ZM49.7841 60.0479H45.117V64.715H49.7841V60.0479ZM49.7841 42.2954H54.4512V37.6283H49.7841V42.2954ZM39.0137 42.2954V37.6283H34.3465V42.2954H39.0137ZM39.0137 60.0479V64.715H43.6808V60.0479H39.0137ZM22.5157 60.0479V12.2697H13.1814V60.0479H22.5157ZM17.8485 16.9369H39.0137V7.60261H17.8485V16.9369ZM34.3465 12.2697V29.7717H43.6808V12.2697H34.3465ZM39.0137 34.4388H49.7841V25.1046H39.0137V34.4388ZM54.4512 29.7717V12.2697H45.117V29.7717H54.4512ZM49.7841 16.9369H70.9492V7.60261H49.7841V16.9369ZM66.2821 12.2697V60.0479H75.6164V12.2697H66.2821ZM70.9492 55.3807H49.7841V64.715H70.9492V55.3807ZM54.4512 60.0479V42.2954H45.117V60.0479H54.4512ZM49.7841 37.6283H39.0137V46.9626H49.7841V37.6283ZM34.3465 42.2954V60.0479H43.6808V42.2954H34.3465ZM39.0137 55.3807H17.8485V64.715H39.0137V55.3807ZM88.1694 8.7631L89.3387 4.24482L85.2146 3.17751L83.7763 7.18732L88.1694 8.7631ZM130.875 19.8153L134.176 16.5151L133.276 15.6157L132.045 15.297L130.875 19.8153ZM131.063 20.0032L135.579 21.1822L136.255 18.5943L134.363 16.703L131.063 20.0032ZM119.823 63.0536L118.665 67.5748L123.165 68.7272L124.339 64.2326L119.823 63.0536ZM76.9293 51.8135L72.4059 50.6641L71.4052 54.6025L75.1684 56.1357L76.9293 51.8135ZM100.944 30.711L102.169 26.2075L97.5394 24.9482L96.4081 29.6104L100.944 30.711ZM98.8772 39.2271L94.3417 38.1266L92.9422 43.8943H98.8772V39.2271ZM99.0651 39.2271L100.218 34.7046L99.6505 34.56H99.0651V39.2271ZM107.049 41.2622L105.896 45.7847L110.291 46.9049L111.537 42.5444L107.049 41.2622ZM109.115 32.9339H113.783V29.3668L110.34 28.4305L109.115 32.9339ZM87.0001 13.2814L129.706 24.3336L132.045 15.297L89.3387 4.24482L87.0001 13.2814ZM127.575 23.1155L127.763 23.3033L134.363 16.703L134.176 16.5151L127.575 23.1155ZM126.547 18.8241L115.307 61.8745L124.339 64.2326L135.579 21.1822L126.547 18.8241ZM120.981 58.5323C107.249 55.0158 96.8173 52.3232 89.6812 50.4532C86.1114 49.5178 83.3777 48.7912 81.472 48.2715C79.3597 47.6956 78.636 47.4692 78.6902 47.4913L75.1684 56.1357C75.7863 56.3874 77.2724 56.8015 79.0165 57.277C80.967 57.8089 83.7359 58.5447 87.3151 59.4826C94.4769 61.3593 104.929 64.0571 118.665 67.5748L120.981 58.5323ZM81.4527 52.9628C84.8542 39.5759 87.4891 29.3051 89.3585 22.1449C91.2701 14.8234 92.3089 11.0458 92.5625 10.3389L83.7763 7.18732C83.3411 8.40071 82.1621 12.7583 80.327 19.7869C78.4498 26.9769 75.809 37.2711 72.4059 50.6641L81.4527 52.9628ZM96.4081 29.6104L94.3417 38.1266L103.413 40.3276L105.479 31.8115L96.4081 29.6104ZM98.8772 43.8943H99.0651V34.56H98.8772V43.8943ZM97.9123 43.7496L105.896 45.7847L108.202 36.7397L100.218 34.7046L97.9123 43.7496ZM111.537 42.5444C112.231 40.1137 112.765 38.1539 113.129 36.6879C113.31 35.9578 113.459 35.3092 113.566 34.765C113.651 34.333 113.783 33.6201 113.783 32.9339H104.448C104.448 32.6131 104.494 32.5211 104.407 32.9658C104.341 33.2982 104.232 33.782 104.069 34.44C103.744 35.75 103.245 37.5891 102.561 39.9801L111.537 42.5444ZM110.34 28.4305L102.169 26.2075L99.7185 35.2144L107.89 37.4374L110.34 28.4305ZM147.908 60.0479L143.507 61.6022L144.606 64.715H147.908V60.0479ZM131.032 12.2697V7.60261H124.434L126.631 13.8241L131.032 12.2697ZM151.665 12.2697L156.062 10.7067L154.959 7.60261H151.665V12.2697ZM157.207 27.8618L152.809 29.4248L157.098 41.4919L161.579 29.4948L157.207 27.8618ZM163.03 12.2697V7.60261H159.791L158.658 10.6368L163.03 12.2697ZM177.714 12.2697L182.06 10.5681L180.899 7.60261H177.714V12.2697ZM183.82 27.8618L179.474 29.5635L184.159 41.5289L188.245 29.3457L183.82 27.8618ZM189.048 12.2697V7.60261H185.691L184.623 10.7859L189.048 12.2697ZM209.712 12.2697L214.135 13.7595L216.209 7.60261H209.712V12.2697ZM193.619 60.0479V64.715H196.972L198.042 61.5376L193.619 60.0479ZM178.027 60.0479L173.692 61.7775L174.865 64.715H178.027V60.0479ZM170.482 41.137L174.817 39.4074L170.322 28.1442L166.106 39.5141L170.482 41.137ZM163.468 60.0479V64.715H166.715L167.844 61.6707L163.468 60.0479ZM152.308 58.4935L135.433 10.7154L126.631 13.8241L143.507 61.6022L152.308 58.4935ZM131.032 16.9369H151.665V7.60261H131.032V16.9369ZM147.267 13.8328L152.809 29.4248L161.604 26.2988L156.062 10.7067L147.267 13.8328ZM161.579 29.4948L167.402 13.9027L158.658 10.6368L152.834 26.2288L161.579 29.4948ZM163.03 16.9369H177.714V7.60261H163.03V16.9369ZM173.368 13.9714L179.474 29.5635L188.165 26.1601L182.06 10.5681L173.368 13.9714ZM188.245 29.3457L193.473 13.7536L184.623 10.7859L179.395 26.3779L188.245 29.3457ZM189.048 16.9369H209.712V7.60261H189.048V16.9369ZM205.289 10.78L189.196 58.5581L198.042 61.5376L214.135 13.7595L205.289 10.78ZM193.619 55.3807H178.027V64.715H193.619V55.3807ZM182.362 58.3182L174.817 39.4074L166.147 42.8666L173.692 61.7775L182.362 58.3182ZM166.106 39.5141L159.093 58.425L167.844 61.6707L174.858 42.7598L166.106 39.5141ZM163.468 55.3807H147.908V64.715H163.468V55.3807ZM226.839 12.2697V7.60261H222.171V12.2697H226.839ZM269.294 12.2697H273.961V7.60261H269.294V12.2697ZM269.294 33.4349V38.102H273.961V33.4349H269.294ZM258.649 33.4349V28.7677H253.982V33.4349H258.649ZM258.649 60.0479V64.715H263.316V60.0479H258.649ZM237.484 60.0479H232.817V64.715H237.484V60.0479ZM237.484 33.4349H242.151V28.7677H237.484V33.4349ZM226.839 33.4349H222.171V38.102H226.839V33.4349ZM226.839 16.9369H269.294V7.60261H226.839V16.9369ZM264.627 12.2697V33.4349H273.961V12.2697H264.627ZM269.294 28.7677H258.649V38.102H269.294V28.7677ZM253.982 33.4349V60.0479H263.316V33.4349H253.982ZM258.649 55.3807H237.484V64.715H258.649V55.3807ZM242.151 60.0479V33.4349H232.817V60.0479H242.151ZM237.484 28.7677H226.839V38.102H237.484V28.7677ZM231.506 33.4349V12.2697H222.171V33.4349H231.506ZM283.164 8.7631L284.334 4.24482L280.209 3.17751L278.771 7.18732L283.164 8.7631ZM325.87 19.8153L329.17 16.5151L328.271 15.6157L327.039 15.297L325.87 19.8153ZM326.058 20.0032L330.574 21.1822L331.249 18.5943L329.358 16.703L326.058 20.0032ZM314.818 63.0536L313.66 67.5748L318.16 68.7272L319.334 64.2326L314.818 63.0536ZM271.924 51.8135L267.401 50.6641L266.4 54.6025L270.163 56.1357L271.924 51.8135ZM295.938 30.711L297.163 26.2075L292.534 24.9482L291.403 29.6104L295.938 30.711ZM293.872 39.2271L289.336 38.1266L287.937 43.8943H293.872V39.2271ZM294.06 39.2271L295.213 34.7046L294.645 34.56H294.06V39.2271ZM302.044 41.2622L300.891 45.7847L305.285 46.9049L306.531 42.5444L302.044 41.2622ZM304.11 32.9339H308.777V29.3668L305.335 28.4305L304.11 32.9339ZM281.995 13.2814L324.701 24.3336L327.039 15.297L284.334 4.24482L281.995 13.2814ZM322.57 23.1155L322.758 23.3033L329.358 16.703L329.17 16.5151L322.57 23.1155ZM321.542 18.8241L310.302 61.8745L319.334 64.2326L330.574 21.1822L321.542 18.8241ZM315.976 58.5323C302.244 55.0158 291.812 52.3232 284.676 50.4532C281.106 49.5178 278.372 48.7912 276.467 48.2715C274.355 47.6956 273.631 47.4692 273.685 47.4913L270.163 56.1357C270.781 56.3874 272.267 56.8015 274.011 57.277C275.962 57.8089 278.731 58.5447 282.31 59.4826C289.472 61.3593 299.923 64.0571 313.66 67.5748L315.976 58.5323ZM276.448 52.9628C279.849 39.5759 282.484 29.3051 284.353 22.1449C286.265 14.8234 287.304 11.0458 287.557 10.3389L278.771 7.18732C278.336 8.40071 277.157 12.7583 275.322 19.7869C273.445 26.9769 270.804 37.2711 267.401 50.6641L276.448 52.9628ZM291.403 29.6104L289.336 38.1266L298.408 40.3276L300.474 31.8115L291.403 29.6104ZM293.872 43.8943H294.06V34.56H293.872V43.8943ZM292.907 43.7496L300.891 45.7847L303.197 36.7397L295.213 34.7046L292.907 43.7496ZM306.531 42.5444C307.226 40.1137 307.76 38.1539 308.123 36.6879C308.304 35.9578 308.454 35.3092 308.561 34.765C308.645 34.333 308.777 33.6201 308.777 32.9339H299.443C299.443 32.6131 299.489 32.5211 299.401 32.9658C299.336 33.2982 299.227 33.782 299.064 34.44C298.739 35.75 298.239 37.5891 297.556 39.9801L306.531 42.5444ZM305.335 28.4305L297.163 26.2075L294.713 35.2144L302.885 37.4374L305.335 28.4305ZM385.828 13.5847L384.341 18.0088L384.352 18.0124L385.828 13.5847ZM391.463 16.8722L388.187 20.1964L388.191 20.2L391.463 16.8722ZM394.219 21.1929L398.626 19.6571L398.622 19.6454L398.618 19.6338L394.219 21.1929ZM393.655 31.1806L397.733 33.4511L397.748 33.4239L397.763 33.3965L393.655 31.1806ZM388.739 35.877L386.416 31.8294L379.103 36.0273L386.543 39.9951L388.739 35.877ZM394.751 41.0118L398.748 38.603L398.733 38.5783L398.718 38.5537L394.751 41.0118ZM392.246 56.1968L389.159 52.6964L389.153 52.7016L392.246 56.1968ZM346.534 60.0479H341.867V64.715H346.534V60.0479ZM346.534 12.2697V7.60261H341.867V12.2697H346.534ZM367.699 31.1806H363.032V35.8477H367.699V31.1806ZM367.699 21.8817V17.2146H363.032V21.8817H367.699ZM367.699 49.5279H363.032V54.195H367.699V49.5279ZM367.699 39.1958V34.5287H363.032V39.1958H367.699ZM376.404 16.9369C379.73 16.9369 382.341 17.3368 384.341 18.0088L387.314 9.16066C384.096 8.07934 380.424 7.60261 376.404 7.60261V16.9369ZM384.352 18.0124C386.131 18.6054 387.35 19.3709 388.187 20.1964L394.739 13.5481C392.696 11.5348 390.158 10.1087 387.304 9.15711L384.352 18.0124ZM388.191 20.2C388.941 20.9371 389.473 21.7732 389.82 22.7521L398.618 19.6338C397.796 17.3147 396.491 15.2703 394.736 13.5444L388.191 20.2ZM389.811 22.7288C390.107 23.5777 390.272 24.5267 390.272 25.6075H399.606C399.606 23.5575 399.29 21.5634 398.626 19.6571L389.811 22.7288ZM390.272 25.6075C390.272 27.1032 389.975 28.1727 389.547 28.9647L397.763 33.3965C399.047 31.0158 399.606 28.37 399.606 25.6075H390.272ZM389.577 28.9101C389.054 29.8495 388.108 30.8581 386.416 31.8294L391.063 39.9246C393.88 38.3077 396.21 36.1853 397.733 33.4511L389.577 28.9101ZM386.543 39.9951C388.919 41.2623 390.17 42.4803 390.783 43.4698L398.718 38.5537C396.952 35.7025 394.195 33.4974 390.936 31.759L386.543 39.9951ZM390.753 43.4205C391.221 44.1963 391.555 45.2707 391.555 46.8353H400.889C400.889 43.8913 400.243 41.0834 398.748 38.603L390.753 43.4205ZM391.555 46.8353C391.555 49.5556 390.694 51.3432 389.159 52.6964L395.333 59.6972C399.1 56.3749 400.889 51.9214 400.889 46.8353H391.555ZM389.153 52.7016C387.382 54.2692 384.516 55.3807 379.879 55.3807V64.715C385.929 64.715 391.308 63.2592 395.339 59.692L389.153 52.7016ZM379.879 55.3807H346.534V64.715H379.879V55.3807ZM351.201 60.0479V12.2697H341.867V60.0479H351.201ZM346.534 16.9369H376.404V7.60261H346.534V16.9369ZM367.699 35.8477H368.2V26.5135H367.699V35.8477ZM368.2 35.8477C370.752 35.8477 373.512 35.404 375.729 33.7768C378.215 31.9519 379.223 29.2476 379.223 26.5155H369.889C369.889 26.7669 369.847 26.765 369.91 26.6267C369.984 26.4621 370.108 26.3237 370.206 26.2519C370.276 26.2004 370.211 26.2725 369.872 26.3556C369.529 26.4396 368.989 26.5135 368.2 26.5135V35.8477ZM379.223 26.5155C379.223 24.0017 378.426 21.3468 376.147 19.4515C374.032 17.6934 371.372 17.2146 368.983 17.2146V26.5489C369.604 26.5489 369.98 26.615 370.175 26.6689C370.358 26.7197 370.313 26.7401 370.179 26.6289C370.027 26.5024 369.922 26.3406 369.876 26.2249C369.841 26.1378 369.889 26.2015 369.889 26.5155H379.223ZM368.983 17.2146H367.699V26.5489H368.983V17.2146ZM363.032 21.8817V31.1806H372.367V21.8817H363.032ZM367.699 54.195H368.326V44.8608H367.699V54.195ZM368.326 54.195C371.004 54.195 373.858 53.7275 376.138 52.052C378.686 50.1793 379.724 47.4048 379.724 44.581H370.39C370.39 44.8801 370.34 44.92 370.386 44.8174C370.445 44.6885 370.544 44.5792 370.611 44.5304C370.649 44.5018 370.546 44.5911 370.16 44.6856C369.771 44.7811 369.177 44.8608 368.326 44.8608V54.195ZM379.724 44.581C379.724 41.9544 378.987 39.1585 376.736 37.0987C374.563 35.1108 371.755 34.5287 369.171 34.5287V43.8629C370.511 43.8629 370.646 44.1783 370.435 43.9855C370.329 43.8885 370.296 43.799 370.304 43.8227C370.322 43.8729 370.39 44.0963 370.39 44.581H379.724ZM369.171 34.5287H367.699V43.8629H369.171V34.5287ZM363.032 39.1958V49.5279H372.367V39.1958H363.032ZM442.905 53.8173L439.604 50.5171L442.905 53.8173ZM434.576 59.2025L436.232 63.5659L436.24 63.563L434.576 59.2025ZM416.542 59.0773L414.828 63.4184L414.84 63.423L416.542 59.0773ZM403.267 44.8941L398.769 46.1401L398.773 46.1547L398.777 46.1693L403.267 44.8941ZM401.983 12.2697V7.60261H397.316V12.2697H401.983ZM423.148 12.2697H427.816V7.60261H423.148V12.2697ZM427.782 38.3818L423.401 36.7725L423.397 36.7834L423.393 36.7943L427.782 38.3818ZM428.346 12.2697V7.60261H423.679V12.2697H428.346ZM449.511 12.2697H454.178V7.60261H449.511V12.2697ZM444.844 33.9358C444.844 42.074 442.821 47.3006 439.604 50.5171L446.205 57.1174C451.797 51.5256 454.178 43.4979 454.178 33.9358H444.844ZM439.604 50.5171C437.694 52.4276 435.477 53.8635 432.912 54.842L436.24 63.563C440.021 62.1203 443.356 59.966 446.205 57.1174L439.604 50.5171ZM432.92 54.8391C430.588 55.7244 428.195 56.1635 425.716 56.1635V65.4977C429.331 65.4977 432.846 64.8513 436.232 63.5659L432.92 54.8391ZM425.716 56.1635C423.181 56.1635 420.7 55.6932 418.244 54.7315L414.84 63.423C418.354 64.7991 421.988 65.4977 425.716 65.4977V56.1635ZM418.256 54.7361C415.647 53.7063 413.461 52.2759 411.639 50.4545L405.039 57.0548C407.81 59.8255 411.092 61.9434 414.828 63.4184L418.256 54.7361ZM411.639 50.4545C409.872 48.6872 408.561 46.4516 407.756 43.619L398.777 46.1693C399.977 50.3916 402.047 54.0631 405.039 57.0548L411.639 50.4545ZM407.765 43.6481C407.063 41.115 406.65 37.6092 406.65 32.9966H397.316C397.316 38.0689 397.759 42.4948 398.769 46.1401L407.765 43.6481ZM406.65 32.9966V12.2697H397.316V32.9966H406.65ZM401.983 16.9369H423.148V7.60261H401.983V16.9369ZM418.481 12.2697V34.4055H427.816V12.2697H418.481ZM418.481 34.4055C418.481 36.4324 418.691 38.6079 419.534 40.441C419.982 41.4159 420.693 42.4758 421.818 43.2914C422.992 44.1426 424.334 44.5204 425.653 44.5204V35.1862C426.137 35.1862 426.749 35.337 427.297 35.7343C427.796 36.0958 427.984 36.4747 428.015 36.5417C428.042 36.6 427.98 36.4831 427.918 36.0819C427.859 35.6949 427.816 35.1464 427.816 34.4055H418.481ZM425.653 44.5204C426.91 44.5204 428.337 44.2237 429.637 43.3247C430.946 42.4204 431.734 41.1777 432.171 39.9692L423.393 36.7943C423.476 36.5668 423.731 36.0599 424.33 35.6461C424.921 35.2376 425.461 35.1862 425.653 35.1862V44.5204ZM432.163 39.9911C432.866 38.0788 433.013 35.2771 433.013 32.4017H423.679C423.679 33.7997 423.634 34.8817 423.558 35.6818C423.476 36.5525 423.38 36.8306 423.401 36.7725L432.163 39.9911ZM433.013 32.4017V12.2697H423.679V32.4017H433.013ZM428.346 16.9369H449.511V7.60261H428.346V16.9369ZM444.844 12.2697V33.9358H454.178V12.2697H444.844ZM471.991 60.0479H467.324V64.715H471.991V60.0479ZM471.991 39.1958H476.658V37.765L475.856 36.58L471.991 39.1958ZM453.769 12.2697V7.60261H444.975L449.904 14.8855L453.769 12.2697ZM475.185 12.2697L479.04 9.63989L477.651 7.60261H475.185V12.2697ZM482.574 23.1028L478.718 25.7327L482.582 31.3974L486.434 25.725L482.574 23.1028ZM489.931 12.2697V7.60261H487.459L486.07 9.64751L489.931 12.2697ZM511.347 12.2697L515.212 14.8855L520.141 7.60261H511.347V12.2697ZM493.125 39.1958L489.26 36.58L488.458 37.765V39.1958H493.125ZM493.125 60.0479V64.715H497.792V60.0479H493.125ZM476.658 60.0479V39.1958H467.324V60.0479H476.658ZM475.856 36.58L457.634 9.65398L449.904 14.8855L468.126 41.8116L475.856 36.58ZM453.769 16.9369H475.185V7.60261H453.769V16.9369ZM471.329 14.8996L478.718 25.7327L486.429 20.4729L479.04 9.63989L471.329 14.8996ZM486.434 25.725L493.792 14.892L486.07 9.64751L478.713 20.4806L486.434 25.725ZM489.931 16.9369H511.347V7.60261H489.931V16.9369ZM507.482 9.65398L489.26 36.58L496.99 41.8116L515.212 14.8855L507.482 9.65398ZM488.458 39.1958V60.0479H497.792V39.1958H488.458ZM493.125 55.3807H471.991V64.715H493.125V55.3807Z" fill="black" mask="url(#path-1-outside-1_33_2744)"/>
<mask id="path-3-outside-2_33_2744" maskUnits="userSpaceOnUse" x="16" y="6.04785" width="499" height="60" fill="black">
<rect fill="white" x="16" y="6.04785" width="499" height="60"/>
<path d="M17.8485 60.0479V12.2697H39.0137V29.7717H49.7841V12.2697H70.9492V60.0479H49.7841V42.2954H39.0137V60.0479H17.8485ZM88.1694 8.7631L130.875 19.8153L131.063 20.0032L119.823 63.0536C92.3544 56.0194 78.0565 52.2727 76.9293 51.8135C83.7339 25.0335 87.4806 10.6834 88.1694 8.7631ZM100.944 30.711L98.8772 39.2271H99.0651L107.049 41.2622C108.427 36.4406 109.115 33.6645 109.115 32.9339L100.944 30.711ZM147.908 60.0479L131.032 12.2697H151.665L157.207 27.8618L163.03 12.2697H177.714L183.82 27.8618L189.048 12.2697H209.712L193.619 60.0479H178.027L170.482 41.137L163.468 60.0479H147.908ZM226.839 12.2697H269.294V33.4349H258.649V60.0479H237.484V33.4349H226.839V12.2697ZM283.164 8.7631L325.87 19.8153L326.058 20.0032L314.818 63.0536C287.349 56.0194 273.051 52.2727 271.924 51.8135C278.729 25.0335 282.475 10.6834 283.164 8.7631ZM295.938 30.711L293.872 39.2271H294.06L302.044 41.2622C303.421 36.4406 304.11 33.6645 304.11 32.9339L295.938 30.711ZM376.404 12.2697C380.077 12.2697 383.219 12.7081 385.828 13.5847C388.145 14.357 390.023 15.4529 391.463 16.8722C392.716 18.1037 393.634 19.544 394.219 21.1929C394.699 22.5705 394.939 24.0421 394.939 25.6075C394.939 27.7366 394.511 29.5943 393.655 31.1806C392.632 33.0174 390.994 34.5829 388.739 35.877C391.557 37.3799 393.561 39.0914 394.751 41.0118C395.732 42.6398 396.222 44.581 396.222 46.8353C396.222 50.7385 394.897 53.859 392.246 56.1968C389.345 58.7642 385.222 60.0479 379.879 60.0479H346.534V12.2697H376.404ZM367.699 31.1806H368.2C372.438 31.1806 374.556 29.6256 374.556 26.5155C374.556 23.4263 372.699 21.8817 368.983 21.8817H367.699V31.1806ZM367.699 49.5279H368.326C372.813 49.5279 375.057 47.8789 375.057 44.581C375.057 40.9909 373.095 39.1958 369.171 39.1958H367.699V49.5279ZM449.511 33.9358C449.511 42.786 447.309 49.4131 442.905 53.8173C440.525 56.1968 437.749 57.9919 434.576 59.2025C431.717 60.2879 428.763 60.8306 425.716 60.8306C422.585 60.8306 419.527 60.2461 416.542 59.0773C413.369 57.8249 410.635 56.0507 408.339 53.7547C405.96 51.3752 404.269 48.4216 403.267 44.8941C402.411 41.8049 401.983 37.8391 401.983 32.9966V12.2697H423.148V34.4055C423.148 38.0374 423.983 39.8533 425.653 39.8533C426.718 39.8533 427.427 39.3628 427.782 38.3818C428.158 37.359 428.346 35.3656 428.346 32.4017V12.2697H449.511V33.9358ZM471.991 60.0479V39.1958L453.769 12.2697H475.185L482.574 23.1028L489.931 12.2697H511.347L493.125 39.1958V60.0479H471.991Z"/>
</mask>
<path d="M17.8485 60.0479V12.2697H39.0137V29.7717H49.7841V12.2697H70.9492V60.0479H49.7841V42.2954H39.0137V60.0479H17.8485ZM88.1694 8.7631L130.875 19.8153L131.063 20.0032L119.823 63.0536C92.3544 56.0194 78.0565 52.2727 76.9293 51.8135C83.7339 25.0335 87.4806 10.6834 88.1694 8.7631ZM100.944 30.711L98.8772 39.2271H99.0651L107.049 41.2622C108.427 36.4406 109.115 33.6645 109.115 32.9339L100.944 30.711ZM147.908 60.0479L131.032 12.2697H151.665L157.207 27.8618L163.03 12.2697H177.714L183.82 27.8618L189.048 12.2697H209.712L193.619 60.0479H178.027L170.482 41.137L163.468 60.0479H147.908ZM226.839 12.2697H269.294V33.4349H258.649V60.0479H237.484V33.4349H226.839V12.2697ZM283.164 8.7631L325.87 19.8153L326.058 20.0032L314.818 63.0536C287.349 56.0194 273.051 52.2727 271.924 51.8135C278.729 25.0335 282.475 10.6834 283.164 8.7631ZM295.938 30.711L293.872 39.2271H294.06L302.044 41.2622C303.421 36.4406 304.11 33.6645 304.11 32.9339L295.938 30.711ZM376.404 12.2697C380.077 12.2697 383.219 12.7081 385.828 13.5847C388.145 14.357 390.023 15.4529 391.463 16.8722C392.716 18.1037 393.634 19.544 394.219 21.1929C394.699 22.5705 394.939 24.0421 394.939 25.6075C394.939 27.7366 394.511 29.5943 393.655 31.1806C392.632 33.0174 390.994 34.5829 388.739 35.877C391.557 37.3799 393.561 39.0914 394.751 41.0118C395.732 42.6398 396.222 44.581 396.222 46.8353C396.222 50.7385 394.897 53.859 392.246 56.1968C389.345 58.7642 385.222 60.0479 379.879 60.0479H346.534V12.2697H376.404ZM367.699 31.1806H368.2C372.438 31.1806 374.556 29.6256 374.556 26.5155C374.556 23.4263 372.699 21.8817 368.983 21.8817H367.699V31.1806ZM367.699 49.5279H368.326C372.813 49.5279 375.057 47.8789 375.057 44.581C375.057 40.9909 373.095 39.1958 369.171 39.1958H367.699V49.5279ZM449.511 33.9358C449.511 42.786 447.309 49.4131 442.905 53.8173C440.525 56.1968 437.749 57.9919 434.576 59.2025C431.717 60.2879 428.763 60.8306 425.716 60.8306C422.585 60.8306 419.527 60.2461 416.542 59.0773C413.369 57.8249 410.635 56.0507 408.339 53.7547C405.96 51.3752 404.269 48.4216 403.267 44.8941C402.411 41.8049 401.983 37.8391 401.983 32.9966V12.2697H423.148V34.4055C423.148 38.0374 423.983 39.8533 425.653 39.8533C426.718 39.8533 427.427 39.3628 427.782 38.3818C428.158 37.359 428.346 35.3656 428.346 32.4017V12.2697H449.511V33.9358ZM471.991 60.0479V39.1958L453.769 12.2697H475.185L482.574 23.1028L489.931 12.2697H511.347L493.125 39.1958V60.0479H471.991Z" fill="url(#paint1_linear_33_2744)"/>
<path d="M17.8485 60.0479H16.0535V61.8429H17.8485V60.0479ZM17.8485 12.2697V10.4747H16.0535V12.2697H17.8485ZM39.0137 12.2697H40.8087V10.4747H39.0137V12.2697ZM39.0137 29.7717H37.2186V31.5667H39.0137V29.7717ZM49.7841 29.7717V31.5667H51.5792V29.7717H49.7841ZM49.7841 12.2697V10.4747H47.9891V12.2697H49.7841ZM70.9492 12.2697H72.7443V10.4747H70.9492V12.2697ZM70.9492 60.0479V61.8429H72.7443V60.0479H70.9492ZM49.7841 60.0479H47.9891V61.8429H49.7841V60.0479ZM49.7841 42.2954H51.5792V40.5004H49.7841V42.2954ZM39.0137 42.2954V40.5004H37.2186V42.2954H39.0137ZM39.0137 60.0479V61.8429H40.8087V60.0479H39.0137ZM19.6436 60.0479V12.2697H16.0535V60.0479H19.6436ZM17.8485 14.0648H39.0137V10.4747H17.8485V14.0648ZM37.2186 12.2697V29.7717H40.8087V12.2697H37.2186ZM39.0137 31.5667H49.7841V27.9766H39.0137V31.5667ZM51.5792 29.7717V12.2697H47.9891V29.7717H51.5792ZM49.7841 14.0648H70.9492V10.4747H49.7841V14.0648ZM69.1542 12.2697V60.0479H72.7443V12.2697H69.1542ZM70.9492 58.2528H49.7841V61.8429H70.9492V58.2528ZM51.5792 60.0479V42.2954H47.9891V60.0479H51.5792ZM49.7841 40.5004H39.0137V44.0905H49.7841V40.5004ZM37.2186 42.2954V60.0479H40.8087V42.2954H37.2186ZM39.0137 58.2528H17.8485V61.8429H39.0137V58.2528ZM88.1694 8.7631L88.6191 7.0253L87.033 6.6148L86.4798 8.15703L88.1694 8.7631ZM130.875 19.8153L132.145 18.546L131.799 18.2001L131.325 18.0775L130.875 19.8153ZM131.063 20.0032L132.8 20.4566L133.06 19.4613L132.333 18.7339L131.063 20.0032ZM119.823 63.0536L119.378 64.7925L121.109 65.2357L121.56 63.507L119.823 63.0536ZM76.9293 51.8135L75.1896 51.3714L74.8047 52.8862L76.2521 53.4759L76.9293 51.8135ZM100.944 30.711L101.415 28.9789L99.6343 28.4945L99.1992 30.2877L100.944 30.711ZM98.8772 39.2271L97.1328 38.8038L96.5945 41.0222H98.8772V39.2271ZM99.0651 39.2271L99.5084 37.4877L99.2902 37.4321H99.0651V39.2271ZM107.049 41.2622L106.606 43.0017L108.296 43.4325L108.775 41.7554L107.049 41.2622ZM109.115 32.9339H110.91V31.562L109.587 31.2018L109.115 32.9339ZM87.7197 10.5009L130.426 21.5531L131.325 18.0775L88.6191 7.0253L87.7197 10.5009ZM129.606 21.0846L129.794 21.2725L132.333 18.7339L132.145 18.546L129.606 21.0846ZM129.326 19.5497L118.086 62.6001L121.56 63.507L132.8 20.4566L129.326 19.5497ZM120.268 61.3146C106.535 57.7977 96.0972 55.1035 88.9532 53.2315C85.3805 52.2953 82.6359 51.5658 80.7164 51.0425C79.7559 50.7806 79.0082 50.5719 78.4691 50.4157C78.1991 50.3374 77.9882 50.2743 77.8324 50.2254C77.6596 50.1712 77.6012 50.1489 77.6066 50.1511L76.2521 53.4759C76.6631 53.6433 77.9147 53.9997 79.772 54.5061C81.7088 55.0342 84.4668 55.7672 88.0431 56.7043C95.1971 58.579 105.643 61.2752 119.378 64.7925L120.268 61.3146ZM78.6691 52.2555C82.0711 38.8667 84.7078 28.5887 86.5796 21.4194C88.4677 14.188 89.5496 10.2319 89.859 9.36917L86.4798 8.15703C86.1004 9.21458 84.9646 13.3937 83.106 20.5125C81.2311 27.6933 78.5921 37.9803 75.1896 51.3714L78.6691 52.2555ZM99.1992 30.2877L97.1328 38.8038L100.622 39.6504L102.688 31.1342L99.1992 30.2877ZM98.8772 41.0222H99.0651V37.4321H98.8772V41.0222ZM98.6217 40.9665L106.606 43.0017L107.492 39.5228L99.5084 37.4877L98.6217 40.9665ZM108.775 41.7554C109.466 39.3369 109.989 37.4143 110.341 35.9962C110.517 35.2883 110.654 34.6904 110.748 34.2114C110.833 33.7755 110.91 33.3102 110.91 32.9339H107.32C107.32 32.9229 107.311 33.0786 107.225 33.5194C107.147 33.917 107.025 34.4515 106.857 35.1316C106.52 36.4897 106.01 38.3659 105.323 40.7691L108.775 41.7554ZM109.587 31.2018L101.415 28.9789L100.472 32.4431L108.644 34.666L109.587 31.2018ZM147.908 60.0479L146.215 60.6457L146.638 61.8429H147.908V60.0479ZM131.032 12.2697V10.4747H128.494L129.339 12.8676L131.032 12.2697ZM151.665 12.2697L153.356 11.6686L152.932 10.4747H151.665V12.2697ZM157.207 27.8618L155.515 28.463L157.165 33.1042L158.888 28.4899L157.207 27.8618ZM163.03 12.2697V10.4747H161.784L161.349 11.6417L163.03 12.2697ZM177.714 12.2697L179.386 11.6153L178.939 10.4747H177.714V12.2697ZM183.82 27.8618L182.148 28.5163L183.95 33.1184L185.521 28.4325L183.82 27.8618ZM189.048 12.2697V10.4747H187.757L187.346 11.699L189.048 12.2697ZM209.712 12.2697L211.414 12.8427L212.211 10.4747H209.712V12.2697ZM193.619 60.0479V61.8429H194.909L195.321 60.6208L193.619 60.0479ZM178.027 60.0479L176.36 60.7131L176.811 61.8429H178.027V60.0479ZM170.482 41.137L172.149 40.4718L170.42 36.1398L168.799 40.5128L170.482 41.137ZM163.468 60.0479V61.8429H164.717L165.151 60.672L163.468 60.0479ZM149.6 59.45L132.725 11.6719L129.339 12.8676L146.215 60.6457L149.6 59.45ZM131.032 14.0648H151.665V10.4747H131.032V14.0648ZM149.973 12.8709L155.515 28.463L158.898 27.2607L153.356 11.6686L149.973 12.8709ZM158.888 28.4899L164.712 12.8978L161.349 11.6417L155.525 27.2338L158.888 28.4899ZM163.03 14.0648H177.714V10.4747H163.03V14.0648ZM176.043 12.9242L182.148 28.5163L185.491 27.2073L179.386 11.6153L176.043 12.9242ZM185.521 28.4325L190.75 12.8405L187.346 11.699L182.118 27.2911L185.521 28.4325ZM189.048 14.0648H209.712V10.4747H189.048V14.0648ZM208.011 11.6968L191.918 59.4749L195.321 60.6208L211.414 12.8427L208.011 11.6968ZM193.619 58.2528H178.027V61.8429H193.619V58.2528ZM179.695 59.3826L172.149 40.4718L168.815 41.8022L176.36 60.7131L179.695 59.3826ZM168.799 40.5128L161.785 59.4237L165.151 60.672L172.165 41.7612L168.799 40.5128ZM163.468 58.2528H147.908V61.8429H163.468V58.2528ZM226.839 12.2697V10.4747H225.044V12.2697H226.839ZM269.294 12.2697H271.089V10.4747H269.294V12.2697ZM269.294 33.4349V35.2299H271.089V33.4349H269.294ZM258.649 33.4349V31.6398H256.854V33.4349H258.649ZM258.649 60.0479V61.8429H260.444V60.0479H258.649ZM237.484 60.0479H235.689V61.8429H237.484V60.0479ZM237.484 33.4349H239.279V31.6398H237.484V33.4349ZM226.839 33.4349H225.044V35.2299H226.839V33.4349ZM226.839 14.0648H269.294V10.4747H226.839V14.0648ZM267.499 12.2697V33.4349H271.089V12.2697H267.499ZM269.294 31.6398H258.649V35.2299H269.294V31.6398ZM256.854 33.4349V60.0479H260.444V33.4349H256.854ZM258.649 58.2528H237.484V61.8429H258.649V58.2528ZM239.279 60.0479V33.4349H235.689V60.0479H239.279ZM237.484 31.6398H226.839V35.2299H237.484V31.6398ZM228.634 33.4349V12.2697H225.044V33.4349H228.634ZM283.164 8.7631L283.614 7.0253L282.028 6.6148L281.475 8.15703L283.164 8.7631ZM325.87 19.8153L327.139 18.546L326.794 18.2001L326.32 18.0775L325.87 19.8153ZM326.058 20.0032L327.795 20.4566L328.055 19.4613L327.327 18.7339L326.058 20.0032ZM314.818 63.0536L314.373 64.7925L316.103 65.2357L316.555 63.507L314.818 63.0536ZM271.924 51.8135L270.184 51.3714L269.799 52.8862L271.247 53.4759L271.924 51.8135ZM295.938 30.711L296.41 28.9789L294.629 28.4945L294.194 30.2877L295.938 30.711ZM293.872 39.2271L292.128 38.8038L291.589 41.0222H293.872V39.2271ZM294.06 39.2271L294.503 37.4877L294.285 37.4321H294.06V39.2271ZM302.044 41.2622L301.6 43.0017L303.291 43.4325L303.77 41.7554L302.044 41.2622ZM304.11 32.9339H305.905V31.562L304.581 31.2018L304.11 32.9339ZM282.714 10.5009L325.42 21.5531L326.32 18.0775L283.614 7.0253L282.714 10.5009ZM324.601 21.0846L324.789 21.2725L327.327 18.7339L327.139 18.546L324.601 21.0846ZM324.321 19.5497L313.081 62.6001L316.555 63.507L327.795 20.4566L324.321 19.5497ZM315.263 61.3146C301.53 57.7977 291.092 55.1035 283.948 53.2315C280.375 52.2953 277.631 51.5658 275.711 51.0425C274.751 50.7806 274.003 50.5719 273.464 50.4157C273.194 50.3374 272.983 50.2743 272.827 50.2254C272.654 50.1712 272.596 50.1489 272.601 50.1511L271.247 53.4759C271.658 53.6433 272.909 53.9997 274.767 54.5061C276.704 55.0342 279.462 55.7672 283.038 56.7043C290.192 58.579 300.637 61.2752 314.373 64.7925L315.263 61.3146ZM273.664 52.2555C277.066 38.8667 279.703 28.5887 281.574 21.4194C283.462 14.188 284.544 10.2319 284.854 9.36917L281.475 8.15703C281.095 9.21458 279.959 13.3937 278.101 20.5125C276.226 27.6933 273.587 37.9803 270.184 51.3714L273.664 52.2555ZM294.194 30.2877L292.128 38.8038L295.616 39.6504L297.683 31.1342L294.194 30.2877ZM293.872 41.0222H294.06V37.4321H293.872V41.0222ZM293.616 40.9665L301.6 43.0017L302.487 39.5228L294.503 37.4877L293.616 40.9665ZM303.77 41.7554C304.461 39.3369 304.984 37.4143 305.336 35.9962C305.511 35.2883 305.648 34.6904 305.742 34.2114C305.828 33.7755 305.905 33.3102 305.905 32.9339H302.315C302.315 32.9229 302.306 33.0786 302.22 33.5194C302.142 33.917 302.02 34.4515 301.851 35.1316C301.514 36.4897 301.004 38.3659 300.318 40.7691L303.77 41.7554ZM304.581 31.2018L296.41 28.9789L295.467 32.4431L303.639 34.666L304.581 31.2018ZM385.828 13.5847L385.256 15.2863L385.26 15.2877L385.828 13.5847ZM391.463 16.8722L390.203 18.1508L390.205 18.1521L391.463 16.8722ZM394.219 21.1929L395.914 20.6022L395.91 20.5932L394.219 21.1929ZM393.655 31.1806L395.223 32.0539L395.229 32.0434L395.235 32.0329L393.655 31.1806ZM388.739 35.877L387.846 34.3203L385.033 35.9348L387.895 37.4609L388.739 35.877ZM394.751 41.0118L396.288 40.0853L396.283 40.0758L396.277 40.0663L394.751 41.0118ZM392.246 56.1968L391.059 54.8505L391.056 54.8525L392.246 56.1968ZM346.534 60.0479H344.739V61.8429H346.534V60.0479ZM346.534 12.2697V10.4747H344.739V12.2697H346.534ZM367.699 31.1806H365.904V32.9757H367.699V31.1806ZM367.699 21.8817V20.0867H365.904V21.8817H367.699ZM367.699 49.5279H365.904V51.323H367.699V49.5279ZM367.699 39.1958V37.4008H365.904V39.1958H367.699ZM376.404 14.0648C379.944 14.0648 382.881 14.4884 385.256 15.2863L386.399 11.8832C383.556 10.9278 380.211 10.4747 376.404 10.4747V14.0648ZM385.26 15.2877C387.37 15.991 388.995 16.9598 390.203 18.1507L392.723 15.5937C391.051 13.9459 388.919 12.7231 386.395 11.8818L385.26 15.2877ZM390.205 18.1521C391.264 19.1935 392.034 20.4014 392.527 21.7926L395.91 20.5932C395.235 18.6865 394.168 17.014 392.722 15.5923L390.205 18.1521ZM392.523 21.7836C392.933 22.9579 393.144 24.2284 393.144 25.6075H396.734C396.734 23.8557 396.465 22.1832 395.914 20.6022L392.523 21.7836ZM393.144 25.6075C393.144 27.493 392.766 29.0475 392.075 30.3283L395.235 32.0329C396.255 30.141 396.734 27.9802 396.734 25.6075H393.144ZM392.087 30.3073C391.256 31.799 389.884 33.1503 387.846 34.3203L389.633 37.4338C392.104 36.0155 394.008 34.2359 395.223 32.0539L392.087 30.3073ZM387.895 37.4609C390.543 38.8731 392.257 40.3949 393.225 41.9572L396.277 40.0663C394.865 37.788 392.572 35.8866 389.584 34.2931L387.895 37.4609ZM393.213 41.9382C393.997 43.2385 394.427 44.8463 394.427 46.8353H398.017C398.017 44.3158 397.467 42.0412 396.288 40.0853L393.213 41.9382ZM394.427 46.8353C394.427 50.2836 393.28 52.8914 391.059 54.8505L393.433 57.5431C396.514 54.8267 398.017 51.1935 398.017 46.8353H394.427ZM391.056 54.8525C388.59 57.0353 384.951 58.2528 379.879 58.2528V61.8429C385.494 61.8429 390.1 60.493 393.436 57.5411L391.056 54.8525ZM379.879 58.2528H346.534V61.8429H379.879V58.2528ZM348.329 60.0479V12.2697H344.739V60.0479H348.329ZM346.534 14.0648H376.404V10.4747H346.534V14.0648ZM367.699 32.9757H368.2V29.3856H367.699V32.9757ZM368.2 32.9757C370.486 32.9757 372.525 32.5657 374.029 31.4614C375.638 30.2811 376.351 28.5232 376.351 26.5155H372.761C372.761 27.6178 372.416 28.1926 371.905 28.5672C371.291 29.018 370.152 29.3856 368.2 29.3856V32.9757ZM376.351 26.5155C376.351 24.5981 375.759 22.8641 374.311 21.6599C372.926 20.5085 371.045 20.0867 368.983 20.0867V23.6768C370.637 23.6768 371.543 24.0273 372.015 24.4204C372.425 24.7608 372.761 25.3437 372.761 26.5155H376.351ZM368.983 20.0867H367.699V23.6768H368.983V20.0867ZM365.904 21.8817V31.1806H369.495V21.8817H365.904ZM367.699 51.323H368.326V47.7328H367.699V51.323ZM368.326 51.323C370.737 51.323 372.87 50.8894 374.437 49.7377C376.108 48.51 376.852 46.6818 376.852 44.581H373.262C373.262 45.7781 372.885 46.4234 372.311 46.8447C371.635 47.3419 370.403 47.7328 368.326 47.7328V51.323ZM376.852 44.581C376.852 42.4661 376.267 40.5623 374.797 39.2177C373.358 37.9008 371.372 37.4008 369.171 37.4008V40.9909C370.894 40.9909 371.851 41.3883 372.374 41.8665C372.866 42.317 373.262 43.1058 373.262 44.581H376.852ZM369.171 37.4008H367.699V40.9909H369.171V37.4008ZM365.904 39.1958V49.5279H369.495V39.1958H365.904ZM442.905 53.8173L441.635 52.548L442.905 53.8173ZM434.576 59.2025L435.213 60.8807L435.216 60.8796L434.576 59.2025ZM416.542 59.0773L415.883 60.7469L415.888 60.7487L416.542 59.0773ZM403.267 44.8941L401.537 45.3734L401.54 45.3846L403.267 44.8941ZM401.983 12.2697V10.4747H400.188V12.2697H401.983ZM423.148 12.2697H424.943V10.4747H423.148V12.2697ZM427.782 38.3818L426.097 37.7628L426.094 37.7712L427.782 38.3818ZM428.346 12.2697V10.4747H426.551V12.2697H428.346ZM449.511 12.2697H451.306V10.4747H449.511V12.2697ZM447.716 33.9358C447.716 42.5121 445.583 48.6006 441.635 52.548L444.174 55.0866C449.035 50.2256 451.306 43.0598 451.306 33.9358H447.716ZM441.635 52.548C439.436 54.7471 436.875 56.404 433.936 57.5254L435.216 60.8796C438.623 59.5797 441.614 57.6465 444.174 55.0866L441.635 52.548ZM433.939 57.5243C431.282 58.5327 428.545 59.0355 425.716 59.0355V62.6256C428.982 62.6256 432.151 62.0431 435.213 60.8807L433.939 57.5243ZM425.716 59.0355C422.814 59.0355 419.978 58.495 417.197 57.4058L415.888 60.7487C419.076 61.9973 422.355 62.6256 425.716 62.6256V59.0355ZM417.201 57.4076C414.245 56.2408 411.722 54.5988 409.608 52.4854L407.07 55.024C409.548 57.5025 412.493 59.4089 415.883 60.7469L417.201 57.4076ZM409.608 52.4854C407.464 50.3413 405.92 47.6639 404.994 44.4037L401.54 45.3846C402.618 49.1793 404.455 52.409 407.07 55.024L409.608 52.4854ZM404.997 44.4149C404.2 41.5396 403.778 37.7507 403.778 32.9966H400.188C400.188 37.9275 400.622 42.0703 401.537 45.3733L404.997 44.4149ZM403.778 32.9966V12.2697H400.188V32.9966H403.778ZM401.983 14.0648H423.148V10.4747H401.983V14.0648ZM421.353 12.2697V34.4055H424.943V12.2697H421.353ZM421.353 34.4055C421.353 36.3026 421.563 37.9774 422.144 39.2412C422.445 39.8956 422.878 40.5127 423.504 40.9661C424.148 41.4332 424.889 41.6484 425.653 41.6484V38.0583C425.609 38.0583 425.594 38.0525 425.599 38.054C425.605 38.0559 425.611 38.0595 425.611 38.0595C425.61 38.0589 425.522 37.9951 425.406 37.7415C425.152 37.1893 424.943 36.1403 424.943 34.4055H421.353ZM425.653 41.6484C426.464 41.6484 427.286 41.4588 428.004 40.9621C428.726 40.4633 429.193 39.759 429.47 38.9923L426.094 37.7712C426.054 37.882 426.017 37.9435 425.995 37.9734C425.975 38.001 425.964 38.008 425.963 38.0088C425.962 38.0097 425.948 38.0198 425.907 38.0312C425.863 38.0433 425.782 38.0583 425.653 38.0583V41.6484ZM429.467 39.0007C429.969 37.6359 430.141 35.3316 430.141 32.4017H426.551C426.551 35.3997 426.347 37.0821 426.097 37.7628L429.467 39.0007ZM430.141 32.4017V12.2697H426.551V32.4017H430.141ZM428.346 14.0648H449.511V10.4747H428.346V14.0648ZM447.716 12.2697V33.9358H451.306V12.2697H447.716ZM471.991 60.0479H470.196V61.8429H471.991V60.0479ZM471.991 39.1958H473.786V38.6455L473.478 38.1897L471.991 39.1958ZM453.769 12.2697V10.4747H450.387L452.282 13.2758L453.769 12.2697ZM475.185 12.2697L476.668 11.2583L476.133 10.4747H475.185V12.2697ZM482.574 23.1028L481.091 24.1143L482.577 26.293L484.059 24.1113L482.574 23.1028ZM489.931 12.2697V10.4747H488.981L488.446 11.2612L489.931 12.2697ZM511.347 12.2697L512.834 13.2758L514.729 10.4747H511.347V12.2697ZM493.125 39.1958L491.638 38.1897L491.33 38.6455V39.1958H493.125ZM493.125 60.0479V61.8429H494.92V60.0479H493.125ZM473.786 60.0479V39.1958H470.196V60.0479H473.786ZM473.478 38.1897L455.256 11.2637L452.282 13.2758L470.504 40.2019L473.478 38.1897ZM453.769 14.0648H475.185V10.4747H453.769V14.0648ZM473.702 13.2812L481.091 24.1143L484.057 22.0913L476.668 11.2583L473.702 13.2812ZM484.059 24.1113L491.416 13.2783L488.446 11.2612L481.089 22.0942L484.059 24.1113ZM489.931 14.0648H511.347V10.4747H489.931V14.0648ZM509.86 11.2637L491.638 38.1897L494.611 40.2019L512.834 13.2758L509.86 11.2637ZM491.33 39.1958V60.0479H494.92V39.1958H491.33ZM493.125 58.2528H471.991V61.8429H493.125V58.2528Z" fill="#01FF1B" mask="url(#path-3-outside-2_33_2744)"/>
<defs>
<linearGradient id="paint0_linear_33_2744" x1="262.5" y1="5.4651" x2="262.5" y2="70.4182" gradientUnits="userSpaceOnUse">
<stop offset="0.522986" stop-color="#01FF1B"/>
<stop offset="0.523086" stop-color="#01CC16"/>
<stop offset="1" stop-color="#01FF1B"/>
</linearGradient>
<linearGradient id="paint1_linear_33_2744" x1="262.5" y1="5.4651" x2="262.5" y2="70.4182" gradientUnits="userSpaceOnUse">
<stop offset="0.522986" stop-color="#01FF1B"/>
<stop offset="0.523086" stop-color="#01CC16"/>
<stop offset="1" stop-color="#01FF1B"/>
</linearGradient>
</defs>
</svg>
