<svg width="79" height="59" viewBox="0 0 79 59" fill="none" xmlns="http://www.w3.org/2000/svg">
<g filter="url(#filter0_i_26_403)">
<path d="M3 3H76V56H3V3Z" fill="#3DFD00"/>
</g>
<path d="M3 1.5H1.5V3V56V57.5H3H76H77.5V56V3V1.5H76H3Z" stroke="black" stroke-width="3"/>
<g filter="url(#filter1_i_26_403)">
<path d="M3 3H76V56H3V3Z" fill="#3DFD00"/>
</g>
<path d="M4 4H75V55H4V4Z" stroke="#3DFD00" stroke-width="2"/>
<path fill-rule="evenodd" clip-rule="evenodd" d="M49.8003 18.7802C50.1297 18.6458 50.4902 18.5995 50.8443 18.646C51.1984 18.6925 51.5331 18.8302 51.8137 19.0447C52.0943 19.2592 52.3105 19.5427 52.4397 19.8656C52.5689 20.1886 52.6065 20.5393 52.5485 20.8811L49.5258 38.6562C49.2326 40.3708 47.2921 41.3541 45.6701 40.5C44.3134 39.7855 42.2982 38.6846 40.4857 37.536C39.5794 36.961 36.8032 35.1198 37.1444 33.8096C37.4376 32.6894 42.1023 28.4798 44.7678 25.9771C45.8141 24.9938 45.3369 24.4266 44.1014 25.331C41.0334 27.5767 36.1075 30.9916 34.4789 31.9529C33.0422 32.8005 32.2932 32.9452 31.3975 32.8005C29.7636 32.5369 28.2482 32.1286 27.0114 31.6312C25.3401 30.9593 25.4214 28.7318 27.0101 28.0832L49.8003 18.7802Z" fill="white"/>
<defs>
<filter id="filter0_i_26_403" x="0" y="0" width="79" height="59" filterUnits="userSpaceOnUse" color-interpolation-filters="sRGB">
<feFlood flood-opacity="0" result="BackgroundImageFix"/>
<feBlend mode="normal" in="SourceGraphic" in2="BackgroundImageFix" result="shape"/>
<feColorMatrix in="SourceAlpha" type="matrix" values="0 0 0 0 0 0 0 0 0 0 0 0 0 0 0 0 0 0 127 0" result="hardAlpha"/>
<feOffset dy="-32"/>
<feComposite in2="hardAlpha" operator="arithmetic" k2="-1" k3="1"/>
<feColorMatrix type="matrix" values="0 0 0 0 1 0 0 0 0 0.835294 0 0 0 0 0.192157 0 0 0 1 0"/>
<feBlend mode="normal" in2="shape" result="effect1_innerShadow_26_403"/>
</filter>
<filter id="filter1_i_26_403" x="3" y="3" width="73" height="53" filterUnits="userSpaceOnUse" color-interpolation-filters="sRGB">
<feFlood flood-opacity="0" result="BackgroundImageFix"/>
<feBlend mode="normal" in="SourceGraphic" in2="BackgroundImageFix" result="shape"/>
<feColorMatrix in="SourceAlpha" type="matrix" values="0 0 0 0 0 0 0 0 0 0 0 0 0 0 0 0 0 0 127 0" result="hardAlpha"/>
<feOffset dy="-32"/>
<feComposite in2="hardAlpha" operator="arithmetic" k2="-1" k3="1"/>
<feColorMatrix type="matrix" values="0 0 0 0 0 0 0 0 0 0 0 0 0 0 0 0 0 0 0.2 0"/>
<feBlend mode="normal" in2="shape" result="effect1_innerShadow_26_403"/>
</filter>
</defs>
</svg>
