<svg width="79" height="59" viewBox="0 0 79 59" fill="none" xmlns="http://www.w3.org/2000/svg">
<g filter="url(#filter0_i_26_414)">
<path d="M3 3H76V56H3V3Z" fill="#3DFD00"/>
</g>
<path d="M3 1.5H1.5V3V56V57.5H3H76H77.5V56V3V1.5H76H3Z" stroke="black" stroke-width="3"/>
<g filter="url(#filter1_i_26_414)">
<path d="M3 3H76V56H3V3Z" fill="#3DFD00"/>
</g>
<path d="M4 4H75V55H4V4Z" stroke="#3DFD00" stroke-width="2"/>
<g clip-path="url(#clip0_26_414)">
<path fill-rule="evenodd" clip-rule="evenodd" d="M38.2719 19.4384C36.7482 20.2278 35.5017 20.8958 35.502 20.923C35.5027 20.9931 39.1588 22.8347 39.2885 22.8302C39.3475 22.8283 39.7758 22.6322 40.2401 22.3947L41.0844 21.9628L42.0065 22.4342L42.9286 22.9057L44.4387 22.2309C46.7141 21.214 46.9504 21.1025 46.9134 21.0651C46.8642 21.0154 46.0482 20.5794 43.8339 19.42C42.7639 18.8597 41.7252 18.3103 41.5258 18.1991C41.3263 18.0877 41.136 17.9983 41.1027 18C41.0694 18.0018 39.7956 18.6491 38.2719 19.4384ZM31.5891 22.8801L30.0031 23.695V27.2712C30.0031 29.2381 30.0239 30.8474 30.0495 30.8474C30.0751 30.8474 30.8553 30.5109 31.7835 30.0997L33.4713 29.352V25.5825L34.2961 26.0294C34.9316 26.3735 35.5676 26.7167 36.2038 27.0595L37.2868 27.6426L37.7687 27.4258C38.071 27.2897 38.3726 27.1522 38.6736 27.0134C38.9062 26.9056 39.4772 26.6498 39.9425 26.4449C40.4078 26.2398 40.8385 26.0335 40.8995 25.9866C40.9807 25.9242 39.9915 25.3805 37.2407 23.9756C35.1674 22.9166 33.4044 22.0535 33.3231 22.0577C33.2418 22.0619 32.4616 22.4319 31.5891 22.8801ZM47.1991 23.1089C46.1188 23.5939 45.2342 24.0102 45.2332 24.0339C45.2323 24.0576 45.821 24.4058 46.5416 24.8075C47.2622 25.2094 47.8518 25.5596 47.8518 25.586C47.8518 25.6124 47.2141 25.9196 46.4349 26.269C45.6555 26.6183 43.6857 27.5031 42.0573 28.2352L36.6011 30.688C35.2286 31.3052 33.9914 31.8613 33.8518 31.9242C31.0484 33.1864 30.2779 33.5366 30.1721 33.5967C30.0656 33.6572 30.0416 34.0088 30.0226 35.7737L30 37.8788L31.4184 38.5975L32.8367 39.3163L34.8035 38.4335C35.8853 37.948 36.7703 37.5254 36.7703 37.4942C36.7703 37.4631 36.5703 37.3337 36.3262 37.2063C36.0819 37.0788 35.5775 36.7969 35.2053 36.5794C34.8331 36.3619 34.462 36.1625 34.3805 36.136C34.2991 36.1096 34.2336 36.0635 34.2349 36.0333C34.2363 36.0032 35.1024 35.5942 36.1594 35.124C38.2126 34.2111 39.7837 33.5074 43.157 31.9903C44.6653 31.312 46.1739 30.6344 47.6825 29.9568C49.0085 29.3615 50.5502 28.6664 51.1085 28.4119L52.1236 27.9493L52.1461 25.8204L52.1688 23.6915L50.7302 22.9571C49.9389 22.5533 49.2626 22.2238 49.2271 22.2251C49.1917 22.2262 48.2792 22.6239 47.1991 23.1089ZM51.7383 30.7894C51.5262 30.8924 51.1076 31.0853 50.8078 31.2179C50.508 31.3505 49.9392 31.6058 49.5436 31.7852L48.8247 32.1114L48.8082 33.9804C48.7992 35.0084 48.7612 35.8448 48.7236 35.8395C48.6386 35.8268 47.2909 35.1394 45.9363 34.4175C44.9586 33.8965 44.8972 33.8758 44.6674 33.989C44.5346 34.0545 43.7407 34.4085 42.9033 34.776C42.0658 35.1434 41.3533 35.4681 41.3197 35.4974C41.2864 35.5267 42.9718 36.4352 45.0653 37.5165L48.8717 39.4824L50.4976 38.6458C51.3919 38.1858 52.1523 37.7661 52.1873 37.7134C52.2661 37.5947 52.2594 30.5858 52.1804 30.5953C52.1492 30.599 51.9502 30.6865 51.7383 30.7894ZM42.7341 39.0161C42.452 39.1367 42.17 39.2575 41.8881 39.3784C41.0369 39.7447 41.2037 39.7569 40.1909 39.2555C39.5164 38.9215 39.2256 38.8184 39.0995 38.8685C39.0048 38.906 38.1901 39.2705 37.2889 39.6786C36.3877 40.0867 35.6191 40.4205 35.581 40.4205C35.2028 40.4205 35.8315 40.794 38.257 42.0109L41.1016 43.4379L42.2985 42.8503C42.9567 42.527 44.2845 41.8797 45.2491 41.412C46.2135 40.944 46.9908 40.5489 46.9763 40.5341C46.9617 40.5192 46.1535 40.1064 45.1802 39.6169L43.4107 38.7268L42.7341 39.0161Z" fill="white"/>
</g>
<defs>
<filter id="filter0_i_26_414" x="0" y="0" width="79" height="59" filterUnits="userSpaceOnUse" color-interpolation-filters="sRGB">
<feFlood flood-opacity="0" result="BackgroundImageFix"/>
<feBlend mode="normal" in="SourceGraphic" in2="BackgroundImageFix" result="shape"/>
<feColorMatrix in="SourceAlpha" type="matrix" values="0 0 0 0 0 0 0 0 0 0 0 0 0 0 0 0 0 0 127 0" result="hardAlpha"/>
<feOffset dy="-32"/>
<feComposite in2="hardAlpha" operator="arithmetic" k2="-1" k3="1"/>
<feColorMatrix type="matrix" values="0 0 0 0 1 0 0 0 0 0.835294 0 0 0 0 0.192157 0 0 0 1 0"/>
<feBlend mode="normal" in2="shape" result="effect1_innerShadow_26_414"/>
</filter>
<filter id="filter1_i_26_414" x="3" y="3" width="73" height="53" filterUnits="userSpaceOnUse" color-interpolation-filters="sRGB">
<feFlood flood-opacity="0" result="BackgroundImageFix"/>
<feBlend mode="normal" in="SourceGraphic" in2="BackgroundImageFix" result="shape"/>
<feColorMatrix in="SourceAlpha" type="matrix" values="0 0 0 0 0 0 0 0 0 0 0 0 0 0 0 0 0 0 127 0" result="hardAlpha"/>
<feOffset dy="-32"/>
<feComposite in2="hardAlpha" operator="arithmetic" k2="-1" k3="1"/>
<feColorMatrix type="matrix" values="0 0 0 0 0 0 0 0 0 0 0 0 0 0 0 0 0 0 0.2 0"/>
<feBlend mode="normal" in2="shape" result="effect1_innerShadow_26_414"/>
</filter>
<clipPath id="clip0_26_414">
<rect width="30.2623" height="29.2536" fill="white" transform="translate(22 16)"/>
</clipPath>
</defs>
</svg>
