<svg width="1773" height="466" viewBox="0 0 1773 466" fill="none" xmlns="http://www.w3.org/2000/svg">
<mask id="path-1-outside-1_2007_18" maskUnits="userSpaceOnUse" x="-4" y="47.9937" width="1771" height="347" fill="black">
<rect fill="white" x="-4" y="47.9937" width="1771" height="347"/>
<path d="M201.496 82.2375V249.334C201.496 301.279 195.342 333.467 183.033 345.899C167.892 361.039 146.844 368.61 119.887 368.61C93.6684 368.61 70.6503 362.147 50.8326 349.223C31.261 336.421 18.3364 319.558 12.0588 298.632C18.8288 300.109 27.7529 300.848 38.8312 300.848C54.9561 300.848 65.4189 298.263 70.2195 293.093C74.5277 288.539 76.6818 278.876 76.6818 264.105V82.2375H201.496Z"/>
<path d="M298.062 61.5581L549.907 126.735L551.014 127.843L484.73 381.719C322.741 340.237 238.424 318.142 231.777 315.434C271.905 157.508 294 72.8825 298.062 61.5581ZM373.394 190.989L361.208 241.21H362.315L409.398 253.211C417.522 224.777 421.584 208.406 421.584 204.098L373.394 190.989Z"/>
<path d="M579.079 82.2375H703.894V363.994H579.079V82.2375ZM759.285 82.2375H848.465L913.642 176.402H914.38V82.2375H1039.19V366.209H944.661L884.838 278.507H884.1V363.994H759.285V82.2375ZM1463.68 210.006C1463.68 262.197 1450.69 301.279 1424.72 327.251C1410.68 341.283 1394.31 351.869 1375.6 359.008C1358.74 365.409 1341.32 368.61 1323.35 368.61C1304.89 368.61 1286.85 365.163 1269.25 358.27C1250.54 350.884 1234.42 340.422 1220.88 326.882C1206.85 312.849 1196.87 295.432 1190.97 274.629C1185.92 256.412 1183.4 233.024 1183.4 204.467V82.2375H1308.21V212.776C1308.21 234.194 1313.13 244.903 1322.98 244.903C1329.26 244.903 1333.44 242.01 1335.54 236.225C1337.75 230.193 1338.86 218.438 1338.86 200.959V82.2375H1463.68V210.006ZM1720.14 185.45C1700.2 158 1676.87 144.276 1650.16 144.276C1635.51 144.276 1628.19 149.815 1628.19 160.893C1628.19 165.447 1632.37 170.063 1640.74 174.741C1644.19 176.71 1648.62 178.864 1654.04 181.203L1688.19 195.051C1694.96 197.882 1700.93 200.528 1706.1 202.99C1719.27 209.514 1729.37 216.284 1736.38 223.3C1749.56 236.471 1756.14 254.011 1756.14 275.922C1756.14 337.714 1710.97 368.61 1620.62 368.61C1596.24 368.61 1573.9 367.009 1553.59 363.809C1531.68 360.362 1511.07 354.885 1491.74 347.376L1522.39 253.211C1541.22 283.246 1564.8 298.263 1593.11 298.263C1607.02 298.263 1613.97 292.97 1613.97 282.384C1613.97 275.245 1608.18 268.782 1596.61 262.997C1594.28 261.766 1591.51 260.474 1588.31 259.12L1558.58 246.749C1550.82 243.179 1544.12 239.548 1538.45 235.856C1531.44 231.178 1525.53 226.131 1520.73 220.715C1509.16 207.791 1503.37 191.666 1503.37 172.34C1503.37 109.318 1548.42 77.8062 1638.53 77.8062C1680.38 77.8062 1717.92 84.0838 1751.16 96.6392L1720.14 185.45Z"/>
</mask>
<path d="M201.496 82.2375V249.334C201.496 301.279 195.342 333.467 183.033 345.899C167.892 361.039 146.844 368.61 119.887 368.61C93.6684 368.61 70.6503 362.147 50.8326 349.223C31.261 336.421 18.3364 319.558 12.0588 298.632C18.8288 300.109 27.7529 300.848 38.8312 300.848C54.9561 300.848 65.4189 298.263 70.2195 293.093C74.5277 288.539 76.6818 278.876 76.6818 264.105V82.2375H201.496Z" fill="#FFE300"/>
<path d="M298.062 61.5581L549.907 126.735L551.014 127.843L484.73 381.719C322.741 340.237 238.424 318.142 231.777 315.434C271.905 157.508 294 72.8825 298.062 61.5581ZM373.394 190.989L361.208 241.21H362.315L409.398 253.211C417.522 224.777 421.584 208.406 421.584 204.098L373.394 190.989Z" fill="#0372FF"/>
<path d="M579.079 82.2375H703.894V363.994H579.079V82.2375ZM759.285 82.2375H848.465L913.642 176.402H914.38V82.2375H1039.19V366.209H944.661L884.838 278.507H884.1V363.994H759.285V82.2375ZM1463.68 210.006C1463.68 262.197 1450.69 301.279 1424.72 327.251C1410.68 341.283 1394.31 351.869 1375.6 359.008C1358.74 365.409 1341.32 368.61 1323.35 368.61C1304.89 368.61 1286.85 365.163 1269.25 358.27C1250.54 350.884 1234.42 340.422 1220.88 326.882C1206.85 312.849 1196.87 295.432 1190.97 274.629C1185.92 256.412 1183.4 233.024 1183.4 204.467V82.2375H1308.21V212.776C1308.21 234.194 1313.13 244.903 1322.98 244.903C1329.26 244.903 1333.44 242.01 1335.54 236.225C1337.75 230.193 1338.86 218.438 1338.86 200.959V82.2375H1463.68V210.006ZM1720.14 185.45C1700.2 158 1676.87 144.276 1650.16 144.276C1635.51 144.276 1628.19 149.815 1628.19 160.893C1628.19 165.447 1632.37 170.063 1640.74 174.741C1644.19 176.71 1648.62 178.864 1654.04 181.203L1688.19 195.051C1694.96 197.882 1700.93 200.528 1706.1 202.99C1719.27 209.514 1729.37 216.284 1736.38 223.3C1749.56 236.471 1756.14 254.011 1756.14 275.922C1756.14 337.714 1710.97 368.61 1620.62 368.61C1596.24 368.61 1573.9 367.009 1553.59 363.809C1531.68 360.362 1511.07 354.885 1491.74 347.376L1522.39 253.211C1541.22 283.246 1564.8 298.263 1593.11 298.263C1607.02 298.263 1613.97 292.97 1613.97 282.384C1613.97 275.245 1608.18 268.782 1596.61 262.997C1594.28 261.766 1591.51 260.474 1588.31 259.12L1558.58 246.749C1550.82 243.179 1544.12 239.548 1538.45 235.856C1531.44 231.178 1525.53 226.131 1520.73 220.715C1509.16 207.791 1503.37 191.666 1503.37 172.34C1503.37 109.318 1548.42 77.8062 1638.53 77.8062C1680.38 77.8062 1717.92 84.0838 1751.16 96.6392L1720.14 185.45Z" fill="#02FE13"/>
<path d="M201.496 82.2375H212.082V71.6517H201.496V82.2375ZM183.033 345.899L190.518 353.384L190.537 353.366L190.555 353.347L183.033 345.899ZM50.8326 349.223L45.038 358.082L45.044 358.086L45.0499 358.089L50.8326 349.223ZM12.0588 298.632L14.3153 288.29L-3.24522 284.458L1.91947 301.674L12.0588 298.632ZM70.2195 293.093L62.5292 285.818L62.4956 285.854L62.4623 285.89L70.2195 293.093ZM76.6818 82.2375V71.6517H66.096V82.2375H76.6818ZM190.911 82.2375V249.334H212.082V82.2375H190.911ZM190.911 249.334C190.911 274.978 189.384 295.272 186.483 310.446C183.506 326.014 179.374 334.549 175.51 338.451L190.555 353.347C199.001 344.817 204.1 331.042 207.278 314.422C210.531 297.408 212.082 275.635 212.082 249.334H190.911ZM175.547 338.414C162.876 351.086 144.803 358.024 119.887 358.024V379.195C148.885 379.195 172.909 370.993 190.518 353.384L175.547 338.414ZM119.887 358.024C95.4916 358.024 74.5297 352.039 56.6152 340.356L45.0499 358.089C66.7709 372.255 91.8452 379.195 119.887 379.195V358.024ZM56.6271 340.364C38.9854 328.825 27.7058 313.949 22.1981 295.59L1.91947 301.674C8.96704 325.166 23.5366 344.018 45.038 358.082L56.6271 340.364ZM9.80224 308.975C17.6183 310.68 27.3874 311.434 38.8312 311.434V290.262C28.1185 290.262 20.0393 289.539 14.3153 288.29L9.80224 308.975ZM38.8312 311.434C47.3713 311.434 54.9482 310.758 61.3109 309.186C67.5618 307.642 73.615 304.993 77.9766 300.296L62.4623 285.89C62.0233 286.363 60.4449 287.592 56.233 288.632C52.133 289.645 46.416 290.262 38.8312 290.262V311.434ZM77.9097 300.368C81.9292 296.118 84.1245 290.448 85.3983 284.734C86.7045 278.875 87.2675 271.926 87.2675 264.105H66.096C66.096 271.055 65.582 276.323 64.7341 280.127C63.8538 284.076 62.8179 285.513 62.5292 285.818L77.9097 300.368ZM87.2675 264.105V82.2375H66.096V264.105H87.2675ZM76.6818 92.8232H201.496V71.6517H76.6818V92.8232ZM298.062 61.5581L300.714 51.31L291.36 48.8892L288.097 57.984L298.062 61.5581ZM549.907 126.735L557.392 119.25L555.352 117.21L552.559 116.487L549.907 126.735ZM551.014 127.843L561.257 130.517L562.789 124.647L558.5 120.358L551.014 127.843ZM484.73 381.719L482.104 391.974L492.31 394.587L494.972 384.393L484.73 381.719ZM231.777 315.434L221.517 312.827L219.247 321.76L227.783 325.237L231.777 315.434ZM373.394 190.989L376.172 180.774L365.672 177.918L363.106 188.493L373.394 190.989ZM361.207 241.21L350.92 238.714L347.746 251.796H361.207V241.21ZM362.315 241.21L364.93 230.952L363.643 230.624H362.315V241.21ZM409.398 253.211L406.783 263.469L416.75 266.01L419.576 256.12L409.398 253.211ZM421.584 204.098H432.17V196.007L424.362 193.883L421.584 204.098ZM295.409 71.8062L547.254 136.983L552.559 116.487L300.714 51.31L295.409 71.8062ZM542.421 134.22L543.529 135.328L558.5 120.358L557.392 119.25L542.421 134.22ZM540.772 125.169L474.487 379.045L494.972 384.393L561.257 130.517L540.772 125.169ZM487.356 371.464C406.367 350.724 344.813 334.836 302.684 323.796C281.615 318.275 265.43 313.974 254.11 310.887C248.446 309.343 244.036 308.112 240.857 307.191C239.265 306.73 238.021 306.357 237.102 306.069C236.083 305.749 235.739 305.618 235.771 305.631L227.783 325.237C230.207 326.225 237.588 328.327 248.541 331.313C259.962 334.427 276.227 338.75 297.317 344.276C339.505 355.331 401.104 371.231 482.104 391.974L487.356 371.464ZM242.037 318.041C262.099 239.085 277.648 178.473 288.686 136.195C299.82 93.5498 306.201 70.22 308.026 65.1322L288.097 57.984C285.86 64.2206 279.162 88.8657 268.202 130.846C257.145 173.193 241.583 233.857 221.517 312.827L242.037 318.041ZM363.106 188.493L350.92 238.714L371.495 243.706L383.681 193.485L363.106 188.493ZM361.207 251.796H362.315V230.624H361.207V251.796ZM359.701 251.468L406.783 263.469L412.013 242.954L364.93 230.952L359.701 251.468ZM419.576 256.12C423.651 241.857 426.737 230.519 428.812 222.157C429.847 217.982 430.655 214.456 431.209 211.631C431.714 209.061 432.17 206.317 432.17 204.098H410.998C410.998 204.033 410.946 204.951 410.435 207.551C409.974 209.895 409.258 213.047 408.263 217.058C406.276 225.067 403.268 236.131 399.219 250.303L419.576 256.12ZM424.362 193.883L376.172 180.774L370.615 201.203L418.805 214.312L424.362 193.883ZM579.079 82.2375V71.6517H568.493V82.2375H579.079ZM703.894 82.2375H714.48V71.6517H703.894V82.2375ZM703.894 363.994V374.579H714.48V363.994H703.894ZM579.079 363.994H568.493V374.579H579.079V363.994ZM579.079 92.8232H703.894V71.6517H579.079V92.8232ZM693.308 82.2375V363.994H714.48V82.2375H693.308ZM703.894 353.408H579.079V374.579H703.894V353.408ZM589.665 363.994V82.2375H568.493V363.994H589.665ZM759.285 82.2375V71.6517H748.699V82.2375H759.285ZM848.465 82.2375L857.169 76.2128L854.012 71.6517H848.465V82.2375ZM913.642 176.402L904.938 182.427L908.095 186.988H913.642V176.402ZM914.38 176.402V186.988H924.966V176.402H914.38ZM914.38 82.2375V71.6517H903.794V82.2375H914.38ZM1039.19 82.2375H1049.78V71.6517H1039.19V82.2375ZM1039.19 366.209V376.795H1049.78V366.209H1039.19ZM944.661 366.209L935.916 372.174L939.067 376.795H944.661V366.209ZM884.838 278.507L893.583 272.542L890.432 267.921H884.838V278.507ZM884.1 278.507V267.921H873.514V278.507H884.1ZM884.1 363.994V374.579H894.685V363.994H884.1ZM759.285 363.994H748.699V374.579H759.285V363.994ZM759.285 92.8232H848.465V71.6517H759.285V92.8232ZM839.761 88.2621L904.938 182.427L922.346 170.378L857.169 76.2128L839.761 88.2621ZM913.642 186.988H914.38V165.817H913.642V186.988ZM924.966 176.402V82.2375H903.794V176.402H924.966ZM914.38 92.8232H1039.19V71.6517H914.38V92.8232ZM1028.61 82.2375V366.209H1049.78V82.2375H1028.61ZM1039.19 355.624H944.661V376.795H1039.19V355.624ZM953.406 360.244L893.583 272.542L876.093 284.472L935.916 372.174L953.406 360.244ZM884.838 267.921H884.1V289.092H884.838V267.921ZM873.514 278.507V363.994H894.685V278.507H873.514ZM884.1 353.408H759.285V374.579H884.1V353.408ZM769.871 363.994V82.2375H748.699V363.994H769.871ZM1424.72 327.251L1417.23 319.766L1424.72 327.251ZM1375.6 359.008L1379.36 368.905L1379.37 368.902L1379.38 368.899L1375.6 359.008ZM1269.25 358.27L1265.37 368.116L1265.38 368.122L1265.39 368.127L1269.25 358.27ZM1190.97 274.629L1180.77 277.455L1180.77 277.488L1180.78 277.522L1190.97 274.629ZM1183.4 82.2375V71.6517H1172.81V82.2375H1183.4ZM1308.21 82.2375H1318.8V71.6517H1308.21V82.2375ZM1335.54 236.225L1325.6 232.575L1325.59 232.599L1325.58 232.624L1335.54 236.225ZM1338.86 82.2375V71.6517H1328.28V82.2375H1338.86ZM1463.68 82.2375H1474.26V71.6517H1463.68V82.2375ZM1453.09 210.006C1453.09 260.582 1440.51 296.487 1417.23 319.766L1432.2 334.736C1460.87 306.07 1474.26 263.812 1474.26 210.006H1453.09ZM1417.23 319.766C1404.26 332.734 1389.16 342.505 1371.83 349.118L1379.38 368.899C1399.47 361.233 1417.11 349.832 1432.2 334.736L1417.23 319.766ZM1371.85 349.112C1356.18 355.059 1340.03 358.024 1323.35 358.024V379.195C1342.61 379.195 1361.3 375.76 1379.36 368.905L1371.85 349.112ZM1323.35 358.024C1306.24 358.024 1289.51 354.836 1273.11 348.413L1265.39 368.127C1284.19 375.49 1303.54 379.195 1323.35 379.195V358.024ZM1273.14 348.424C1255.71 341.543 1240.83 331.86 1228.36 319.396L1213.39 334.367C1228.01 348.984 1245.38 360.226 1265.37 368.116L1273.14 348.424ZM1228.36 319.396C1215.72 306.753 1206.61 290.964 1201.15 271.737L1180.78 277.522C1187.14 299.9 1197.97 318.946 1213.39 334.367L1228.36 319.396ZM1201.17 271.803C1196.47 254.847 1193.98 232.503 1193.98 204.467H1172.81C1172.81 233.546 1175.37 257.977 1180.77 277.455L1201.17 271.803ZM1193.98 204.467V82.2375H1172.81V204.467H1193.98ZM1183.4 92.8232H1308.21V71.6517H1183.4V92.8232ZM1297.63 82.2375V212.776H1318.8V82.2375H1297.63ZM1297.63 212.776C1297.63 223.963 1298.86 233.84 1302.29 241.293C1304.06 245.152 1306.62 248.792 1310.31 251.465C1314.11 254.22 1318.48 255.488 1322.98 255.488V234.317C1322.72 234.317 1322.63 234.283 1322.66 234.292C1322.7 234.303 1322.73 234.325 1322.73 234.324C1322.73 234.321 1322.21 233.945 1321.52 232.449C1320.02 229.193 1318.8 223.006 1318.8 212.776H1297.63ZM1322.98 255.488C1327.76 255.488 1332.61 254.37 1336.85 251.441C1341.1 248.5 1343.86 244.347 1345.49 239.825L1325.58 232.624C1325.35 233.277 1325.13 233.64 1325 233.817C1324.88 233.98 1324.82 234.021 1324.81 234.025C1324.8 234.031 1324.72 234.09 1324.48 234.157C1324.22 234.229 1323.74 234.317 1322.98 234.317V255.488ZM1345.47 239.875C1348.43 231.826 1349.45 218.237 1349.45 200.959H1328.28C1328.28 218.639 1327.08 228.561 1325.6 232.575L1345.47 239.875ZM1349.45 200.959V82.2375H1328.28V200.959H1349.45ZM1338.86 92.8232H1463.68V71.6517H1338.86V92.8232ZM1453.09 82.2375V210.006H1474.26V82.2375H1453.09ZM1720.14 185.45L1711.57 191.671L1723.46 208.036L1730.13 188.94L1720.14 185.45ZM1640.74 174.741L1645.99 165.55L1645.95 165.525L1645.91 165.5L1640.74 174.741ZM1654.04 181.203L1649.84 190.921L1649.95 190.968L1650.06 191.013L1654.04 181.203ZM1688.19 195.051L1692.28 185.285L1692.22 185.262L1692.17 185.24L1688.19 195.051ZM1706.1 202.99L1710.8 193.504L1710.73 193.468L1710.66 193.433L1706.1 202.99ZM1736.38 223.3L1743.87 215.815L1736.38 223.3ZM1553.59 363.809L1555.24 353.352L1555.24 353.352L1553.59 363.809ZM1491.74 347.376L1481.67 344.1L1478.58 353.618L1487.91 357.243L1491.74 347.376ZM1522.39 253.211L1531.36 247.588L1519.33 228.407L1512.32 249.935L1522.39 253.211ZM1596.61 262.997L1591.68 272.365L1591.78 272.416L1591.88 272.465L1596.61 262.997ZM1588.31 259.12L1592.43 249.371L1592.4 249.359L1592.37 249.347L1588.31 259.12ZM1558.58 246.749L1554.15 256.365L1554.33 256.447L1554.51 256.522L1558.58 246.749ZM1538.45 235.856L1532.58 244.663L1532.63 244.693L1532.67 244.722L1538.45 235.856ZM1520.73 220.715L1528.65 213.694L1528.63 213.674L1528.62 213.655L1520.73 220.715ZM1751.16 96.6392L1761.15 100.13L1764.55 90.3845L1754.9 86.7365L1751.16 96.6392ZM1728.7 179.228C1707.37 149.859 1681.16 133.69 1650.16 133.69V154.861C1672.58 154.861 1693.03 166.142 1711.57 191.671L1728.7 179.228ZM1650.16 133.69C1641.8 133.69 1633.6 135.217 1627.29 139.987C1620.43 145.179 1617.6 152.804 1617.6 160.893H1638.77C1638.77 157.904 1639.61 157.22 1640.07 156.873C1641.08 156.104 1643.87 154.861 1650.16 154.861V133.69ZM1617.6 160.893C1617.6 166.634 1620.28 171.349 1623.48 174.881C1626.65 178.369 1630.87 181.351 1635.58 183.981L1645.91 165.5C1642.24 163.453 1640.19 161.788 1639.17 160.66C1638.19 159.577 1638.77 159.706 1638.77 160.893H1617.6ZM1635.49 183.932C1639.4 186.165 1644.22 188.494 1649.84 190.921L1658.23 171.485C1653.02 169.235 1648.98 167.255 1645.99 165.55L1635.49 183.932ZM1650.06 191.013L1684.22 204.861L1692.17 185.24L1658.01 171.393L1650.06 191.013ZM1684.11 204.817C1690.76 207.599 1696.57 210.176 1701.55 212.548L1710.66 193.433C1705.3 190.881 1699.16 188.164 1692.28 185.285L1684.11 204.817ZM1701.41 212.476C1713.99 218.711 1722.99 224.874 1728.9 230.785L1743.87 215.815C1735.75 207.694 1724.56 200.317 1710.8 193.504L1701.41 212.476ZM1728.9 230.785C1739.74 241.623 1745.55 256.286 1745.55 275.922H1766.73C1766.73 251.737 1759.37 231.319 1743.87 215.815L1728.9 230.785ZM1745.55 275.922C1745.55 303.848 1735.58 323.504 1716.28 336.7C1696.27 350.39 1664.91 358.024 1620.62 358.024V379.195C1666.67 379.195 1703.08 371.381 1728.24 354.175C1754.12 336.475 1766.73 309.787 1766.73 275.922H1745.55ZM1620.62 358.024C1596.7 358.024 1574.92 356.453 1555.24 353.352L1551.95 374.266C1572.89 377.566 1595.79 379.195 1620.62 379.195V358.024ZM1555.24 353.352C1534.03 350.015 1514.15 344.725 1495.57 337.509L1487.91 357.243C1507.99 365.045 1529.34 370.71 1551.95 374.266L1555.24 353.352ZM1501.81 350.653L1532.46 256.488L1512.32 249.935L1481.67 344.1L1501.81 350.653ZM1513.42 258.835C1533.63 291.065 1560.21 308.849 1593.11 308.849V287.677C1569.38 287.677 1548.82 275.427 1531.36 247.588L1513.42 258.835ZM1593.11 308.849C1601.1 308.849 1609.04 307.379 1615.17 302.717C1621.84 297.639 1624.56 290.202 1624.56 282.384H1603.38C1603.38 285.152 1602.63 285.655 1602.34 285.869C1601.51 286.5 1599.02 287.677 1593.11 287.677V308.849ZM1624.56 282.384C1624.56 268.738 1613.52 259.617 1601.35 253.529L1591.88 272.465C1602.85 277.948 1603.38 281.752 1603.38 282.384H1624.56ZM1601.54 253.63C1598.88 252.225 1595.82 250.807 1592.43 249.371L1584.18 268.869C1587.19 270.141 1589.68 271.307 1591.68 272.365L1601.54 253.63ZM1592.37 249.347L1562.65 236.976L1554.51 256.522L1584.24 268.893L1592.37 249.347ZM1563.01 237.133C1555.6 233.726 1549.37 230.337 1544.24 226.989L1532.67 244.722C1538.86 248.76 1546.04 252.632 1554.15 256.365L1563.01 237.133ZM1544.33 227.048C1537.95 222.794 1532.76 218.327 1528.65 213.694L1512.81 227.737C1518.3 233.935 1524.93 239.562 1532.58 244.663L1544.33 227.048ZM1528.62 213.655C1518.98 202.897 1513.96 189.38 1513.96 172.34H1492.79C1492.79 193.951 1499.33 212.684 1512.84 227.776L1528.62 213.655ZM1513.96 172.34C1513.96 143.701 1523.98 123.576 1543.23 110.114C1563.16 96.1696 1594.38 88.3919 1638.53 88.3919V67.2204C1592.57 67.2204 1556.21 75.1985 1531.09 92.7653C1505.29 110.814 1492.79 137.957 1492.79 172.34H1513.96ZM1638.53 88.3919C1679.32 88.3919 1715.57 94.5107 1747.41 106.542L1754.9 86.7365C1720.27 73.6569 1681.43 67.2204 1638.53 67.2204V88.3919ZM1741.16 93.1486L1710.14 181.959L1730.13 188.94L1761.15 100.13L1741.16 93.1486Z" fill="black" mask="url(#path-1-outside-1_2007_18)"/>
</svg>
