<svg width="79" height="59" viewBox="0 0 79 59" fill="none" xmlns="http://www.w3.org/2000/svg">
<g filter="url(#filter0_i_33_2778)">
<path d="M3 3H76V56H3V3Z" fill="#0372FF"/>
</g>
<path d="M3 1.5H1.5V3V56V57.5H3H76H77.5V56V3V1.5H76H3Z" stroke="black" stroke-width="3"/>
<g filter="url(#filter1_i_33_2778)">
<path d="M3 3H76V56H3V3Z" fill="#0372FF"/>
</g>
<path d="M4 4H75V55H4V4Z" stroke="#0372FF" stroke-width="2"/>
<path fill-rule="evenodd" clip-rule="evenodd" d="M42.0554 25.5532C42.9655 25.1015 44.1233 24.4362 45.2827 23.5247C45.5271 24.0303 45.5541 24.4713 45.4279 24.8274C45.3386 25.0784 45.1703 25.2967 44.9494 25.4704C44.71 25.658 44.4109 25.7949 44.0803 25.8687C43.4531 26.0094 42.7206 25.9274 42.0554 25.5532ZM42.2132 30.183L43.4178 30.8759C40.9581 32.2488 40.2894 34.798 39.4949 37.2808C38.7007 34.798 38.0319 32.2486 35.5723 30.8759L36.7769 30.183C37.0159 30.093 37.1697 29.8602 37.1576 29.6059C37.0471 27.2806 37.6776 26.2521 38.5283 25.6067C38.8332 25.3755 39.1663 25.2594 39.4949 25.2594C39.8235 25.2594 40.1566 25.3755 40.4615 25.6067C41.3119 26.2524 41.9424 27.2806 41.8322 29.6059C41.8201 29.8602 41.9744 30.093 42.2132 30.183ZM39.4952 15C40.8877 15.0373 42.2837 15.3064 43.4952 15.8301C44.3343 16.1932 45.1169 16.6727 45.8259 17.2463C46.146 17.5053 46.4096 17.7554 46.7 18.0435C47.4832 18.0703 48.6277 17.2041 49.1591 16.3935C48.2445 19.3788 44.0717 22.9039 41.1829 24.253C41.1818 24.2525 41.181 24.2519 41.1802 24.2514C40.6618 23.8571 40.0786 23.6599 39.4954 23.6599C38.9123 23.6599 38.3291 23.8571 37.8107 24.2514C37.8099 24.2519 37.8091 24.2527 37.808 24.253C34.9186 22.9039 30.7461 19.3785 29.8315 16.3935C30.3629 17.2041 31.5072 18.0706 32.2904 18.0435C32.5807 17.7557 32.8443 17.5053 33.1644 17.2463C33.8732 16.6727 34.6561 16.1932 35.4951 15.8301C36.7069 15.3064 38.1027 15.0373 39.4952 15ZM36.935 25.5532C36.0251 25.1015 34.8671 24.4362 33.7076 23.5247C33.4633 24.0303 33.4363 24.4713 33.5622 24.8274C33.6514 25.0784 33.8197 25.2967 34.0407 25.4704C34.2803 25.658 34.5794 25.7949 34.9101 25.8687C35.5373 26.0094 36.27 25.9274 36.935 25.5532Z" fill="white"/>
<path fill-rule="evenodd" clip-rule="evenodd" d="M46.5525 22.4034C47.1908 21.762 47.7533 21.0521 48.2054 20.4185L48.4351 20.8488C49.1745 22.3219 49.5587 23.7892 49.5587 25.4402L49.5571 28.0605L49.5708 29.4185C49.6243 32.7531 50.349 36.1265 51.9903 39.2139L48.5563 36.4565L46.1267 40.3827L43.5742 37.9899L39.4951 44.5815L35.416 37.9902L32.8636 40.383L30.434 36.4568L27 39.2142C28.6412 36.1268 29.3657 32.7531 29.4194 29.4188L29.4332 28.0607L29.4315 25.4405C29.4315 23.7892 29.8155 22.3222 30.5552 20.8491L30.7846 20.4187C31.2369 21.0521 31.7992 21.762 32.4374 22.4037L32.238 22.816C31.8507 23.6166 31.7226 24.512 32.0242 25.3637C32.2187 25.9121 32.5735 26.3825 33.0311 26.7416C33.4754 27.0902 34.0012 27.3253 34.5516 27.4487C34.9103 27.5291 35.2755 27.5623 35.6386 27.5511C35.554 28.0292 35.5168 28.5248 35.5147 29.0302L32.2754 30.8932L34.775 32.2883C34.9747 32.4 35.1651 32.5275 35.3436 32.6705C37.4043 34.513 38.6434 39.9638 39.4948 42.6263C40.3463 39.9638 41.5854 34.513 43.6461 32.6705C43.8246 32.5278 44.015 32.4 44.2147 32.2883L46.7143 30.8932L43.4751 29.0302C43.4726 28.5248 43.4356 28.0292 43.3511 27.5511C43.7142 27.5623 44.0794 27.5291 44.4381 27.4487C44.9885 27.3253 45.5144 27.0902 45.9587 26.7416C46.4162 26.3825 46.771 25.9121 46.9655 25.3637C47.2671 24.5123 47.139 23.6169 46.7517 22.816L46.5525 22.4034Z" fill="white"/>
<defs>
<filter id="filter0_i_33_2778" x="0" y="0" width="79" height="59" filterUnits="userSpaceOnUse" color-interpolation-filters="sRGB">
<feFlood flood-opacity="0" result="BackgroundImageFix"/>
<feBlend mode="normal" in="SourceGraphic" in2="BackgroundImageFix" result="shape"/>
<feColorMatrix in="SourceAlpha" type="matrix" values="0 0 0 0 0 0 0 0 0 0 0 0 0 0 0 0 0 0 127 0" result="hardAlpha"/>
<feOffset dy="-32"/>
<feComposite in2="hardAlpha" operator="arithmetic" k2="-1" k3="1"/>
<feColorMatrix type="matrix" values="0 0 0 0 1 0 0 0 0 0.835294 0 0 0 0 0.192157 0 0 0 1 0"/>
<feBlend mode="normal" in2="shape" result="effect1_innerShadow_33_2778"/>
</filter>
<filter id="filter1_i_33_2778" x="3" y="3" width="73" height="53" filterUnits="userSpaceOnUse" color-interpolation-filters="sRGB">
<feFlood flood-opacity="0" result="BackgroundImageFix"/>
<feBlend mode="normal" in="SourceGraphic" in2="BackgroundImageFix" result="shape"/>
<feColorMatrix in="SourceAlpha" type="matrix" values="0 0 0 0 0 0 0 0 0 0 0 0 0 0 0 0 0 0 127 0" result="hardAlpha"/>
<feOffset dy="-32"/>
<feComposite in2="hardAlpha" operator="arithmetic" k2="-1" k3="1"/>
<feColorMatrix type="matrix" values="0 0 0 0 0 0 0 0 0 0 0 0 0 0 0 0 0 0 0.2 0"/>
<feBlend mode="normal" in2="shape" result="effect1_innerShadow_33_2778"/>
</filter>
</defs>
</svg>
