<svg width="79" height="59" viewBox="0 0 79 59" fill="none" xmlns="http://www.w3.org/2000/svg">
<g filter="url(#filter0_i_33_2784)">
<path d="M3 3H76V56H3V3Z" fill="#0372FF"/>
</g>
<path d="M3 1.5H1.5V3V56V57.5H3H76H77.5V56V3V1.5H76H3Z" stroke="black" stroke-width="3"/>
<g filter="url(#filter1_i_33_2784)">
<path d="M3 3H76V56H3V3Z" fill="#0372FF"/>
</g>
<path d="M4 4H75V55H4V4Z" stroke="#0372FF" stroke-width="2"/>
<path fill-rule="evenodd" clip-rule="evenodd" d="M34.1352 19.3413C32.6115 20.1306 31.365 20.7987 31.3653 20.8259C31.366 20.8959 35.0221 22.7376 35.1518 22.733C35.2108 22.7311 35.639 22.535 36.1034 22.2975L36.9477 21.8656L37.8698 22.337L38.7919 22.8085L40.302 22.1337C42.5774 21.1168 42.8137 21.0053 42.7766 20.968C42.7275 20.9182 41.9115 20.4823 39.6972 19.3228C38.6272 18.7625 37.5885 18.2131 37.3891 18.1019C37.1896 17.9906 36.9993 17.9011 36.966 17.9029C36.9327 17.9046 35.6589 18.5519 34.1352 19.3413ZM27.4524 22.783L25.8664 23.5979V27.1741C25.8664 29.141 25.8871 30.7502 25.9128 30.7502C25.9384 30.7502 26.7186 30.4138 27.6468 30.0025L29.3346 29.2548V25.4854L30.1594 25.9322C30.7949 26.2763 31.4309 26.6196 32.0671 26.9623L33.1501 27.5455L33.632 27.3287C33.9342 27.1925 34.2359 27.0551 34.5369 26.9162C34.7695 26.8085 35.3405 26.5527 35.8058 26.3477C36.2711 26.1427 36.7018 25.9364 36.7628 25.8894C36.8439 25.827 35.8547 25.2833 33.104 23.8785C31.0307 22.8195 29.2677 21.9563 29.1864 21.9605C29.1051 21.9647 28.3248 22.3347 27.4524 22.783ZM43.0623 23.0118C41.9821 23.4968 41.0975 23.913 41.0965 23.9367C41.0955 23.9604 41.6842 24.3086 42.4049 24.7103C43.1254 25.1122 43.715 25.4624 43.715 25.4888C43.715 25.5152 43.0774 25.8224 42.2982 26.1718C41.5188 26.5211 39.5489 27.4059 37.9206 28.138L32.4643 30.5909C31.0918 31.208 29.8547 31.7641 29.7151 31.827C26.9117 33.0892 26.1411 33.4394 26.0353 33.4995C25.9289 33.5601 25.9049 33.9117 25.8859 35.6766L25.8633 37.7816L27.2817 38.5004L28.7 39.2191L30.6668 38.3363C31.7485 37.8509 32.6335 37.4283 32.6335 37.397C32.6335 37.3659 32.4336 37.2365 32.1895 37.1091C31.9452 36.9816 31.4408 36.6997 31.0685 36.4822C30.6964 36.2647 30.3253 36.0653 30.2438 36.0388C30.1623 36.0124 30.0969 35.9663 30.0982 35.9361C30.0996 35.9061 30.9656 35.497 32.0227 35.0269C34.0758 34.1139 35.647 33.4102 39.0203 31.8931C40.5285 31.2148 42.0372 30.5372 43.5458 29.8596C44.8718 29.2643 46.4135 28.5692 46.9718 28.3148L47.9869 27.8522L48.0094 25.7232L48.0321 23.5943L46.5934 22.86C45.8022 22.4561 45.1259 22.1267 45.0904 22.1279C45.055 22.129 44.1424 22.5267 43.0623 23.0118ZM47.6016 30.6922C47.3895 30.7952 46.9709 30.9881 46.6711 31.1207C46.3713 31.2533 45.8025 31.5086 45.4069 31.6881L44.6879 32.0143L44.6715 33.8832C44.6625 34.9112 44.6244 35.7477 44.5869 35.7423C44.5019 35.7297 43.1542 35.0423 41.7996 34.3203C40.8219 33.7993 40.7605 33.7786 40.5307 33.8918C40.3979 33.9573 39.604 34.3114 38.7666 34.6788C37.9291 35.0463 37.2166 35.3709 37.183 35.4002C37.1497 35.4296 38.8351 36.3381 40.9286 37.4194L44.7349 39.3853L46.3609 38.5486C47.2552 38.0886 48.0156 37.669 48.0506 37.6162C48.1294 37.4975 48.1226 30.4886 48.0437 30.4981C48.0125 30.5018 47.8135 30.5893 47.6016 30.6922ZM38.5973 38.9189C38.3153 39.0395 38.0333 39.1603 37.7514 39.2812C36.9002 39.6475 37.067 39.6597 36.0542 39.1583C35.3797 38.8244 35.0889 38.7213 34.9628 38.7713C34.8681 38.8088 34.0534 39.1734 33.1522 39.5815C32.251 39.9895 31.4824 40.3234 31.4442 40.3234C31.0661 40.3234 31.6948 40.6969 34.1203 41.9137L36.9649 43.3407L38.1618 42.7531C38.82 42.4299 40.1477 41.7825 41.1123 41.3148C42.0768 40.8468 42.8541 40.4518 42.8396 40.4369C42.8249 40.4221 42.0167 40.0093 41.0435 39.5197L39.274 38.6296L38.5973 38.9189Z" fill="white"/>
<defs>
<filter id="filter0_i_33_2784" x="0" y="0" width="79" height="59" filterUnits="userSpaceOnUse" color-interpolation-filters="sRGB">
<feFlood flood-opacity="0" result="BackgroundImageFix"/>
<feBlend mode="normal" in="SourceGraphic" in2="BackgroundImageFix" result="shape"/>
<feColorMatrix in="SourceAlpha" type="matrix" values="0 0 0 0 0 0 0 0 0 0 0 0 0 0 0 0 0 0 127 0" result="hardAlpha"/>
<feOffset dy="-32"/>
<feComposite in2="hardAlpha" operator="arithmetic" k2="-1" k3="1"/>
<feColorMatrix type="matrix" values="0 0 0 0 1 0 0 0 0 0.835294 0 0 0 0 0.192157 0 0 0 1 0"/>
<feBlend mode="normal" in2="shape" result="effect1_innerShadow_33_2784"/>
</filter>
<filter id="filter1_i_33_2784" x="3" y="3" width="73" height="53" filterUnits="userSpaceOnUse" color-interpolation-filters="sRGB">
<feFlood flood-opacity="0" result="BackgroundImageFix"/>
<feBlend mode="normal" in="SourceGraphic" in2="BackgroundImageFix" result="shape"/>
<feColorMatrix in="SourceAlpha" type="matrix" values="0 0 0 0 0 0 0 0 0 0 0 0 0 0 0 0 0 0 127 0" result="hardAlpha"/>
<feOffset dy="-32"/>
<feComposite in2="hardAlpha" operator="arithmetic" k2="-1" k3="1"/>
<feColorMatrix type="matrix" values="0 0 0 0 0 0 0 0 0 0 0 0 0 0 0 0 0 0 0.2 0"/>
<feBlend mode="normal" in2="shape" result="effect1_innerShadow_33_2784"/>
</filter>
</defs>
</svg>
