<svg width="191" height="62" viewBox="0 0 191 62" fill="none" xmlns="http://www.w3.org/2000/svg">
<mask id="path-1-outside-1_2002_13" maskUnits="userSpaceOnUse" x="1" y="4" width="191" height="51" fill="black">
<rect fill="white" x="1" y="4" width="191" height="51"/>
<path d="M3.92358 9.81627H16.6423L25.9377 23.246H26.0431V9.81627H43.844V50.316H30.3616L21.8298 37.808H21.7245V50H3.92358V9.81627Z"/>
<path d="M58.3796 6.867L94.2975 16.1625L94.4555 16.3204L85.002 52.5279C61.8994 46.6119 49.8742 43.4607 48.9262 43.0745C54.6492 20.5512 57.8003 8.48208 58.3796 6.867ZM69.1234 25.3262L67.3854 32.4887H67.5434L74.2583 34.2004C75.4169 30.1451 75.9962 27.8103 75.9962 27.1959L69.1234 25.3262Z"/>
<path d="M99.9327 9.47394H139.642L139.958 9.78993V49.4997L139.642 49.8157H99.9327L99.6167 49.4997V9.78993L99.9327 9.47394ZM115.969 25.8266V33.621H123.764V25.8266H115.969ZM172.558 9.81627C175.648 9.81627 178.29 10.1849 180.484 10.9222C182.433 11.5718 184.013 12.4934 185.224 13.6872C186.278 14.7229 187.05 15.9342 187.542 17.3211C187.945 18.4797 188.147 19.7174 188.147 21.034C188.147 22.8246 187.787 24.387 187.068 25.7212C186.207 27.2661 184.829 28.5827 182.933 29.6711C185.303 30.9351 186.989 32.3746 187.989 33.9897C188.814 35.359 189.227 36.9916 189.227 38.8876C189.227 42.1704 188.112 44.7949 185.883 46.7611C183.443 48.9204 179.975 50 175.481 50H147.437V9.81627H172.558ZM165.238 25.7212H165.659C169.223 25.7212 171.005 24.4134 171.005 21.7977C171.005 19.1995 169.442 17.9004 166.317 17.9004H165.238V25.7212ZM165.238 41.1522H165.764C169.539 41.1522 171.426 39.7653 171.426 36.9916C171.426 33.9722 169.776 32.4624 166.475 32.4624H165.238V41.1522Z"/>
</mask>
<path d="M3.92358 9.81627H16.6423L25.9377 23.246H26.0431V9.81627H43.844V50.316H30.3616L21.8298 37.808H21.7245V50H3.92358V9.81627Z" fill="#66FE00"/>
<path d="M58.3796 6.867L94.2975 16.1625L94.4555 16.3204L85.002 52.5279C61.8994 46.6119 49.8742 43.4607 48.9262 43.0745C54.6492 20.5512 57.8003 8.48208 58.3796 6.867ZM69.1234 25.3262L67.3854 32.4887H67.5434L74.2583 34.2004C75.4169 30.1451 75.9962 27.8103 75.9962 27.1959L69.1234 25.3262Z" fill="#00FDFD"/>
<path d="M99.9327 9.47394H139.642L139.958 9.78993V49.4997L139.642 49.8157H99.9327L99.6167 49.4997V9.78993L99.9327 9.47394ZM115.969 25.8266V33.621H123.764V25.8266H115.969ZM172.558 9.81627C175.648 9.81627 178.29 10.1849 180.484 10.9222C182.433 11.5718 184.013 12.4934 185.224 13.6872C186.278 14.7229 187.05 15.9342 187.542 17.3211C187.945 18.4797 188.147 19.7174 188.147 21.034C188.147 22.8246 187.787 24.387 187.068 25.7212C186.207 27.2661 184.829 28.5827 182.933 29.6711C185.303 30.9351 186.989 32.3746 187.989 33.9897C188.814 35.359 189.227 36.9916 189.227 38.8876C189.227 42.1704 188.112 44.7949 185.883 46.7611C183.443 48.9204 179.975 50 175.481 50H147.437V9.81627H172.558ZM165.238 25.7212H165.659C169.223 25.7212 171.005 24.4134 171.005 21.7977C171.005 19.1995 169.442 17.9004 166.317 17.9004H165.238V25.7212ZM165.238 41.1522H165.764C169.539 41.1522 171.426 39.7653 171.426 36.9916C171.426 33.9722 169.776 32.4624 166.475 32.4624H165.238V41.1522Z" fill="#FAD000"/>
<path d="M3.92358 9.81627V7.81627H1.92358V9.81627H3.92358ZM16.6423 9.81627L18.2868 8.67802L17.6903 7.81627H16.6423V9.81627ZM25.9377 23.246L24.2932 24.3842L24.8897 25.246H25.9377V23.246ZM26.0431 23.246V25.246H28.0431V23.246H26.0431ZM26.0431 9.81627V7.81627H24.0431V9.81627H26.0431ZM43.844 9.81627H45.844V7.81627H43.844V9.81627ZM43.844 50.316V52.316H45.844V50.316H43.844ZM30.3616 50.316L28.7094 51.443L29.3049 52.316H30.3616V50.316ZM21.8298 37.808L23.4821 36.681L22.8866 35.808H21.8298V37.808ZM21.7245 37.808V35.808H19.7245V37.808H21.7245ZM21.7245 50V52H23.7245V50H21.7245ZM3.92358 50H1.92358V52H3.92358V50ZM3.92358 11.8163H16.6423V7.81627H3.92358V11.8163ZM14.9978 10.9545L24.2932 24.3842L27.5822 22.1077L18.2868 8.67802L14.9978 10.9545ZM25.9377 25.246H26.0431V21.246H25.9377V25.246ZM28.0431 23.246V9.81627H24.0431V23.246H28.0431ZM26.0431 11.8163H43.844V7.81627H26.0431V11.8163ZM41.844 9.81627V50.316H45.844V9.81627H41.844ZM43.844 48.316H30.3616V52.316H43.844V48.316ZM32.0139 49.189L23.4821 36.681L20.1776 38.9349L28.7094 51.443L32.0139 49.189ZM21.8298 35.808H21.7245V39.808H21.8298V35.808ZM19.7245 37.808V50H23.7245V37.808H19.7245ZM21.7245 48H3.92358V52H21.7245V48ZM5.92358 50V9.81627H1.92358V50H5.92358ZM58.3796 6.867L58.8807 4.93079L57.1134 4.47342L56.4971 6.19174L58.3796 6.867ZM94.2975 16.1625L95.7117 14.7482L95.3263 14.3628L94.7986 14.2262L94.2975 16.1625ZM94.4555 16.3204L96.3906 16.8257L96.6801 15.7167L95.8697 14.9062L94.4555 16.3204ZM85.002 52.5279L84.5059 54.4654L86.4343 54.9592L86.9372 53.0332L85.002 52.5279ZM48.9262 43.0745L46.9878 42.582L46.559 44.2697L48.1716 44.9267L48.9262 43.0745ZM69.1234 25.3262L69.6484 23.3964L67.6646 22.8567L67.1798 24.8546L69.1234 25.3262ZM67.3854 32.4887L65.4418 32.0171L64.8421 34.4887H67.3854V32.4887ZM67.5434 32.4887L68.0374 30.5507L67.7943 30.4887H67.5434V32.4887ZM74.2583 34.2004L73.7643 36.1384L75.6474 36.6184L76.1813 34.7498L74.2583 34.2004ZM75.9962 27.1959H77.9962V25.6672L76.5212 25.266L75.9962 27.1959ZM57.8786 8.80321L93.7964 18.0987L94.7986 14.2262L58.8807 4.93079L57.8786 8.80321ZM92.8833 17.5767L93.0413 17.7347L95.8697 14.9062L95.7117 14.7482L92.8833 17.5767ZM92.5203 15.8152L83.0669 52.0227L86.9372 53.0332L96.3906 16.8257L92.5203 15.8152ZM85.4982 50.5905C73.9479 47.6327 65.1702 45.367 59.1631 43.7928C56.1588 43.0056 53.8523 42.3926 52.2403 41.953C51.4334 41.733 50.8074 41.5583 50.3577 41.428C50.1324 41.3627 49.9587 41.3106 49.8324 41.271C49.6873 41.2255 49.6555 41.212 49.6808 41.2223L48.1716 44.9267C48.5526 45.0819 49.6453 45.3915 51.188 45.8121C52.8193 46.2569 55.1408 46.8739 58.1492 47.6622C64.1673 49.2392 72.9536 51.5071 84.5059 54.4654L85.4982 50.5905ZM50.8646 43.567C53.7258 32.3067 55.943 23.6636 57.5169 17.6354C59.1089 11.5381 60.0115 8.24128 60.2622 7.54227L56.4971 6.19174C56.1685 7.1078 55.2058 10.6531 53.6467 16.6249C52.0694 22.6659 49.8496 31.319 46.9878 42.582L50.8646 43.567ZM67.1798 24.8546L65.4418 32.0171L69.329 32.9603L71.067 25.7978L67.1798 24.8546ZM67.3854 34.4887H67.5434V30.4887H67.3854V34.4887ZM67.0494 34.4268L73.7643 36.1384L74.7523 32.2623L68.0374 30.5507L67.0494 34.4268ZM76.1813 34.7498C76.7631 32.7137 77.2049 31.0903 77.5029 29.8894C77.6515 29.2903 77.7688 28.7788 77.8501 28.3648C77.922 27.9988 77.9962 27.5652 77.9962 27.1959H73.9962C73.9962 27.1337 73.9981 27.2224 73.9251 27.5938C73.8616 27.917 73.7616 28.3579 73.6206 28.9262C73.3392 30.0602 72.9121 31.6318 72.3352 33.6509L76.1813 34.7498ZM76.5212 25.266L69.6484 23.3964L68.5984 27.2561L75.4712 29.1257L76.5212 25.266ZM99.9327 9.47394V7.47394H99.1042L98.5185 8.05973L99.9327 9.47394ZM139.642 9.47394L141.057 8.05973L140.471 7.47394H139.642V9.47394ZM139.958 9.78993H141.958V8.96151L141.373 8.37572L139.958 9.78993ZM139.958 49.4997L141.373 50.9139L141.958 50.3281V49.4997H139.958ZM139.642 49.8157V51.8157H140.471L141.057 51.2299L139.642 49.8157ZM99.9327 49.8157L98.5185 51.2299L99.1042 51.8157H99.9327V49.8157ZM99.6167 49.4997H97.6167V50.3281L98.2025 50.9139L99.6167 49.4997ZM99.6167 9.78993L98.2025 8.37572L97.6167 8.96151V9.78993H99.6167ZM115.969 25.8266V23.8266H113.969V25.8266H115.969ZM115.969 33.621H113.969V35.621H115.969V33.621ZM123.764 33.621V35.621H125.764V33.621H123.764ZM123.764 25.8266H125.764V23.8266H123.764V25.8266ZM99.9327 11.4739H139.642V7.47394H99.9327V11.4739ZM138.228 10.8882L138.544 11.2041L141.373 8.37572L141.057 8.05973L138.228 10.8882ZM137.958 9.78993V49.4997H141.958V9.78993H137.958ZM138.544 48.0855L138.228 48.4015L141.057 51.2299L141.373 50.9139L138.544 48.0855ZM139.642 47.8157H99.9327V51.8157H139.642V47.8157ZM101.347 48.4015L101.031 48.0855L98.2025 50.9139L98.5185 51.2299L101.347 48.4015ZM101.617 49.4997V9.78993H97.6167V49.4997H101.617ZM101.031 11.2041L101.347 10.8882L98.5185 8.05973L98.2025 8.37572L101.031 11.2041ZM113.969 25.8266V33.621H117.969V25.8266H113.969ZM115.969 35.621H123.764V31.621H115.969V35.621ZM125.764 33.621V25.8266H121.764V33.621H125.764ZM123.764 23.8266H115.969V27.8266H123.764V23.8266ZM180.484 10.9222L179.847 12.8181L179.852 12.8196L180.484 10.9222ZM185.224 13.6872L183.821 15.1117L183.822 15.1132L185.224 13.6872ZM187.542 17.3211L189.43 16.6629L189.427 16.653L187.542 17.3211ZM187.068 25.7212L188.815 26.6942L188.822 26.6825L188.828 26.6708L187.068 25.7212ZM182.933 29.6711L181.938 27.9366L178.804 29.7355L181.992 31.4358L182.933 29.6711ZM187.989 33.9897L189.702 32.9575L189.696 32.9469L189.689 32.9364L187.989 33.9897ZM185.883 46.7611L184.56 45.2611L184.557 45.2633L185.883 46.7611ZM147.437 50H145.437V52H147.437V50ZM147.437 9.81627V7.81627H145.437V9.81627H147.437ZM165.238 25.7212H163.238V27.7212H165.238V25.7212ZM165.238 17.9004V15.9004H163.238V17.9004H165.238ZM165.238 41.1522H163.238V43.1522H165.238V41.1522ZM165.238 32.4624V30.4624H163.238V32.4624H165.238ZM172.558 11.8163C175.499 11.8163 177.914 12.1685 179.847 12.8181L181.121 9.0264C178.666 8.20138 175.797 7.81627 172.558 7.81627V11.8163ZM179.852 12.8196C181.57 13.3923 182.867 14.1724 183.821 15.1117L186.628 12.2627C185.159 10.8144 183.296 9.75124 181.117 9.02488L179.852 12.8196ZM183.822 15.1132C184.66 15.9371 185.267 16.8895 185.657 17.9892L189.427 16.653C188.833 14.9789 187.895 13.5087 186.627 12.2611L183.822 15.1132ZM185.653 17.9792C185.978 18.9113 186.147 19.925 186.147 21.034H190.147C190.147 19.5097 189.913 18.0481 189.43 16.6629L185.653 17.9792ZM186.147 21.034C186.147 22.5532 185.844 23.7779 185.307 24.7717L188.828 26.6708C189.731 24.9962 190.147 23.0961 190.147 21.034H186.147ZM185.32 24.7483C184.674 25.9085 183.593 26.9865 181.938 27.9366L183.929 31.4056C186.066 30.1789 187.741 28.6236 188.815 26.6942L185.32 24.7483ZM181.992 31.4358C184.173 32.5988 185.536 33.8269 186.289 35.0431L189.689 32.9364C188.442 30.9224 186.434 29.2714 183.875 27.9064L181.992 31.4358ZM186.276 35.0219C186.881 36.026 187.227 37.2872 187.227 38.8876H191.227C191.227 36.6961 190.748 34.692 189.702 32.9575L186.276 35.0219ZM187.227 38.8876C187.227 41.6635 186.311 43.7168 184.56 45.2611L187.206 48.2611C189.913 45.873 191.227 42.6773 191.227 38.8876H187.227ZM184.557 45.2633C182.601 46.9941 179.673 48 175.481 48V52C180.278 52 184.284 50.8466 187.208 48.2589L184.557 45.2633ZM175.481 48H147.437V52H175.481V48ZM149.437 50V9.81627H145.437V50H149.437ZM147.437 11.8163H172.558V7.81627H147.437V11.8163ZM165.238 27.7212H165.659V23.7212H165.238V27.7212ZM165.659 27.7212C167.627 27.7212 169.465 27.3707 170.852 26.3526C172.354 25.2499 173.005 23.6099 173.005 21.7977H169.005C169.005 22.6011 168.764 22.9229 168.485 23.128C168.09 23.4178 167.255 23.7212 165.659 23.7212V27.7212ZM173.005 21.7977C173.005 20.0832 172.472 18.4676 171.112 17.3369C169.822 16.2649 168.108 15.9004 166.317 15.9004V19.9004C167.652 19.9004 168.281 20.1855 168.554 20.4126C168.757 20.5809 169.005 20.9139 169.005 21.7977H173.005ZM166.317 15.9004H165.238V19.9004H166.317V15.9004ZM163.238 17.9004V25.7212H167.238V17.9004H163.238ZM165.238 43.1522H165.764V39.1522H165.238V43.1522ZM165.764 43.1522C167.838 43.1522 169.755 42.7818 171.195 41.7237C172.75 40.5811 173.426 38.8819 173.426 36.9916H169.426C169.426 37.875 169.159 38.2562 168.826 38.5004C168.379 38.8292 167.466 39.1522 165.764 39.1522V43.1522ZM173.426 36.9916C173.426 35.1256 172.908 33.372 171.538 32.1191C170.203 30.897 168.392 30.4624 166.475 30.4624V34.4624C167.859 34.4624 168.524 34.7827 168.838 35.0703C169.119 35.3271 169.426 35.8382 169.426 36.9916H173.426ZM166.475 30.4624H165.238V34.4624H166.475V30.4624ZM163.238 32.4624V41.1522H167.238V32.4624H163.238Z" fill="black" mask="url(#path-1-outside-1_2002_13)"/>
</svg>
