<svg width="112" height="29" viewBox="0 0 112 29" fill="none" xmlns="http://www.w3.org/2000/svg">
<path d="M11.2383 8.77344L18.8626 21.534H3.61405L11.2383 8.77344Z" fill="white"/>
<path d="M23.9 15.3047L17.6464 4.99241L30.1537 4.99241L23.9 15.3047Z" fill="white"/>
<path d="M99.2583 14.0289C99.2583 12.8487 99.5243 11.8098 100.056 10.9122C100.605 10.0146 101.344 9.31651 102.275 8.81785C103.206 8.30256 104.262 8.04492 105.442 8.04492C106.622 8.04492 107.669 8.30256 108.583 8.81785C109.514 9.31651 110.254 10.0146 110.802 10.9122C111.351 11.8098 111.625 12.8487 111.625 14.0289C111.625 15.1924 111.351 16.2313 110.802 17.1455C110.254 18.0431 109.514 18.7495 108.583 19.2648C107.669 19.7635 106.622 20.0128 105.442 20.0128C104.262 20.0128 103.206 19.7635 102.275 19.2648C101.344 18.7495 100.605 18.0431 100.056 17.1455C99.5243 16.2313 99.2583 15.1924 99.2583 14.0289ZM102.026 14.0289C102.026 14.7436 102.175 15.3752 102.475 15.9238C102.774 16.4557 103.181 16.8795 103.696 17.1954C104.212 17.4946 104.793 17.6442 105.442 17.6442C106.073 17.6442 106.647 17.4946 107.162 17.1954C107.694 16.8795 108.11 16.4557 108.409 15.9238C108.708 15.3752 108.858 14.7436 108.858 14.0289C108.858 13.3141 108.708 12.6825 108.409 12.1339C108.11 11.5854 107.694 11.1616 107.162 10.8624C106.647 10.5632 106.073 10.4136 105.442 10.4136C104.793 10.4136 104.212 10.5632 103.696 10.8624C103.181 11.1616 102.774 11.5854 102.475 12.1339C102.175 12.6825 102.026 13.3141 102.026 14.0289Z" fill="white"/>
<path d="M86.9155 8.29492H89.8576L92.8496 15.7L95.8416 8.29492H98.8086L92.8496 20.8113L86.9155 8.29492Z" fill="white"/>
<path d="M74.105 14.0289C74.105 12.8487 74.3709 11.8098 74.9028 10.9122C75.4514 10.0146 76.191 9.31651 77.1219 8.81785C78.0527 8.30256 79.1082 8.04492 80.2884 8.04492C81.4685 8.04492 82.5157 8.30256 83.4299 8.81785C84.3608 9.31651 85.1005 10.0146 85.649 10.9122C86.1975 11.8098 86.4718 12.8487 86.4718 14.0289C86.4718 15.1924 86.1975 16.2313 85.649 17.1455C85.1005 18.0431 84.3608 18.7495 83.4299 19.2648C82.5157 19.7635 81.4685 20.0128 80.2884 20.0128C79.1082 20.0128 78.0527 19.7635 77.1219 19.2648C76.191 18.7495 75.4514 18.0431 74.9028 17.1455C74.3709 16.2313 74.105 15.1924 74.105 14.0289ZM76.8725 14.0289C76.8725 14.7436 77.0221 15.3752 77.3213 15.9238C77.6205 16.4557 78.0278 16.8795 78.5431 17.1954C79.0583 17.4946 79.6401 17.6442 80.2884 17.6442C80.92 17.6442 81.4935 17.4946 82.0088 17.1954C82.5407 16.8795 82.9562 16.4557 83.2554 15.9238C83.5546 15.3752 83.7042 14.7436 83.7042 14.0289C83.7042 13.3141 83.5546 12.6825 83.2554 12.1339C82.9562 11.5854 82.5407 11.1616 82.0088 10.8624C81.4935 10.5632 80.92 10.4136 80.2884 10.4136C79.6401 10.4136 79.0583 10.5632 78.5431 10.8624C78.0278 11.1616 77.6205 11.5854 77.3213 12.1339C77.0221 12.6825 76.8725 13.3141 76.8725 14.0289Z" fill="white"/>
<path d="M68.7713 12.7822C68.7713 11.9345 68.5968 11.2945 68.2477 10.8624C67.8986 10.4302 67.3584 10.2141 66.6271 10.2141C66.1284 10.2141 65.6879 10.3221 65.3056 10.5382C64.9233 10.7377 64.6241 11.0369 64.408 11.4358C64.1919 11.8181 64.0839 12.2669 64.0839 12.7822V19.7635H61.3911V8.29425H64.0839V10.0645C64.4496 9.383 64.915 8.87602 65.4801 8.54358C66.0619 8.21114 66.7517 8.04492 67.5496 8.04492C68.8461 8.04492 69.8351 8.44385 70.5166 9.24171C71.1981 10.0229 71.5389 11.1034 71.5389 12.483V19.7635H68.7713V12.7822Z" fill="white"/>
<path d="M51.3379 15.9986C51.7036 16.3975 52.0692 16.7466 52.4349 17.0458C52.8172 17.3283 53.1995 17.5444 53.5818 17.694C53.9642 17.827 54.3465 17.8935 54.7288 17.8935C55.2108 17.8935 55.5848 17.7854 55.8508 17.5694C56.1333 17.3533 56.2746 17.0541 56.2746 16.6718C56.2746 16.3393 56.1666 16.0567 55.9505 15.824C55.7344 15.5747 55.4352 15.3669 55.0529 15.2007C54.6706 15.0179 54.2218 14.835 53.7065 14.6522C53.1912 14.4527 52.6759 14.22 52.1607 13.9541C51.662 13.6715 51.2465 13.3058 50.914 12.857C50.5982 12.4082 50.4403 11.8431 50.4403 11.1616C50.4403 10.4634 50.6148 9.88166 50.9639 9.41624C51.3296 8.95082 51.8116 8.61007 52.41 8.39398C53.025 8.16128 53.6816 8.04492 54.3797 8.04492C55.0113 8.04492 55.6014 8.13634 56.15 8.31919C56.7151 8.50203 57.2221 8.74305 57.6709 9.04224C58.1197 9.34144 58.502 9.68219 58.8178 10.0645L57.3218 11.6602C56.9395 11.2114 56.4824 10.8457 55.9505 10.5632C55.4186 10.2806 54.8701 10.1393 54.3049 10.1393C53.9226 10.1393 53.6068 10.2224 53.3575 10.3886C53.1081 10.5548 52.9835 10.7959 52.9835 11.1117C52.9835 11.3776 53.0915 11.6187 53.3076 11.8347C53.5403 12.0342 53.8395 12.2171 54.2052 12.3833C54.5875 12.5495 55.0113 12.724 55.4768 12.9069C56.1084 13.1562 56.6902 13.4305 57.2221 13.7297C57.754 14.0289 58.1778 14.3945 58.4937 14.8267C58.8261 15.2589 58.9923 15.824 58.9923 16.5222C58.9923 17.6026 58.6183 18.4753 57.8703 19.1401C57.139 19.7884 56.1416 20.1125 54.8784 20.1125C54.0971 20.1125 53.3741 19.9962 52.7092 19.7635C52.0609 19.5141 51.4875 19.1983 50.9888 18.816C50.5068 18.4171 50.0995 18.0015 49.7671 17.5694L51.3379 15.9986Z" fill="white"/>
<path d="M35.8975 14.0289C35.8975 12.8487 36.1634 11.8098 36.6953 10.9122C37.2438 10.0146 37.9835 9.31651 38.9144 8.81785C39.8452 8.30256 40.9007 8.04492 42.0809 8.04492C43.261 8.04492 44.3082 8.30256 45.2224 8.81785C46.1533 9.31651 46.8929 10.0146 47.4415 10.9122C47.99 11.8098 48.2643 12.8487 48.2643 14.0289C48.2643 15.1924 47.99 16.2313 47.4415 17.1455C46.8929 18.0431 46.1533 18.7495 45.2224 19.2648C44.3082 19.7635 43.261 20.0128 42.0809 20.0128C40.9007 20.0128 39.8452 19.7635 38.9144 19.2648C37.9835 18.7495 37.2438 18.0431 36.6953 17.1455C36.1634 16.2313 35.8975 15.1924 35.8975 14.0289ZM38.665 14.0289C38.665 14.7436 38.8146 15.3752 39.1138 15.9238C39.413 16.4557 39.8203 16.8795 40.3355 17.1954C40.8508 17.4946 41.4326 17.6442 42.0809 17.6442C42.7125 17.6442 43.286 17.4946 43.8012 17.1954C44.3331 16.8795 44.7487 16.4557 45.0479 15.9238C45.3471 15.3752 45.4967 14.7436 45.4967 14.0289C45.4967 13.3141 45.3471 12.6825 45.0479 12.1339C44.7487 11.5854 44.3331 11.1616 43.8012 10.8624C43.286 10.5632 42.7125 10.4136 42.0809 10.4136C41.4326 10.4136 40.8508 10.5632 40.3355 10.8624C39.8203 11.1616 39.413 11.5854 39.1138 12.1339C38.8146 12.6825 38.665 13.3141 38.665 14.0289Z" fill="white"/>
</svg>
