<svg width="179" height="59" viewBox="0 0 179 59" fill="none" xmlns="http://www.w3.org/2000/svg">
<g filter="url(#filter0_i_71_318)">
<path d="M3 3H176V56H3V3Z" fill="#00DBFD"/>
</g>
<path d="M3 1.5H1.5V3V56V57.5H3H176H177.5V56V3V1.5H176H3Z" stroke="black" stroke-width="3"/>
<g filter="url(#filter1_i_71_318)">
<path d="M3 3H176V56H3V3Z" fill="#00DBFD"/>
</g>
<path d="M4 4H175V55H4V4Z" stroke="#00DBFD" stroke-width="2"/>
<path d="M39.0653 20.5455V38H36.2528L28.0284 26.1108H27.8835V38H24.7216V20.5455H27.5511L35.767 32.4432H35.9205V20.5455H39.0653ZM48.0845 38.2557C46.8061 38.2557 45.6982 37.9744 44.7607 37.4119C43.8232 36.8494 43.0959 36.0625 42.5788 35.0511C42.0675 34.0398 41.8118 32.858 41.8118 31.5057C41.8118 30.1534 42.0675 28.9687 42.5788 27.9517C43.0959 26.9347 43.8232 26.1449 44.7607 25.5824C45.6982 25.0199 46.8061 24.7386 48.0845 24.7386C49.3629 24.7386 50.4709 25.0199 51.4084 25.5824C52.3459 26.1449 53.0703 26.9347 53.5817 27.9517C54.0987 28.9687 54.3572 30.1534 54.3572 31.5057C54.3572 32.858 54.0987 34.0398 53.5817 35.0511C53.0703 36.0625 52.3459 36.8494 51.4084 37.4119C50.4709 37.9744 49.3629 38.2557 48.0845 38.2557ZM48.1016 35.7841C48.7947 35.7841 49.3743 35.5937 49.8402 35.2131C50.3061 34.8267 50.6527 34.3097 50.88 33.6619C51.1129 33.0142 51.2294 32.2926 51.2294 31.4972C51.2294 30.696 51.1129 29.9716 50.88 29.3239C50.6527 28.6705 50.3061 28.1506 49.8402 27.7642C49.3743 27.3778 48.7947 27.1847 48.1016 27.1847C47.3913 27.1847 46.8004 27.3778 46.3288 27.7642C45.8629 28.1506 45.5135 28.6705 45.2805 29.3239C45.0533 29.9716 44.9396 30.696 44.9396 31.4972C44.9396 32.2926 45.0533 33.0142 45.2805 33.6619C45.5135 34.3097 45.8629 34.8267 46.3288 35.2131C46.8004 35.5937 47.3913 35.7841 48.1016 35.7841ZM62.6861 38.2557C61.4077 38.2557 60.2997 37.9744 59.3622 37.4119C58.4247 36.8494 57.6974 36.0625 57.1804 35.0511C56.669 34.0398 56.4134 32.858 56.4134 31.5057C56.4134 30.1534 56.669 28.9687 57.1804 27.9517C57.6974 26.9347 58.4247 26.1449 59.3622 25.5824C60.2997 25.0199 61.4077 24.7386 62.6861 24.7386C63.9645 24.7386 65.0724 25.0199 66.0099 25.5824C66.9474 26.1449 67.6719 26.9347 68.1832 27.9517C68.7003 28.9687 68.9588 30.1534 68.9588 31.5057C68.9588 32.858 68.7003 34.0398 68.1832 35.0511C67.6719 36.0625 66.9474 36.8494 66.0099 37.4119C65.0724 37.9744 63.9645 38.2557 62.6861 38.2557ZM62.7031 35.7841C63.3963 35.7841 63.9759 35.5937 64.4418 35.2131C64.9077 34.8267 65.2543 34.3097 65.4815 33.6619C65.7145 33.0142 65.831 32.2926 65.831 31.4972C65.831 30.696 65.7145 29.9716 65.4815 29.3239C65.2543 28.6705 64.9077 28.1506 64.4418 27.7642C63.9759 27.3778 63.3963 27.1847 62.7031 27.1847C61.9929 27.1847 61.402 27.3778 60.9304 27.7642C60.4645 28.1506 60.1151 28.6705 59.8821 29.3239C59.6548 29.9716 59.5412 30.696 59.5412 31.4972C59.5412 32.2926 59.6548 33.0142 59.8821 33.6619C60.1151 34.3097 60.4645 34.8267 60.9304 35.2131C61.402 35.5937 61.9929 35.7841 62.7031 35.7841ZM71.7138 38V20.5455H74.799V27.0739H74.9268C75.0859 26.7557 75.3104 26.4176 75.6001 26.0597C75.8899 25.696 76.282 25.3864 76.7763 25.1307C77.2706 24.8693 77.9013 24.7386 78.6683 24.7386C79.6797 24.7386 80.5916 24.9972 81.4041 25.5142C82.2223 26.0256 82.87 26.7841 83.3473 27.7898C83.8303 28.7898 84.0717 30.017 84.0717 31.4716C84.0717 32.9091 83.8359 34.1307 83.3643 35.1364C82.8928 36.142 82.2507 36.9091 81.4382 37.4375C80.6257 37.9659 79.7053 38.2301 78.6768 38.2301C77.9268 38.2301 77.3047 38.1051 76.8104 37.8551C76.3161 37.6051 75.9183 37.304 75.6172 36.9517C75.3217 36.5937 75.0916 36.2557 74.9268 35.9375H74.7479V38H71.7138ZM74.7393 31.4545C74.7393 32.3011 74.8587 33.0426 75.0973 33.679C75.3416 34.3153 75.6911 34.8125 76.1456 35.1705C76.6058 35.5227 77.1626 35.6989 77.8161 35.6989C78.4979 35.6989 79.0689 35.517 79.5291 35.1534C79.9893 34.7841 80.3359 34.2812 80.5689 33.6449C80.8075 33.0028 80.9268 32.2727 80.9268 31.4545C80.9268 30.642 80.8104 29.9205 80.5774 29.2898C80.3445 28.6591 79.9979 28.1648 79.5376 27.8068C79.0774 27.4489 78.5036 27.2699 77.8161 27.2699C77.157 27.2699 76.5973 27.4432 76.1371 27.7898C75.6768 28.1364 75.3274 28.6222 75.0888 29.2472C74.8558 29.8722 74.7393 30.608 74.7393 31.4545ZM102.27 25.3438C102.19 24.5994 101.855 24.0199 101.264 23.6051C100.679 23.1903 99.9176 22.983 98.9801 22.983C98.321 22.983 97.7557 23.0824 97.2841 23.2812C96.8125 23.4801 96.4517 23.75 96.2017 24.0909C95.9517 24.4318 95.8239 24.821 95.8182 25.2585C95.8182 25.6222 95.9006 25.9375 96.0653 26.2045C96.2358 26.4716 96.4659 26.6989 96.7557 26.8864C97.0455 27.0682 97.3665 27.2216 97.7188 27.3466C98.071 27.4716 98.4261 27.5767 98.7841 27.6619L100.42 28.071C101.08 28.2244 101.713 28.4318 102.321 28.6932C102.935 28.9545 103.483 29.2841 103.966 29.6818C104.455 30.0795 104.841 30.5597 105.125 31.1222C105.409 31.6847 105.551 32.3437 105.551 33.0994C105.551 34.1222 105.29 35.0227 104.767 35.8011C104.244 36.5739 103.489 37.179 102.5 37.6165C101.517 38.0483 100.327 38.2642 98.929 38.2642C97.571 38.2642 96.392 38.054 95.392 37.6335C94.3977 37.2131 93.6193 36.5994 93.0568 35.7926C92.5 34.9858 92.1989 34.0028 92.1534 32.8438H95.2642C95.3097 33.4517 95.4972 33.9574 95.8267 34.3608C96.1563 34.7642 96.5852 35.0653 97.1136 35.2642C97.6477 35.4631 98.2443 35.5625 98.9034 35.5625C99.5909 35.5625 100.193 35.4602 100.71 35.2557C101.233 35.0455 101.642 34.7557 101.938 34.3864C102.233 34.0114 102.384 33.5739 102.389 33.0739C102.384 32.6193 102.25 32.2443 101.989 31.9489C101.727 31.6477 101.361 31.3977 100.889 31.1989C100.423 30.9943 99.8778 30.8125 99.2528 30.6534L97.267 30.142C95.8295 29.7727 94.6932 29.2131 93.858 28.4631C93.0284 27.7074 92.6136 26.7045 92.6136 25.4545C92.6136 24.4261 92.892 23.5256 93.4489 22.7528C94.0114 21.9801 94.7756 21.3807 95.7415 20.9545C96.7074 20.5227 97.8011 20.3068 99.0227 20.3068C100.261 20.3068 101.347 20.5227 102.278 20.9545C103.216 21.3807 103.952 21.9744 104.486 22.7358C105.02 23.4915 105.295 24.3608 105.312 25.3438H102.27ZM111.319 30.3295V38H108.234V20.5455H111.251V27.1335H111.404C111.711 26.3949 112.185 25.8125 112.827 25.3864C113.475 24.9545 114.299 24.7386 115.299 24.7386C116.208 24.7386 117.001 24.929 117.677 25.3097C118.353 25.6903 118.876 26.2472 119.245 26.9801C119.62 27.7131 119.808 28.608 119.808 29.6648V38H116.722V30.142C116.722 29.2614 116.495 28.5767 116.04 28.0881C115.592 27.5937 114.961 27.3466 114.148 27.3466C113.603 27.3466 113.114 27.4659 112.683 27.7045C112.256 27.9375 111.921 28.2756 111.677 28.7188C111.438 29.1619 111.319 29.6989 111.319 30.3295ZM128.663 38.2557C127.384 38.2557 126.276 37.9744 125.339 37.4119C124.401 36.8494 123.674 36.0625 123.157 35.0511C122.646 34.0398 122.39 32.858 122.39 31.5057C122.39 30.1534 122.646 28.9687 123.157 27.9517C123.674 26.9347 124.401 26.1449 125.339 25.5824C126.276 25.0199 127.384 24.7386 128.663 24.7386C129.941 24.7386 131.049 25.0199 131.987 25.5824C132.924 26.1449 133.648 26.9347 134.16 27.9517C134.677 28.9687 134.935 30.1534 134.935 31.5057C134.935 32.858 134.677 34.0398 134.16 35.0511C133.648 36.0625 132.924 36.8494 131.987 37.4119C131.049 37.9744 129.941 38.2557 128.663 38.2557ZM128.68 35.7841C129.373 35.7841 129.952 35.5937 130.418 35.2131C130.884 34.8267 131.231 34.3097 131.458 33.6619C131.691 33.0142 131.808 32.2926 131.808 31.4972C131.808 30.696 131.691 29.9716 131.458 29.3239C131.231 28.6705 130.884 28.1506 130.418 27.7642C129.952 27.3778 129.373 27.1847 128.68 27.1847C127.969 27.1847 127.379 27.3778 126.907 27.7642C126.441 28.1506 126.092 28.6705 125.859 29.3239C125.631 29.9716 125.518 30.696 125.518 31.4972C125.518 32.2926 125.631 33.0142 125.859 33.6619C126.092 34.3097 126.441 34.8267 126.907 35.2131C127.379 35.5937 127.969 35.7841 128.68 35.7841ZM139.881 38L136.182 24.9091H139.327L141.628 34.1136H141.747L144.099 24.9091H147.21L149.562 34.0625H149.69L151.957 24.9091H155.111L151.403 38H148.19L145.736 29.1534H145.557L143.102 38H139.881Z" fill="black"/>
<defs>
<filter id="filter0_i_71_318" x="0" y="0" width="179" height="59" filterUnits="userSpaceOnUse" color-interpolation-filters="sRGB">
<feFlood flood-opacity="0" result="BackgroundImageFix"/>
<feBlend mode="normal" in="SourceGraphic" in2="BackgroundImageFix" result="shape"/>
<feColorMatrix in="SourceAlpha" type="matrix" values="0 0 0 0 0 0 0 0 0 0 0 0 0 0 0 0 0 0 127 0" result="hardAlpha"/>
<feOffset dy="-32"/>
<feComposite in2="hardAlpha" operator="arithmetic" k2="-1" k3="1"/>
<feColorMatrix type="matrix" values="0 0 0 0 1 0 0 0 0 0.835294 0 0 0 0 0.192157 0 0 0 1 0"/>
<feBlend mode="normal" in2="shape" result="effect1_innerShadow_71_318"/>
</filter>
<filter id="filter1_i_71_318" x="3" y="3" width="173" height="53" filterUnits="userSpaceOnUse" color-interpolation-filters="sRGB">
<feFlood flood-opacity="0" result="BackgroundImageFix"/>
<feBlend mode="normal" in="SourceGraphic" in2="BackgroundImageFix" result="shape"/>
<feColorMatrix in="SourceAlpha" type="matrix" values="0 0 0 0 0 0 0 0 0 0 0 0 0 0 0 0 0 0 127 0" result="hardAlpha"/>
<feOffset dy="-27"/>
<feComposite in2="hardAlpha" operator="arithmetic" k2="-1" k3="1"/>
<feColorMatrix type="matrix" values="0 0 0 0 0 0 0 0 0 0.686275 0 0 0 0 0.792157 0 0 0 1 0"/>
<feBlend mode="normal" in2="shape" result="effect1_innerShadow_71_318"/>
</filter>
</defs>
</svg>
