<svg width="224" height="55" viewBox="0 0 224 55" fill="none" xmlns="http://www.w3.org/2000/svg">
<mask id="path-1-outside-1_2001_13" maskUnits="userSpaceOnUse" x="2" y="2" width="217" height="48" fill="black">
<rect fill="white" x="2" y="2" width="217" height="48"/>
<path d="M14.4922 5.60938L46.4609 13.8828L46.6016 14.0234L38.1875 46.25C17.625 40.9844 6.92188 38.1797 6.07812 37.8359C11.1719 17.7891 13.9766 7.04687 14.4922 5.60938ZM24.0547 22.0391L22.5078 28.4141H22.6484L28.625 29.9375C29.6562 26.3281 30.1719 24.25 30.1719 23.7031L24.0547 22.0391ZM73.4375 8.23438C77.6719 8.23438 80.9688 9.35156 83.3281 11.5859C85.4062 13.5547 86.4453 16.0078 86.4453 18.9453C86.4453 22.3516 85.0859 24.9922 82.3672 26.8672C86.2422 31.2734 88.5469 36.9844 89.2812 44H72.875C72.5312 39.2656 71.8203 35.8672 70.7422 33.8047C69.6641 31.7734 68.0547 30.7578 65.9141 30.7578V44H50.0703V8.23438H73.4375ZM65.9141 22.4844H66.3359C69.1953 22.4844 70.625 21.3672 70.625 19.1328C70.625 18.1953 70.3672 17.4141 69.8516 16.7891C69.2109 15.9922 68.2188 15.5938 66.875 15.5938H65.9141V22.4844ZM93.1953 8.23438H109.039V44H93.1953V8.23438ZM144.594 23.2109C141.422 21.6797 138.477 20.9141 135.758 20.9141C131.789 20.9141 129.805 22.6094 129.805 26C129.805 28.9062 131.703 30.3594 135.5 30.3594V24.7578H151.344V44.0469L144.383 44.375C141.32 44.5156 139.305 44.5859 138.336 44.5859C134.227 44.5859 130.758 44.1953 127.93 43.4141C124.836 42.5703 122.352 41.2109 120.477 39.3359C116.836 35.6953 115.016 31.25 115.016 26C115.016 23.6875 115.391 21.4844 116.141 19.3906C116.938 17.1406 118.109 15.1797 119.656 13.5078C121.344 11.6797 123.398 10.2734 125.82 9.28906C128.477 8.21094 131.5 7.67188 134.891 7.67188C141.172 7.67188 146.945 9.26562 152.211 12.4531L144.594 23.2109ZM157.133 8.23438H172.977V44H157.133V8.23438ZM180.008 8.23438H191.328L199.602 20.1875H199.695V8.23438H215.539V44.2812H203.539L195.945 33.1484H195.852V44H180.008V8.23438Z"/>
</mask>
<path d="M14.4922 5.60938L46.4609 13.8828L46.6016 14.0234L38.1875 46.25C17.625 40.9844 6.92188 38.1797 6.07812 37.8359C11.1719 17.7891 13.9766 7.04687 14.4922 5.60938ZM24.0547 22.0391L22.5078 28.4141H22.6484L28.625 29.9375C29.6562 26.3281 30.1719 24.25 30.1719 23.7031L24.0547 22.0391ZM73.4375 8.23438C77.6719 8.23438 80.9688 9.35156 83.3281 11.5859C85.4062 13.5547 86.4453 16.0078 86.4453 18.9453C86.4453 22.3516 85.0859 24.9922 82.3672 26.8672C86.2422 31.2734 88.5469 36.9844 89.2812 44H72.875C72.5312 39.2656 71.8203 35.8672 70.7422 33.8047C69.6641 31.7734 68.0547 30.7578 65.9141 30.7578V44H50.0703V8.23438H73.4375ZM65.9141 22.4844H66.3359C69.1953 22.4844 70.625 21.3672 70.625 19.1328C70.625 18.1953 70.3672 17.4141 69.8516 16.7891C69.2109 15.9922 68.2188 15.5938 66.875 15.5938H65.9141V22.4844ZM93.1953 8.23438H109.039V44H93.1953V8.23438ZM144.594 23.2109C141.422 21.6797 138.477 20.9141 135.758 20.9141C131.789 20.9141 129.805 22.6094 129.805 26C129.805 28.9062 131.703 30.3594 135.5 30.3594V24.7578H151.344V44.0469L144.383 44.375C141.32 44.5156 139.305 44.5859 138.336 44.5859C134.227 44.5859 130.758 44.1953 127.93 43.4141C124.836 42.5703 122.352 41.2109 120.477 39.3359C116.836 35.6953 115.016 31.25 115.016 26C115.016 23.6875 115.391 21.4844 116.141 19.3906C116.938 17.1406 118.109 15.1797 119.656 13.5078C121.344 11.6797 123.398 10.2734 125.82 9.28906C128.477 8.21094 131.5 7.67188 134.891 7.67188C141.172 7.67188 146.945 9.26562 152.211 12.4531L144.594 23.2109ZM157.133 8.23438H172.977V44H157.133V8.23438ZM180.008 8.23438H191.328L199.602 20.1875H199.695V8.23438H215.539V44.2812H203.539L195.945 33.1484H195.852V44H180.008V8.23438Z" fill="white"/>
<path d="M14.4922 5.60938L15.2438 2.70506L12.5929 2.019L11.6684 4.59648L14.4922 5.60938ZM46.4609 13.8828L48.5823 11.7615L48.0041 11.1833L47.2126 10.9785L46.4609 13.8828ZM46.6016 14.0234L49.5043 14.7813L49.9386 13.1178L48.7229 11.9021L46.6016 14.0234ZM38.1875 46.25L37.4433 49.1562L40.3359 49.897L41.0902 47.0079L38.1875 46.25ZM6.07812 37.8359L3.17052 37.0971L2.52727 39.6287L4.94623 40.6142L6.07812 37.8359ZM24.0547 22.0391L24.8422 19.1443L21.8665 18.3348L21.1393 21.3316L24.0547 22.0391ZM22.5078 28.4141L19.5924 27.7066L18.6928 31.4141H22.5078V28.4141ZM22.6484 28.4141L23.3894 25.507L23.0248 25.4141H22.6484V28.4141ZM28.625 29.9375L27.884 32.8445L30.7087 33.5646L31.5096 30.7617L28.625 29.9375ZM30.1719 23.7031H33.1719V21.4102L30.9594 20.8083L30.1719 23.7031ZM13.7406 8.51369L45.7093 16.7871L47.2126 10.9785L15.2438 2.70506L13.7406 8.51369ZM44.3396 16.0041L44.4802 16.1448L48.7229 11.9021L48.5823 11.7615L44.3396 16.0041ZM43.6989 13.2656L35.2848 45.4921L41.0902 47.0079L49.5043 14.7813L43.6989 13.2656ZM38.9317 43.3438C28.6519 40.7113 20.842 38.6954 15.4987 37.2952C12.826 36.5949 10.7777 36.0505 9.34876 35.6608C7.78706 35.235 7.20496 35.0556 7.21002 35.0577L4.94623 40.6142C5.37317 40.7882 6.44536 41.0882 7.77038 41.4495C9.22816 41.847 11.299 42.3973 13.9778 43.0993C19.3377 44.5038 27.1606 46.523 37.4433 49.1562L38.9317 43.3438ZM8.98573 38.5747C11.5321 28.5532 13.5048 20.8635 14.9046 15.502C16.3316 10.0368 17.1166 7.17824 17.316 6.62227L11.6684 4.59648C11.3522 5.47801 10.477 8.70932 9.09926 13.9863C7.69441 19.367 5.71789 27.0718 3.17052 37.0971L8.98573 38.5747ZM21.1393 21.3316L19.5924 27.7066L25.4232 29.1215L26.9701 22.7465L21.1393 21.3316ZM22.5078 31.4141H22.6484V25.4141H22.5078V31.4141ZM21.9074 31.3211L27.884 32.8445L29.366 27.0305L23.3894 25.507L21.9074 31.3211ZM31.5096 30.7617C32.0288 28.9442 32.4266 27.4835 32.6969 26.3943C32.8315 25.8516 32.9411 25.3748 33.0189 24.9786C33.0826 24.6546 33.1719 24.1635 33.1719 23.7031H27.1719C27.1719 23.5162 27.1967 23.4899 27.1314 23.8222C27.0804 24.0822 26.9966 24.453 26.8734 24.9494C26.6281 25.9383 26.2524 27.3214 25.7404 29.1133L31.5096 30.7617ZM30.9594 20.8083L24.8422 19.1443L23.2672 24.9339L29.3844 26.5979L30.9594 20.8083ZM83.3281 11.5859L85.3914 9.40808L85.391 9.4077L83.3281 11.5859ZM82.3672 26.8672L80.664 24.3975L77.8854 26.3138L80.1144 28.8484L82.3672 26.8672ZM89.2812 44V47H92.6117L92.2649 43.6877L89.2812 44ZM72.875 44L69.8829 44.2172L70.0849 47H72.875V44ZM70.7422 33.8047L73.4009 32.4149L73.3965 32.4066L73.3921 32.3982L70.7422 33.8047ZM65.9141 30.7578V27.7578H62.9141V30.7578H65.9141ZM65.9141 44V47H68.9141V44H65.9141ZM50.0703 44H47.0703V47H50.0703V44ZM50.0703 8.23438V5.23438H47.0703V8.23438H50.0703ZM65.9141 22.4844H62.9141V25.4844H65.9141V22.4844ZM69.8516 16.7891L67.5134 18.6687L67.5253 18.6835L67.5374 18.6982L69.8516 16.7891ZM65.9141 15.5938V12.5938H62.9141V15.5938H65.9141ZM73.4375 11.2344C77.1447 11.2344 79.616 12.2023 81.2653 13.7642L85.391 9.4077C82.3215 6.50084 78.199 5.23438 73.4375 5.23438V11.2344ZM81.2649 13.7638C82.7276 15.1495 83.4453 16.8073 83.4453 18.9453H89.4453C89.4453 15.2084 88.0849 11.9599 85.3914 9.40808L81.2649 13.7638ZM83.4453 18.9453C83.4453 21.4022 82.5408 23.1032 80.664 24.3975L84.0704 29.3368C87.631 26.8812 89.4453 23.301 89.4453 18.9453H83.4453ZM80.1144 28.8484C83.5013 32.6996 85.6146 37.7876 86.2976 44.3123L92.2649 43.6877C91.4792 36.1812 88.9831 29.8473 84.62 24.886L80.1144 28.8484ZM89.2812 41H72.875V47H89.2812V41ZM75.8671 43.7828C75.5182 38.9765 74.7803 35.0538 73.4009 32.4149L68.0835 35.1945C68.8603 36.6805 69.5443 39.5547 69.8829 44.2172L75.8671 43.7828ZM73.3921 32.3982C72.6589 31.0168 71.6581 29.8221 70.3276 28.9825C68.9856 28.1356 67.4783 27.7578 65.9141 27.7578V33.7578C66.4905 33.7578 66.8581 33.8878 67.1255 34.0566C67.4044 34.2326 67.7474 34.5613 68.0923 35.2112L73.3921 32.3982ZM62.9141 30.7578V44H68.9141V30.7578H62.9141ZM65.9141 41H50.0703V47H65.9141V41ZM53.0703 44V8.23438H47.0703V44H53.0703ZM50.0703 11.2344H73.4375V5.23438H50.0703V11.2344ZM65.9141 25.4844H66.3359V19.4844H65.9141V25.4844ZM66.3359 25.4844C68.0741 25.4844 69.9302 25.1588 71.3999 24.0104C73.0103 22.752 73.625 20.9369 73.625 19.1328H67.625C67.625 19.376 67.5859 19.4493 67.5975 19.422C67.6169 19.3767 67.6618 19.3168 67.7056 19.2826C67.7343 19.2602 67.6813 19.3131 67.4562 19.3718C67.2263 19.4316 66.8652 19.4844 66.3359 19.4844V25.4844ZM73.625 19.1328C73.625 17.6138 73.1928 16.125 72.1657 14.8799L67.5374 18.6982C67.5415 18.7032 67.625 18.7768 67.625 19.1328H73.625ZM72.1897 14.9094C70.8114 13.195 68.8201 12.5938 66.875 12.5938V18.5938C67.2585 18.5938 67.4467 18.6515 67.509 18.6765C67.5502 18.6931 67.5305 18.69 67.5134 18.6687L72.1897 14.9094ZM66.875 12.5938H65.9141V18.5938H66.875V12.5938ZM62.9141 15.5938V22.4844H68.9141V15.5938H62.9141ZM93.1953 8.23438V5.23438H90.1953V8.23438H93.1953ZM109.039 8.23438H112.039V5.23438H109.039V8.23438ZM109.039 44V47H112.039V44H109.039ZM93.1953 44H90.1953V47H93.1953V44ZM93.1953 11.2344H109.039V5.23438H93.1953V11.2344ZM106.039 8.23438V44H112.039V8.23438H106.039ZM109.039 41H93.1953V47H109.039V41ZM96.1953 44V8.23438H90.1953V44H96.1953ZM144.594 23.2109L143.29 25.9126L145.575 27.0161L147.042 24.9445L144.594 23.2109ZM135.5 30.3594V33.3594H138.5V30.3594H135.5ZM135.5 24.7578V21.7578H132.5V24.7578H135.5ZM151.344 24.7578H154.344V21.7578H151.344V24.7578ZM151.344 44.0469L151.485 47.0435L154.344 46.9088V44.0469H151.344ZM144.383 44.375L144.52 47.3718L144.524 47.3717L144.383 44.375ZM127.93 43.4141L128.729 40.5224L128.719 40.5198L127.93 43.4141ZM116.141 19.3906L118.965 20.4023L118.969 20.3922L116.141 19.3906ZM119.656 13.5078L121.858 15.5452L121.861 15.5427L119.656 13.5078ZM125.82 9.28906L124.692 6.50931L124.691 6.50986L125.82 9.28906ZM152.211 12.4531L154.659 14.1867L156.522 11.556L153.764 9.88671L152.211 12.4531ZM145.898 20.5093C142.435 18.8376 139.041 17.9141 135.758 17.9141V23.9141C137.912 23.9141 140.409 24.5218 143.29 25.9126L145.898 20.5093ZM135.758 17.9141C133.416 17.9141 131.101 18.4041 129.344 19.9046C127.498 21.4824 126.805 23.708 126.805 26H132.805C132.805 24.9014 133.104 24.584 133.242 24.4665C133.47 24.2717 134.13 23.9141 135.758 23.9141V17.9141ZM126.805 26C126.805 28.1624 127.552 30.2337 129.405 31.6518C131.106 32.9537 133.303 33.3594 135.5 33.3594V27.3594C133.9 27.3594 133.25 27.0385 133.052 26.8873C132.98 26.8319 132.944 26.7845 132.911 26.7094C132.871 26.6166 132.805 26.4038 132.805 26H126.805ZM138.5 30.3594V24.7578H132.5V30.3594H138.5ZM135.5 27.7578H151.344V21.7578H135.5V27.7578ZM148.344 24.7578V44.0469H154.344V24.7578H148.344ZM151.202 41.0502L144.242 41.3783L144.524 47.3717L151.485 47.0435L151.202 41.0502ZM144.245 41.3782C141.168 41.5194 139.223 41.5859 138.336 41.5859V47.5859C139.386 47.5859 141.472 47.5118 144.52 47.3718L144.245 41.3782ZM138.336 41.5859C134.398 41.5859 131.216 41.2095 128.728 40.5224L127.131 46.3058C130.3 47.1812 134.056 47.5859 138.336 47.5859V41.5859ZM128.719 40.5198C126.024 39.7847 124.034 38.6503 122.598 37.2146L118.355 41.4573C120.67 43.7716 123.648 45.3559 127.14 46.3084L128.719 40.5198ZM122.598 37.2146C119.532 34.1489 118.016 30.4719 118.016 26H112.016C112.016 32.0281 114.14 37.2417 118.355 41.4573L122.598 37.2146ZM118.016 26C118.016 24.0184 118.336 22.1586 118.965 20.4023L113.316 18.3789C112.445 20.8101 112.016 23.3566 112.016 26H118.016ZM118.969 20.3922C119.636 18.5076 120.601 16.9036 121.858 15.5452L117.454 11.4704C115.617 13.4558 114.239 15.7736 113.313 18.3891L118.969 20.3922ZM121.861 15.5427C123.234 14.0551 124.915 12.8952 126.95 12.0683L124.691 6.50986C121.881 7.65168 119.454 9.30428 117.452 11.473L121.861 15.5427ZM126.949 12.0688C129.187 11.1601 131.817 10.6719 134.891 10.6719V4.67188C131.183 4.67188 127.766 5.26173 124.692 6.50931L126.949 12.0688ZM134.891 10.6719C140.636 10.6719 145.87 12.1217 150.657 15.0195L153.764 9.88671C148.02 6.40952 141.708 4.67188 134.891 4.67188V10.6719ZM149.763 10.7195L142.145 21.4773L147.042 24.9445L154.659 14.1867L149.763 10.7195ZM157.133 8.23438V5.23438H154.133V8.23438H157.133ZM172.977 8.23438H175.977V5.23438H172.977V8.23438ZM172.977 44V47H175.977V44H172.977ZM157.133 44H154.133V47H157.133V44ZM157.133 11.2344H172.977V5.23438H157.133V11.2344ZM169.977 8.23438V44H175.977V8.23438H169.977ZM172.977 41H157.133V47H172.977V41ZM160.133 44V8.23438H154.133V44H160.133ZM180.008 8.23438V5.23438H177.008V8.23438H180.008ZM191.328 8.23438L193.795 6.527L192.9 5.23438H191.328V8.23438ZM199.602 20.1875L197.135 21.8949L198.03 23.1875H199.602V20.1875ZM199.695 20.1875V23.1875H202.695V20.1875H199.695ZM199.695 8.23438V5.23438H196.695V8.23438H199.695ZM215.539 8.23438H218.539V5.23438H215.539V8.23438ZM215.539 44.2812V47.2812H218.539V44.2812H215.539ZM203.539 44.2812L201.061 45.9717L201.954 47.2812H203.539V44.2812ZM195.945 33.1484L198.424 31.4579L197.53 30.1484H195.945V33.1484ZM195.852 33.1484V30.1484H192.852V33.1484H195.852ZM195.852 44V47H198.852V44H195.852ZM180.008 44H177.008V47H180.008V44ZM180.008 11.2344H191.328V5.23438H180.008V11.2344ZM188.861 9.94175L197.135 21.8949L202.068 18.4801L193.795 6.527L188.861 9.94175ZM199.602 23.1875H199.695V17.1875H199.602V23.1875ZM202.695 20.1875V8.23438H196.695V20.1875H202.695ZM199.695 11.2344H215.539V5.23438H199.695V11.2344ZM212.539 8.23438V44.2812H218.539V8.23438H212.539ZM215.539 41.2812H203.539V47.2812H215.539V41.2812ZM206.017 42.5908L198.424 31.4579L193.467 34.8389L201.061 45.9717L206.017 42.5908ZM195.945 30.1484H195.852V36.1484H195.945V30.1484ZM192.852 33.1484V44H198.852V33.1484H192.852ZM195.852 41H180.008V47H195.852V41ZM183.008 44V8.23438H177.008V44H183.008Z" fill="black" mask="url(#path-1-outside-1_2001_13)"/>
</svg>
