<svg width="266" height="55" viewBox="0 0 266 55" fill="none" xmlns="http://www.w3.org/2000/svg">
<mask id="path-1-outside-1_2002_13" maskUnits="userSpaceOnUse" x="-1" y="4" width="268" height="44" fill="black">
<rect fill="white" x="-1" y="4" width="268" height="44"/>
<path d="M30.1875 24.0781C28.2656 23.4062 26.1172 23.0703 23.7422 23.0703C20.3828 23.0703 18.7031 23.9844 18.7031 25.8125C18.7031 27.6719 20.5156 28.6016 24.1406 28.6016C26.5 28.6016 28.5156 28.1797 30.1875 27.3359L36.7969 40.8828C32.7812 43.3516 27.9844 44.5859 22.4062 44.5859C19.1719 44.5859 16.25 44.0625 13.6406 43.0156C11.2188 42.0469 9.14844 40.6719 7.42969 38.8906C4.13281 35.5 2.48438 31.3281 2.48438 26.375C2.48438 20.9375 4.35156 16.4609 8.08594 12.9453C11.8203 9.42969 16.5938 7.67188 22.4062 7.67188C28.1875 7.67188 32.9844 8.92969 36.7969 11.4453L30.1875 24.0781ZM76.0312 24.4531C76.0312 31.0781 74.3828 36.0391 71.0859 39.3359C69.3047 41.1172 67.2266 42.4609 64.8516 43.3672C62.7109 44.1797 60.5 44.5859 58.2188 44.5859C55.875 44.5859 53.5859 44.1484 51.3516 43.2734C48.9766 42.3359 46.9297 41.0078 45.2109 39.2891C43.4297 37.5078 42.1641 35.2969 41.4141 32.6562C40.7734 30.3438 40.4531 27.375 40.4531 23.75V8.23438H56.2969V24.8047C56.2969 27.5234 56.9219 28.8828 58.1719 28.8828C58.9688 28.8828 59.5 28.5156 59.7656 27.7812C60.0469 27.0156 60.1875 25.5234 60.1875 23.3047V8.23438H76.0312V24.4531ZM82.4766 8.23438H98.3203V35.0234H112.195V44H82.4766V8.23438ZM113.391 8.23438H145.172V24.0781H137.203V44H121.359V24.0781H113.391V8.23438ZM184.594 24.4531C184.594 31.0781 182.945 36.0391 179.648 39.3359C177.867 41.1172 175.789 42.4609 173.414 43.3672C171.273 44.1797 169.062 44.5859 166.781 44.5859C164.438 44.5859 162.148 44.1484 159.914 43.2734C157.539 42.3359 155.492 41.0078 153.773 39.2891C151.992 37.5078 150.727 35.2969 149.977 32.6562C149.336 30.3438 149.016 27.375 149.016 23.75V8.23438H164.859V24.8047C164.859 27.5234 165.484 28.8828 166.734 28.8828C167.531 28.8828 168.062 28.5156 168.328 27.7812C168.609 27.0156 168.75 25.5234 168.75 23.3047V8.23438H184.594V24.4531ZM214.453 8.23438C218.688 8.23438 221.984 9.35156 224.344 11.5859C226.422 13.5547 227.461 16.0078 227.461 18.9453C227.461 22.3516 226.102 24.9922 223.383 26.8672C227.258 31.2734 229.562 36.9844 230.297 44H213.891C213.547 39.2656 212.836 35.8672 211.758 33.8047C210.68 31.7734 209.07 30.7578 206.93 30.7578V44H191.086V8.23438H214.453ZM206.93 22.4844H207.352C210.211 22.4844 211.641 21.3672 211.641 19.1328C211.641 18.1953 211.383 17.4141 210.867 16.7891C210.227 15.9922 209.234 15.5938 207.891 15.5938H206.93V22.4844ZM263.836 44H234.117V8.23438H263.836V17.2109H249.961V21.6406H259.594V30.6172H249.961V35.0234H263.836V44Z"/>
</mask>
<path d="M30.1875 24.0781C28.2656 23.4062 26.1172 23.0703 23.7422 23.0703C20.3828 23.0703 18.7031 23.9844 18.7031 25.8125C18.7031 27.6719 20.5156 28.6016 24.1406 28.6016C26.5 28.6016 28.5156 28.1797 30.1875 27.3359L36.7969 40.8828C32.7812 43.3516 27.9844 44.5859 22.4062 44.5859C19.1719 44.5859 16.25 44.0625 13.6406 43.0156C11.2188 42.0469 9.14844 40.6719 7.42969 38.8906C4.13281 35.5 2.48438 31.3281 2.48438 26.375C2.48438 20.9375 4.35156 16.4609 8.08594 12.9453C11.8203 9.42969 16.5938 7.67188 22.4062 7.67188C28.1875 7.67188 32.9844 8.92969 36.7969 11.4453L30.1875 24.0781ZM76.0312 24.4531C76.0312 31.0781 74.3828 36.0391 71.0859 39.3359C69.3047 41.1172 67.2266 42.4609 64.8516 43.3672C62.7109 44.1797 60.5 44.5859 58.2188 44.5859C55.875 44.5859 53.5859 44.1484 51.3516 43.2734C48.9766 42.3359 46.9297 41.0078 45.2109 39.2891C43.4297 37.5078 42.1641 35.2969 41.4141 32.6562C40.7734 30.3438 40.4531 27.375 40.4531 23.75V8.23438H56.2969V24.8047C56.2969 27.5234 56.9219 28.8828 58.1719 28.8828C58.9688 28.8828 59.5 28.5156 59.7656 27.7812C60.0469 27.0156 60.1875 25.5234 60.1875 23.3047V8.23438H76.0312V24.4531ZM82.4766 8.23438H98.3203V35.0234H112.195V44H82.4766V8.23438ZM113.391 8.23438H145.172V24.0781H137.203V44H121.359V24.0781H113.391V8.23438ZM184.594 24.4531C184.594 31.0781 182.945 36.0391 179.648 39.3359C177.867 41.1172 175.789 42.4609 173.414 43.3672C171.273 44.1797 169.062 44.5859 166.781 44.5859C164.438 44.5859 162.148 44.1484 159.914 43.2734C157.539 42.3359 155.492 41.0078 153.773 39.2891C151.992 37.5078 150.727 35.2969 149.977 32.6562C149.336 30.3438 149.016 27.375 149.016 23.75V8.23438H164.859V24.8047C164.859 27.5234 165.484 28.8828 166.734 28.8828C167.531 28.8828 168.062 28.5156 168.328 27.7812C168.609 27.0156 168.75 25.5234 168.75 23.3047V8.23438H184.594V24.4531ZM214.453 8.23438C218.688 8.23438 221.984 9.35156 224.344 11.5859C226.422 13.5547 227.461 16.0078 227.461 18.9453C227.461 22.3516 226.102 24.9922 223.383 26.8672C227.258 31.2734 229.562 36.9844 230.297 44H213.891C213.547 39.2656 212.836 35.8672 211.758 33.8047C210.68 31.7734 209.07 30.7578 206.93 30.7578V44H191.086V8.23438H214.453ZM206.93 22.4844H207.352C210.211 22.4844 211.641 21.3672 211.641 19.1328C211.641 18.1953 211.383 17.4141 210.867 16.7891C210.227 15.9922 209.234 15.5938 207.891 15.5938H206.93V22.4844ZM263.836 44H234.117V8.23438H263.836V17.2109H249.961V21.6406H259.594V30.6172H249.961V35.0234H263.836V44Z" fill="white"/>
<path d="M30.1875 24.0781L29.1975 26.9101L31.6441 27.7654L32.8457 25.4689L30.1875 24.0781ZM30.1875 27.3359L32.8837 26.0205L31.5504 23.2877L28.8359 24.6577L30.1875 27.3359ZM36.7969 40.8828L38.3681 43.4385L40.6864 42.0132L39.4931 39.5674L36.7969 40.8828ZM13.6406 43.0156L14.7577 40.2313L14.7548 40.2302L13.6406 43.0156ZM7.42969 38.8906L9.58856 36.8075L9.58053 36.7992L7.42969 38.8906ZM36.7969 11.4453L39.455 12.836L40.7117 10.4342L38.4491 8.9413L36.7969 11.4453ZM31.1775 21.2462C28.8894 20.4463 26.3993 20.0703 23.7422 20.0703V26.0703C25.8351 26.0703 27.6419 26.3662 29.1975 26.9101L31.1775 21.2462ZM23.7422 20.0703C21.8886 20.0703 20.0268 20.3056 18.5289 21.1208C17.7349 21.5529 16.9923 22.1765 16.4598 23.0458C15.923 23.9222 15.7031 24.8799 15.7031 25.8125H21.7031C21.7031 25.831 21.6932 25.989 21.5763 26.1798C21.4637 26.3636 21.3511 26.4159 21.3969 26.391C21.4591 26.3571 21.658 26.2688 22.073 26.1935C22.4815 26.1194 23.0299 26.0703 23.7422 26.0703V20.0703ZM15.7031 25.8125C15.7031 26.7868 15.9482 27.7761 16.5275 28.6674C17.0969 29.5437 17.8785 30.1557 18.6933 30.5736C20.236 31.3649 22.169 31.6016 24.1406 31.6016V25.6016C23.3544 25.6016 22.7375 25.5505 22.2673 25.4702C21.7895 25.3885 21.5364 25.2887 21.4317 25.235C21.3403 25.1881 21.4421 25.219 21.5585 25.398C21.6846 25.5921 21.7031 25.7678 21.7031 25.8125H15.7031ZM24.1406 31.6016C26.8505 31.6016 29.3534 31.1173 31.5391 30.0142L28.8359 24.6577C27.6778 25.2421 26.1495 25.6016 24.1406 25.6016V31.6016ZM27.4913 28.6514L34.1007 42.1983L39.4931 39.5674L32.8837 26.0205L27.4913 28.6514ZM35.2257 38.3272C31.7632 40.4559 27.5325 41.5859 22.4062 41.5859V47.5859C28.4363 47.5859 33.7993 46.2473 38.3681 43.4385L35.2257 38.3272ZM22.4062 41.5859C19.4976 41.5859 16.9626 41.116 14.7577 40.2313L12.5236 45.7999C15.5374 47.009 18.8461 47.5859 22.4062 47.5859V41.5859ZM14.7548 40.2302C12.7053 39.4104 10.9969 38.2671 9.58854 36.8075L5.27083 40.9737C7.29998 43.0767 9.73223 44.6834 12.5265 45.8011L14.7548 40.2302ZM9.58053 36.7992C6.8561 33.9973 5.48438 30.588 5.48438 26.375H-0.515625C-0.515625 32.0682 1.40952 37.0027 5.27884 40.982L9.58053 36.7992ZM5.48438 26.375C5.48438 21.7088 7.04957 18.0412 10.1423 15.1296L6.02956 10.761C1.65355 14.8807 -0.515625 20.1662 -0.515625 26.375H5.48438ZM10.1423 15.1296C13.245 12.2087 17.2481 10.6719 22.4062 10.6719V4.67188C15.9394 4.67188 10.3957 6.65063 6.02956 10.761L10.1423 15.1296ZM22.4062 10.6719C27.7556 10.6719 31.9379 11.8334 35.1446 13.9493L38.4491 8.9413C34.0309 6.02597 28.6194 4.67188 22.4062 4.67188V10.6719ZM34.1387 10.0546L27.5293 22.6874L32.8457 25.4689L39.455 12.836L34.1387 10.0546ZM64.8516 43.3672L65.9161 46.172L65.9211 46.1701L64.8516 43.3672ZM51.3516 43.2734L50.2501 46.0639L50.2576 46.0669L51.3516 43.2734ZM41.4141 32.6562L38.5229 33.4572L38.5255 33.4665L38.5282 33.4759L41.4141 32.6562ZM40.4531 8.23438V5.23438H37.4531V8.23438H40.4531ZM56.2969 8.23438H59.2969V5.23438H56.2969V8.23438ZM59.7656 27.7812L56.9496 26.7468L56.947 26.7538L56.9445 26.7608L59.7656 27.7812ZM60.1875 8.23438V5.23438H57.1875V8.23438H60.1875ZM76.0312 8.23438H79.0312V5.23438H76.0312V8.23438ZM73.0312 24.4531C73.0312 30.6205 71.4981 34.6812 68.9646 37.2146L73.2073 41.4573C77.2676 37.397 79.0312 31.5358 79.0312 24.4531H73.0312ZM68.9646 37.2146C67.4849 38.6944 65.7661 39.8072 63.782 40.5643L65.9211 46.1701C68.687 45.1146 71.1245 43.54 73.2073 41.4573L68.9646 37.2146ZM63.787 40.5624C61.9852 41.2463 60.1349 41.5859 58.2188 41.5859V47.5859C60.8651 47.5859 63.4367 47.113 65.9161 46.1719L63.787 40.5624ZM58.2188 41.5859C56.2583 41.5859 54.3398 41.2218 52.4455 40.48L50.2576 46.0669C52.8321 47.0751 55.4917 47.5859 58.2188 47.5859V41.5859ZM52.4531 40.483C50.4406 39.6886 48.7459 38.5814 47.3323 37.1677L43.0896 41.4104C45.1135 43.4342 47.5125 44.9833 50.2501 46.0639L52.4531 40.483ZM47.3323 37.1677C45.9446 35.78 44.9231 34.0306 44.2999 31.8366L38.5282 33.4759C39.4051 36.5632 40.9148 39.2356 43.0896 41.4104L47.3323 37.1677ZM44.3052 31.8553C43.7636 29.9003 43.4531 27.2273 43.4531 23.75H37.4531C37.4531 27.5227 37.7833 30.7872 38.5229 33.4572L44.3052 31.8553ZM43.4531 23.75V8.23438H37.4531V23.75H43.4531ZM40.4531 11.2344H56.2969V5.23438H40.4531V11.2344ZM53.2969 8.23438V24.8047H59.2969V8.23438H53.2969ZM53.2969 24.8047C53.2969 26.2997 53.454 27.8422 54.0399 29.1165C54.3501 29.7912 54.8344 30.5085 55.5907 31.0568C56.3785 31.628 57.28 31.8828 58.1719 31.8828V25.8828C58.4388 25.8828 58.7934 25.9677 59.1125 26.1991C59.2543 26.3019 59.3508 26.4066 59.4106 26.4846C59.4687 26.5605 59.4911 26.6096 59.4913 26.6101C59.4915 26.6104 59.4754 26.5751 59.4525 26.492C59.4298 26.4096 59.4037 26.2924 59.3794 26.1344C59.3303 25.8136 59.2969 25.377 59.2969 24.8047H53.2969ZM58.1719 31.8828C59.0358 31.8828 60.0001 31.6791 60.8737 31.0753C61.7522 30.4681 62.287 29.6304 62.5868 28.8017L56.9445 26.7608C56.9786 26.6665 57.1149 26.3796 57.4622 26.1395C57.8046 25.9029 58.1049 25.8828 58.1719 25.8828V31.8828ZM62.5816 28.8157C63.0729 27.4783 63.1875 25.4665 63.1875 23.3047H57.1875C57.1875 24.3601 57.1537 25.1867 57.0953 25.8064C57.0662 26.1146 57.0332 26.3489 57.0012 26.5198C56.9679 26.6982 56.9442 26.7615 56.9496 26.7468L62.5816 28.8157ZM63.1875 23.3047V8.23438H57.1875V23.3047H63.1875ZM60.1875 11.2344H76.0312V5.23438H60.1875V11.2344ZM73.0312 8.23438V24.4531H79.0312V8.23438H73.0312ZM82.4766 8.23438V5.23438H79.4766V8.23438H82.4766ZM98.3203 8.23438H101.32V5.23438H98.3203V8.23438ZM98.3203 35.0234H95.3203V38.0234H98.3203V35.0234ZM112.195 35.0234H115.195V32.0234H112.195V35.0234ZM112.195 44V47H115.195V44H112.195ZM82.4766 44H79.4766V47H82.4766V44ZM82.4766 11.2344H98.3203V5.23438H82.4766V11.2344ZM95.3203 8.23438V35.0234H101.32V8.23438H95.3203ZM98.3203 38.0234H112.195V32.0234H98.3203V38.0234ZM109.195 35.0234V44H115.195V35.0234H109.195ZM112.195 41H82.4766V47H112.195V41ZM85.4766 44V8.23438H79.4766V44H85.4766ZM113.391 8.23438V5.23438H110.391V8.23438H113.391ZM145.172 8.23438H148.172V5.23438H145.172V8.23438ZM145.172 24.0781V27.0781H148.172V24.0781H145.172ZM137.203 24.0781V21.0781H134.203V24.0781H137.203ZM137.203 44V47H140.203V44H137.203ZM121.359 44H118.359V47H121.359V44ZM121.359 24.0781H124.359V21.0781H121.359V24.0781ZM113.391 24.0781H110.391V27.0781H113.391V24.0781ZM113.391 11.2344H145.172V5.23438H113.391V11.2344ZM142.172 8.23438V24.0781H148.172V8.23438H142.172ZM145.172 21.0781H137.203V27.0781H145.172V21.0781ZM134.203 24.0781V44H140.203V24.0781H134.203ZM137.203 41H121.359V47H137.203V41ZM124.359 44V24.0781H118.359V44H124.359ZM121.359 21.0781H113.391V27.0781H121.359V21.0781ZM116.391 24.0781V8.23438H110.391V24.0781H116.391ZM173.414 43.3672L174.479 46.172L174.484 46.1701L173.414 43.3672ZM159.914 43.2734L158.813 46.0639L158.82 46.0669L159.914 43.2734ZM149.977 32.6562L147.085 33.4572L147.088 33.4665L147.091 33.4759L149.977 32.6562ZM149.016 8.23438V5.23438H146.016V8.23438H149.016ZM164.859 8.23438H167.859V5.23438H164.859V8.23438ZM168.328 27.7812L165.512 26.7468L165.51 26.7538L165.507 26.7608L168.328 27.7812ZM168.75 8.23438V5.23438H165.75V8.23438H168.75ZM184.594 8.23438H187.594V5.23438H184.594V8.23438ZM181.594 24.4531C181.594 30.6205 180.061 34.6812 177.527 37.2146L181.77 41.4573C185.83 37.397 187.594 31.5358 187.594 24.4531H181.594ZM177.527 37.2146C176.047 38.6944 174.329 39.8072 172.345 40.5643L174.484 46.1701C177.25 45.1146 179.687 43.54 181.77 41.4573L177.527 37.2146ZM172.349 40.5624C170.548 41.2463 168.697 41.5859 166.781 41.5859V47.5859C169.428 47.5859 171.999 47.113 174.479 46.1719L172.349 40.5624ZM166.781 41.5859C164.821 41.5859 162.902 41.2218 161.008 40.48L158.82 46.0669C161.395 47.0751 164.054 47.5859 166.781 47.5859V41.5859ZM161.016 40.483C159.003 39.6886 157.308 38.5814 155.895 37.1677L151.652 41.4104C153.676 43.4342 156.075 44.9833 158.813 46.0639L161.016 40.483ZM155.895 37.1677C154.507 35.78 153.486 34.0306 152.862 31.8366L147.091 33.4759C147.968 36.5632 149.477 39.2356 151.652 41.4104L155.895 37.1677ZM152.868 31.8553C152.326 29.9003 152.016 27.2273 152.016 23.75H146.016C146.016 27.5227 146.346 30.7872 147.085 33.4572L152.868 31.8553ZM152.016 23.75V8.23438H146.016V23.75H152.016ZM149.016 11.2344H164.859V5.23438H149.016V11.2344ZM161.859 8.23438V24.8047H167.859V8.23438H161.859ZM161.859 24.8047C161.859 26.2997 162.017 27.8422 162.602 29.1165C162.913 29.7912 163.397 30.5085 164.153 31.0568C164.941 31.628 165.842 31.8828 166.734 31.8828V25.8828C167.001 25.8828 167.356 25.9677 167.675 26.1991C167.817 26.3019 167.913 26.4066 167.973 26.4846C168.031 26.5605 168.054 26.6096 168.054 26.6101C168.054 26.6104 168.038 26.5751 168.015 26.492C167.992 26.4096 167.966 26.2924 167.942 26.1344C167.893 25.8136 167.859 25.377 167.859 24.8047H161.859ZM166.734 31.8828C167.598 31.8828 168.563 31.6791 169.436 31.0753C170.315 30.4681 170.85 29.6304 171.149 28.8017L165.507 26.7608C165.541 26.6665 165.677 26.3796 166.025 26.1395C166.367 25.9029 166.667 25.8828 166.734 25.8828V31.8828ZM171.144 28.8157C171.635 27.4783 171.75 25.4665 171.75 23.3047H165.75C165.75 24.3601 165.716 25.1867 165.658 25.8064C165.629 26.1146 165.596 26.3489 165.564 26.5198C165.53 26.6982 165.507 26.7615 165.512 26.7468L171.144 28.8157ZM171.75 23.3047V8.23438H165.75V23.3047H171.75ZM168.75 11.2344H184.594V5.23438H168.75V11.2344ZM181.594 8.23438V24.4531H187.594V8.23438H181.594ZM224.344 11.5859L226.407 9.40808L226.407 9.4077L224.344 11.5859ZM223.383 26.8672L221.68 24.3975L218.901 26.3138L221.13 28.8484L223.383 26.8672ZM230.297 44V47H233.627L233.281 43.6877L230.297 44ZM213.891 44L210.899 44.2172L211.101 47H213.891V44ZM211.758 33.8047L214.416 32.4149L214.412 32.4066L214.408 32.3982L211.758 33.8047ZM206.93 30.7578V27.7578H203.93V30.7578H206.93ZM206.93 44V47H209.93V44H206.93ZM191.086 44H188.086V47H191.086V44ZM191.086 8.23438V5.23438H188.086V8.23438H191.086ZM206.93 22.4844H203.93V25.4844H206.93V22.4844ZM210.867 16.7891L208.529 18.6687L208.541 18.6835L208.553 18.6982L210.867 16.7891ZM206.93 15.5938V12.5938H203.93V15.5938H206.93ZM214.453 11.2344C218.16 11.2344 220.632 12.2023 222.281 13.7642L226.407 9.4077C223.337 6.50084 219.215 5.23438 214.453 5.23438V11.2344ZM222.281 13.7638C223.743 15.1495 224.461 16.8073 224.461 18.9453H230.461C230.461 15.2084 229.101 11.9599 226.407 9.40808L222.281 13.7638ZM224.461 18.9453C224.461 21.4022 223.556 23.1032 221.68 24.3975L225.086 29.3368C228.647 26.8812 230.461 23.301 230.461 18.9453H224.461ZM221.13 28.8484C224.517 32.6996 226.63 37.7876 227.313 44.3123L233.281 43.6877C232.495 36.1812 229.999 29.8473 225.636 24.886L221.13 28.8484ZM230.297 41H213.891V47H230.297V41ZM216.883 43.7828C216.534 38.9765 215.796 35.0538 214.416 32.4149L209.099 35.1945C209.876 36.6805 210.56 39.5547 210.899 44.2172L216.883 43.7828ZM214.408 32.3982C213.674 31.0168 212.674 29.8221 211.343 28.9825C210.001 28.1356 208.494 27.7578 206.93 27.7578V33.7578C207.506 33.7578 207.874 33.8878 208.141 34.0566C208.42 34.2326 208.763 34.5613 209.108 35.2112L214.408 32.3982ZM203.93 30.7578V44H209.93V30.7578H203.93ZM206.93 41H191.086V47H206.93V41ZM194.086 44V8.23438H188.086V44H194.086ZM191.086 11.2344H214.453V5.23438H191.086V11.2344ZM206.93 25.4844H207.352V19.4844H206.93V25.4844ZM207.352 25.4844C209.09 25.4844 210.946 25.1588 212.416 24.0104C214.026 22.752 214.641 20.9369 214.641 19.1328H208.641C208.641 19.376 208.602 19.4493 208.613 19.422C208.632 19.3767 208.677 19.3168 208.721 19.2826C208.75 19.2602 208.697 19.3131 208.472 19.3718C208.242 19.4316 207.881 19.4844 207.352 19.4844V25.4844ZM214.641 19.1328C214.641 17.6138 214.208 16.125 213.181 14.8799L208.553 18.6982C208.557 18.7032 208.641 18.7768 208.641 19.1328H214.641ZM213.205 14.9094C211.827 13.195 209.836 12.5938 207.891 12.5938V18.5938C208.274 18.5938 208.462 18.6515 208.525 18.6765C208.566 18.6931 208.546 18.69 208.529 18.6687L213.205 14.9094ZM207.891 12.5938H206.93V18.5938H207.891V12.5938ZM203.93 15.5938V22.4844H209.93V15.5938H203.93ZM263.836 44V47H266.836V44H263.836ZM234.117 44H231.117V47H234.117V44ZM234.117 8.23438V5.23438H231.117V8.23438H234.117ZM263.836 8.23438H266.836V5.23438H263.836V8.23438ZM263.836 17.2109V20.2109H266.836V17.2109H263.836ZM249.961 17.2109V14.2109H246.961V17.2109H249.961ZM249.961 21.6406H246.961V24.6406H249.961V21.6406ZM259.594 21.6406H262.594V18.6406H259.594V21.6406ZM259.594 30.6172V33.6172H262.594V30.6172H259.594ZM249.961 30.6172V27.6172H246.961V30.6172H249.961ZM249.961 35.0234H246.961V38.0234H249.961V35.0234ZM263.836 35.0234H266.836V32.0234H263.836V35.0234ZM263.836 41H234.117V47H263.836V41ZM237.117 44V8.23438H231.117V44H237.117ZM234.117 11.2344H263.836V5.23438H234.117V11.2344ZM260.836 8.23438V17.2109H266.836V8.23438H260.836ZM263.836 14.2109H249.961V20.2109H263.836V14.2109ZM246.961 17.2109V21.6406H252.961V17.2109H246.961ZM249.961 24.6406H259.594V18.6406H249.961V24.6406ZM256.594 21.6406V30.6172H262.594V21.6406H256.594ZM259.594 27.6172H249.961V33.6172H259.594V27.6172ZM246.961 30.6172V35.0234H252.961V30.6172H246.961ZM249.961 38.0234H263.836V32.0234H249.961V38.0234ZM260.836 35.0234V44H266.836V35.0234H260.836Z" fill="black" mask="url(#path-1-outside-1_2002_13)"/>
</svg>
