<svg width="381" height="55" viewBox="0 0 381 55" fill="none" xmlns="http://www.w3.org/2000/svg">
<mask id="path-1-outside-1_2002_14" maskUnits="userSpaceOnUse" x="4" y="4" width="373" height="44" fill="black">
<rect fill="white" x="4" y="4" width="373" height="44"/>
<path d="M35.1875 24.0781C33.2656 23.4062 31.1172 23.0703 28.7422 23.0703C25.3828 23.0703 23.7031 23.9844 23.7031 25.8125C23.7031 27.6719 25.5156 28.6016 29.1406 28.6016C31.5 28.6016 33.5156 28.1797 35.1875 27.3359L41.7969 40.8828C37.7812 43.3516 32.9844 44.5859 27.4062 44.5859C24.1719 44.5859 21.25 44.0625 18.6406 43.0156C16.2188 42.0469 14.1484 40.6719 12.4297 38.8906C9.13281 35.5 7.48438 31.3281 7.48438 26.375C7.48438 20.9375 9.35156 16.4609 13.0859 12.9453C16.8203 9.42969 21.5938 7.67188 27.4062 7.67188C33.1875 7.67188 37.9844 8.92969 41.7969 11.4453L35.1875 24.0781ZM47.3984 7.92969H82.7422L83.0234 8.21094V43.5547L82.7422 43.8359H47.3984L47.1172 43.5547V8.21094L47.3984 7.92969ZM61.6719 22.4844V29.4219H68.6094V22.4844H61.6719ZM89.6328 8.23438H104.984L111.477 15.6875L117.945 8.23438H133.32V44H117.477V26.0938L111.477 33.0078L105.477 26.0938V44H89.6328V8.23438ZM140.117 8.23438H155.469L161.961 15.6875L168.43 8.23438H183.805V44H167.961V26.0938L161.961 33.0078L155.961 26.0938V44H140.117V8.23438ZM225.734 24.4531C225.734 31.0781 224.086 36.0391 220.789 39.3359C219.008 41.1172 216.93 42.4609 214.555 43.3672C212.414 44.1797 210.203 44.5859 207.922 44.5859C205.578 44.5859 203.289 44.1484 201.055 43.2734C198.68 42.3359 196.633 41.0078 194.914 39.2891C193.133 37.5078 191.867 35.2969 191.117 32.6562C190.477 30.3438 190.156 27.375 190.156 23.75V8.23438H206V24.8047C206 27.5234 206.625 28.8828 207.875 28.8828C208.672 28.8828 209.203 28.5156 209.469 27.7812C209.75 27.0156 209.891 25.5234 209.891 23.3047V8.23438H225.734V24.4531ZM232.227 8.23438H243.547L251.82 20.1875H251.914V8.23438H267.758V44.2812H255.758L248.164 33.1484H248.07V44H232.227V8.23438ZM274.789 8.23438H290.633V44H274.789V8.23438ZM295.016 8.23438H326.797V24.0781H318.828V44H302.984V24.0781H295.016V8.23438ZM341.516 44V28.3906L327.875 8.23438H343.906L349.438 16.3438L354.945 8.23438H370.977L357.336 28.3906V44H341.516Z"/>
</mask>
<path d="M35.1875 24.0781C33.2656 23.4062 31.1172 23.0703 28.7422 23.0703C25.3828 23.0703 23.7031 23.9844 23.7031 25.8125C23.7031 27.6719 25.5156 28.6016 29.1406 28.6016C31.5 28.6016 33.5156 28.1797 35.1875 27.3359L41.7969 40.8828C37.7812 43.3516 32.9844 44.5859 27.4062 44.5859C24.1719 44.5859 21.25 44.0625 18.6406 43.0156C16.2188 42.0469 14.1484 40.6719 12.4297 38.8906C9.13281 35.5 7.48438 31.3281 7.48438 26.375C7.48438 20.9375 9.35156 16.4609 13.0859 12.9453C16.8203 9.42969 21.5938 7.67188 27.4062 7.67188C33.1875 7.67188 37.9844 8.92969 41.7969 11.4453L35.1875 24.0781ZM47.3984 7.92969H82.7422L83.0234 8.21094V43.5547L82.7422 43.8359H47.3984L47.1172 43.5547V8.21094L47.3984 7.92969ZM61.6719 22.4844V29.4219H68.6094V22.4844H61.6719ZM89.6328 8.23438H104.984L111.477 15.6875L117.945 8.23438H133.32V44H117.477V26.0938L111.477 33.0078L105.477 26.0938V44H89.6328V8.23438ZM140.117 8.23438H155.469L161.961 15.6875L168.43 8.23438H183.805V44H167.961V26.0938L161.961 33.0078L155.961 26.0938V44H140.117V8.23438ZM225.734 24.4531C225.734 31.0781 224.086 36.0391 220.789 39.3359C219.008 41.1172 216.93 42.4609 214.555 43.3672C212.414 44.1797 210.203 44.5859 207.922 44.5859C205.578 44.5859 203.289 44.1484 201.055 43.2734C198.68 42.3359 196.633 41.0078 194.914 39.2891C193.133 37.5078 191.867 35.2969 191.117 32.6562C190.477 30.3438 190.156 27.375 190.156 23.75V8.23438H206V24.8047C206 27.5234 206.625 28.8828 207.875 28.8828C208.672 28.8828 209.203 28.5156 209.469 27.7812C209.75 27.0156 209.891 25.5234 209.891 23.3047V8.23438H225.734V24.4531ZM232.227 8.23438H243.547L251.82 20.1875H251.914V8.23438H267.758V44.2812H255.758L248.164 33.1484H248.07V44H232.227V8.23438ZM274.789 8.23438H290.633V44H274.789V8.23438ZM295.016 8.23438H326.797V24.0781H318.828V44H302.984V24.0781H295.016V8.23438ZM341.516 44V28.3906L327.875 8.23438H343.906L349.438 16.3438L354.945 8.23438H370.977L357.336 28.3906V44H341.516Z" fill="white"/>
<path d="M35.1875 24.0781L34.1975 26.9101L36.6441 27.7654L37.8457 25.4689L35.1875 24.0781ZM35.1875 27.3359L37.8837 26.0205L36.5504 23.2877L33.8359 24.6577L35.1875 27.3359ZM41.7969 40.8828L43.3681 43.4385L45.6864 42.0132L44.4931 39.5674L41.7969 40.8828ZM18.6406 43.0156L19.7577 40.2313L19.7548 40.2302L18.6406 43.0156ZM12.4297 38.8906L14.5886 36.8075L14.5805 36.7992L12.4297 38.8906ZM41.7969 11.4453L44.455 12.836L45.7117 10.4342L43.4491 8.9413L41.7969 11.4453ZM36.1775 21.2462C33.8894 20.4463 31.3993 20.0703 28.7422 20.0703V26.0703C30.8351 26.0703 32.6419 26.3662 34.1975 26.9101L36.1775 21.2462ZM28.7422 20.0703C26.8886 20.0703 25.0268 20.3056 23.5289 21.1208C22.7349 21.5529 21.9923 22.1765 21.4598 23.0458C20.923 23.9222 20.7031 24.8799 20.7031 25.8125H26.7031C26.7031 25.831 26.6932 25.989 26.5763 26.1798C26.4637 26.3636 26.3511 26.4159 26.3969 26.391C26.4591 26.3571 26.658 26.2688 27.073 26.1935C27.4815 26.1194 28.0299 26.0703 28.7422 26.0703V20.0703ZM20.7031 25.8125C20.7031 26.7868 20.9482 27.7761 21.5275 28.6674C22.0969 29.5437 22.8785 30.1557 23.6933 30.5736C25.236 31.3649 27.169 31.6016 29.1406 31.6016V25.6016C28.3544 25.6016 27.7375 25.5505 27.2673 25.4702C26.7895 25.3885 26.5364 25.2887 26.4317 25.235C26.3403 25.1881 26.4421 25.219 26.5585 25.398C26.6846 25.5921 26.7031 25.7678 26.7031 25.8125H20.7031ZM29.1406 31.6016C31.8505 31.6016 34.3534 31.1173 36.5391 30.0142L33.8359 24.6577C32.6778 25.2421 31.1495 25.6016 29.1406 25.6016V31.6016ZM32.4913 28.6514L39.1007 42.1983L44.4931 39.5674L37.8837 26.0205L32.4913 28.6514ZM40.2257 38.3272C36.7632 40.4559 32.5325 41.5859 27.4062 41.5859V47.5859C33.4363 47.5859 38.7993 46.2473 43.3681 43.4385L40.2257 38.3272ZM27.4062 41.5859C24.4976 41.5859 21.9626 41.116 19.7577 40.2313L17.5236 45.7999C20.5374 47.009 23.8461 47.5859 27.4062 47.5859V41.5859ZM19.7548 40.2302C17.7053 39.4104 15.9969 38.2671 14.5885 36.8075L10.2708 40.9737C12.3 43.0767 14.7322 44.6834 17.5265 45.8011L19.7548 40.2302ZM14.5805 36.7992C11.8561 33.9973 10.4844 30.588 10.4844 26.375H4.48438C4.48438 32.0682 6.40952 37.0027 10.2788 40.982L14.5805 36.7992ZM10.4844 26.375C10.4844 21.7088 12.0496 18.0412 15.1423 15.1296L11.0296 10.761C6.65355 14.8807 4.48438 20.1662 4.48438 26.375H10.4844ZM15.1423 15.1296C18.245 12.2087 22.2481 10.6719 27.4062 10.6719V4.67188C20.9394 4.67188 15.3957 6.65063 11.0296 10.761L15.1423 15.1296ZM27.4062 10.6719C32.7556 10.6719 36.9379 11.8334 40.1446 13.9493L43.4491 8.9413C39.0309 6.02597 33.6194 4.67188 27.4062 4.67188V10.6719ZM39.1387 10.0546L32.5293 22.6874L37.8457 25.4689L44.455 12.836L39.1387 10.0546ZM47.3984 7.92969V4.92969H46.1558L45.2771 5.80837L47.3984 7.92969ZM82.7422 7.92969L84.8635 5.80837L83.9848 4.92969H82.7422V7.92969ZM83.0234 8.21094H86.0234V6.9683L85.1448 6.08962L83.0234 8.21094ZM83.0234 43.5547L85.1448 45.676L86.0234 44.7973V43.5547H83.0234ZM82.7422 43.8359V46.8359H83.9848L84.8635 45.9573L82.7422 43.8359ZM47.3984 43.8359L45.2771 45.9573L46.1558 46.8359H47.3984V43.8359ZM47.1172 43.5547H44.1172V44.7973L44.9959 45.676L47.1172 43.5547ZM47.1172 8.21094L44.9959 6.08962L44.1172 6.9683V8.21094H47.1172ZM61.6719 22.4844V19.4844H58.6719V22.4844H61.6719ZM61.6719 29.4219H58.6719V32.4219H61.6719V29.4219ZM68.6094 29.4219V32.4219H71.6094V29.4219H68.6094ZM68.6094 22.4844H71.6094V19.4844H68.6094V22.4844ZM47.3984 10.9297H82.7422V4.92969H47.3984V10.9297ZM80.6209 10.051L80.9021 10.3323L85.1448 6.08962L84.8635 5.80837L80.6209 10.051ZM80.0234 8.21094V43.5547H86.0234V8.21094H80.0234ZM80.9021 41.4334L80.6209 41.7146L84.8635 45.9573L85.1448 45.676L80.9021 41.4334ZM82.7422 40.8359H47.3984V46.8359H82.7422V40.8359ZM49.5198 41.7146L49.2385 41.4334L44.9959 45.676L45.2771 45.9573L49.5198 41.7146ZM50.1172 43.5547V8.21094H44.1172V43.5547H50.1172ZM49.2385 10.3323L49.5198 10.051L45.2771 5.80837L44.9959 6.08962L49.2385 10.3323ZM58.6719 22.4844V29.4219H64.6719V22.4844H58.6719ZM61.6719 32.4219H68.6094V26.4219H61.6719V32.4219ZM71.6094 29.4219V22.4844H65.6094V29.4219H71.6094ZM68.6094 19.4844H61.6719V25.4844H68.6094V19.4844ZM89.6328 8.23438V5.23438H86.6328V8.23438H89.6328ZM104.984 8.23438L107.247 6.2639L106.35 5.23438H104.984V8.23438ZM111.477 15.6875L109.214 17.658L111.481 20.2596L113.742 17.6539L111.477 15.6875ZM117.945 8.23438V5.23438H116.577L115.68 6.26796L117.945 8.23438ZM133.32 8.23438H136.32V5.23438H133.32V8.23438ZM133.32 44V47H136.32V44H133.32ZM117.477 44H114.477V47H117.477V44ZM117.477 26.0938H120.477V18.0595L115.211 24.1275L117.477 26.0938ZM111.477 33.0078L109.211 34.9741L111.477 37.585L113.742 34.9741L111.477 33.0078ZM105.477 26.0938L107.742 24.1275L102.477 18.0595V26.0938H105.477ZM105.477 44V47H108.477V44H105.477ZM89.6328 44H86.6328V47H89.6328V44ZM89.6328 11.2344H104.984V5.23438H89.6328V11.2344ZM102.722 10.2048L109.214 17.658L113.739 13.717L107.247 6.2639L102.722 10.2048ZM113.742 17.6539L120.211 10.2008L115.68 6.26796L109.211 13.7211L113.742 17.6539ZM117.945 11.2344H133.32V5.23438H117.945V11.2344ZM130.32 8.23438V44H136.32V8.23438H130.32ZM133.32 41H117.477V47H133.32V41ZM120.477 44V26.0938H114.477V44H120.477ZM115.211 24.1275L109.211 31.0416L113.742 34.9741L119.742 28.06L115.211 24.1275ZM113.742 31.0416L107.742 24.1275L103.211 28.06L109.211 34.9741L113.742 31.0416ZM102.477 26.0938V44H108.477V26.0938H102.477ZM105.477 41H89.6328V47H105.477V41ZM92.6328 44V8.23438H86.6328V44H92.6328ZM140.117 8.23438V5.23438H137.117V8.23438H140.117ZM155.469 8.23438L157.731 6.2639L156.834 5.23438H155.469V8.23438ZM161.961 15.6875L159.699 17.658L161.965 20.2596L164.227 17.6539L161.961 15.6875ZM168.43 8.23438V5.23438H167.061L166.164 6.26796L168.43 8.23438ZM183.805 8.23438H186.805V5.23438H183.805V8.23438ZM183.805 44V47H186.805V44H183.805ZM167.961 44H164.961V47H167.961V44ZM167.961 26.0938H170.961V18.0595L165.695 24.1275L167.961 26.0938ZM161.961 33.0078L159.695 34.9741L161.961 37.585L164.227 34.9741L161.961 33.0078ZM155.961 26.0938L158.227 24.1275L152.961 18.0595V26.0938H155.961ZM155.961 44V47H158.961V44H155.961ZM140.117 44H137.117V47H140.117V44ZM140.117 11.2344H155.469V5.23438H140.117V11.2344ZM153.207 10.2048L159.699 17.658L164.223 13.717L157.731 6.2639L153.207 10.2048ZM164.227 17.6539L170.695 10.2008L166.164 6.26796L159.695 13.7211L164.227 17.6539ZM168.43 11.2344H183.805V5.23438H168.43V11.2344ZM180.805 8.23438V44H186.805V8.23438H180.805ZM183.805 41H167.961V47H183.805V41ZM170.961 44V26.0938H164.961V44H170.961ZM165.695 24.1275L159.695 31.0416L164.227 34.9741L170.227 28.06L165.695 24.1275ZM164.227 31.0416L158.227 24.1275L153.695 28.06L159.695 34.9741L164.227 31.0416ZM152.961 26.0938V44H158.961V26.0938H152.961ZM155.961 41H140.117V47H155.961V41ZM143.117 44V8.23438H137.117V44H143.117ZM214.555 43.3672L215.619 46.172L215.624 46.1701L214.555 43.3672ZM201.055 43.2734L199.953 46.0639L199.961 46.0669L201.055 43.2734ZM191.117 32.6562L188.226 33.4572L188.229 33.4665L188.231 33.4759L191.117 32.6562ZM190.156 8.23438V5.23438H187.156V8.23438H190.156ZM206 8.23438H209V5.23438H206V8.23438ZM209.469 27.7812L206.653 26.7468L206.65 26.7538L206.648 26.7608L209.469 27.7812ZM209.891 8.23438V5.23438H206.891V8.23438H209.891ZM225.734 8.23438H228.734V5.23438H225.734V8.23438ZM222.734 24.4531C222.734 30.6205 221.201 34.6812 218.668 37.2146L222.91 41.4573C226.971 37.397 228.734 31.5358 228.734 24.4531H222.734ZM218.668 37.2146C217.188 38.6944 215.469 39.8072 213.485 40.5643L215.624 46.1701C218.39 45.1146 220.828 43.54 222.91 41.4573L218.668 37.2146ZM213.49 40.5624C211.688 41.2463 209.838 41.5859 207.922 41.5859V47.5859C210.568 47.5859 213.14 47.113 215.619 46.1719L213.49 40.5624ZM207.922 41.5859C205.961 41.5859 204.043 41.2218 202.149 40.48L199.961 46.0669C202.535 47.0751 205.195 47.5859 207.922 47.5859V41.5859ZM202.156 40.483C200.144 39.6886 198.449 38.5814 197.035 37.1677L192.793 41.4104C194.817 43.4342 197.216 44.9833 199.953 46.0639L202.156 40.483ZM197.035 37.1677C195.648 35.78 194.626 34.0306 194.003 31.8366L188.231 33.4759C189.108 36.5632 190.618 39.2356 192.793 41.4104L197.035 37.1677ZM194.008 31.8553C193.467 29.9003 193.156 27.2273 193.156 23.75H187.156C187.156 27.5227 187.486 30.7872 188.226 33.4572L194.008 31.8553ZM193.156 23.75V8.23438H187.156V23.75H193.156ZM190.156 11.2344H206V5.23438H190.156V11.2344ZM203 8.23438V24.8047H209V8.23438H203ZM203 24.8047C203 26.2997 203.157 27.8422 203.743 29.1165C204.053 29.7912 204.538 30.5085 205.294 31.0568C206.082 31.628 206.983 31.8828 207.875 31.8828V25.8828C208.142 25.8828 208.496 25.9677 208.816 26.1991C208.957 26.3019 209.054 26.4066 209.114 26.4846C209.172 26.5605 209.194 26.6096 209.194 26.6101C209.195 26.6104 209.179 26.5751 209.156 26.492C209.133 26.4096 209.107 26.2924 209.083 26.1344C209.033 25.8136 209 25.377 209 24.8047H203ZM207.875 31.8828C208.739 31.8828 209.703 31.6791 210.577 31.0753C211.455 30.4681 211.99 29.6304 212.29 28.8017L206.648 26.7608C206.682 26.6665 206.818 26.3796 207.165 26.1395C207.508 25.9029 207.808 25.8828 207.875 25.8828V31.8828ZM212.285 28.8157C212.776 27.4783 212.891 25.4665 212.891 23.3047H206.891C206.891 24.3601 206.857 25.1867 206.798 25.8064C206.769 26.1146 206.736 26.3489 206.704 26.5198C206.671 26.6982 206.647 26.7615 206.653 26.7468L212.285 28.8157ZM212.891 23.3047V8.23438H206.891V23.3047H212.891ZM209.891 11.2344H225.734V5.23438H209.891V11.2344ZM222.734 8.23438V24.4531H228.734V8.23438H222.734ZM232.227 8.23438V5.23438H229.227V8.23438H232.227ZM243.547 8.23438L246.014 6.527L245.119 5.23438H243.547V8.23438ZM251.82 20.1875L249.354 21.8949L250.248 23.1875H251.82V20.1875ZM251.914 20.1875V23.1875H254.914V20.1875H251.914ZM251.914 8.23438V5.23438H248.914V8.23438H251.914ZM267.758 8.23438H270.758V5.23438H267.758V8.23438ZM267.758 44.2812V47.2812H270.758V44.2812H267.758ZM255.758 44.2812L253.279 45.9717L254.173 47.2812H255.758V44.2812ZM248.164 33.1484L250.642 31.4579L249.749 30.1484H248.164V33.1484ZM248.07 33.1484V30.1484H245.07V33.1484H248.07ZM248.07 44V47H251.07V44H248.07ZM232.227 44H229.227V47H232.227V44ZM232.227 11.2344H243.547V5.23438H232.227V11.2344ZM241.08 9.94175L249.354 21.8949L254.287 18.4801L246.014 6.527L241.08 9.94175ZM251.82 23.1875H251.914V17.1875H251.82V23.1875ZM254.914 20.1875V8.23438H248.914V20.1875H254.914ZM251.914 11.2344H267.758V5.23438H251.914V11.2344ZM264.758 8.23438V44.2812H270.758V8.23438H264.758ZM267.758 41.2812H255.758V47.2812H267.758V41.2812ZM258.236 42.5908L250.642 31.4579L245.686 34.8389L253.279 45.9717L258.236 42.5908ZM248.164 30.1484H248.07V36.1484H248.164V30.1484ZM245.07 33.1484V44H251.07V33.1484H245.07ZM248.07 41H232.227V47H248.07V41ZM235.227 44V8.23438H229.227V44H235.227ZM274.789 8.23438V5.23438H271.789V8.23438H274.789ZM290.633 8.23438H293.633V5.23438H290.633V8.23438ZM290.633 44V47H293.633V44H290.633ZM274.789 44H271.789V47H274.789V44ZM274.789 11.2344H290.633V5.23438H274.789V11.2344ZM287.633 8.23438V44H293.633V8.23438H287.633ZM290.633 41H274.789V47H290.633V41ZM277.789 44V8.23438H271.789V44H277.789ZM295.016 8.23438V5.23438H292.016V8.23438H295.016ZM326.797 8.23438H329.797V5.23438H326.797V8.23438ZM326.797 24.0781V27.0781H329.797V24.0781H326.797ZM318.828 24.0781V21.0781H315.828V24.0781H318.828ZM318.828 44V47H321.828V44H318.828ZM302.984 44H299.984V47H302.984V44ZM302.984 24.0781H305.984V21.0781H302.984V24.0781ZM295.016 24.0781H292.016V27.0781H295.016V24.0781ZM295.016 11.2344H326.797V5.23438H295.016V11.2344ZM323.797 8.23438V24.0781H329.797V8.23438H323.797ZM326.797 21.0781H318.828V27.0781H326.797V21.0781ZM315.828 24.0781V44H321.828V24.0781H315.828ZM318.828 41H302.984V47H318.828V41ZM305.984 44V24.0781H299.984V44H305.984ZM302.984 21.0781H295.016V27.0781H302.984V21.0781ZM298.016 24.0781V8.23438H292.016V24.0781H298.016ZM341.516 44H338.516V47H341.516V44ZM341.516 28.3906H344.516V27.4709L344 26.7092L341.516 28.3906ZM327.875 8.23438V5.23438H322.222L325.39 9.91577L327.875 8.23438ZM343.906 8.23438L346.385 6.54392L345.491 5.23438H343.906V8.23438ZM349.438 16.3438L346.959 18.0342L349.443 21.6755L351.919 18.0293L349.438 16.3438ZM354.945 8.23438V5.23438H353.356L352.464 6.54882L354.945 8.23438ZM370.977 8.23438L373.461 9.91577L376.629 5.23438H370.977V8.23438ZM357.336 28.3906L354.851 26.7092L354.336 27.4709V28.3906H357.336ZM357.336 44V47H360.336V44H357.336ZM344.516 44V28.3906H338.516V44H344.516ZM344 26.7092L330.36 6.55298L325.39 9.91577L339.031 30.072L344 26.7092ZM327.875 11.2344H343.906V5.23438H327.875V11.2344ZM341.428 9.92483L346.959 18.0342L351.916 14.6533L346.385 6.54392L341.428 9.92483ZM351.919 18.0293L357.427 9.91993L352.464 6.54882L346.956 14.6582L351.919 18.0293ZM354.945 11.2344H370.977V5.23438H354.945V11.2344ZM368.492 6.55298L354.851 26.7092L359.82 30.072L373.461 9.91577L368.492 6.55298ZM354.336 28.3906V44H360.336V28.3906H354.336ZM357.336 41H341.516V47H357.336V41Z" fill="black" mask="url(#path-1-outside-1_2002_14)"/>
</svg>
