<svg width="220" height="55" viewBox="0 0 220 55" fill="none" xmlns="http://www.w3.org/2000/svg">
<mask id="path-1-outside-1_2002_15" maskUnits="userSpaceOnUse" x="2" y="4" width="220" height="43" fill="black">
<rect fill="white" x="2" y="4" width="220" height="43"/>
<path d="M5.84375 8.23438H37.625V24.0781H29.6562V44H13.8125V24.0781H5.84375V8.23438ZM43.4141 7.92969H78.7578L79.0391 8.21094V43.5547L78.7578 43.8359H43.4141L43.1328 43.5547V8.21094L43.4141 7.92969ZM57.6875 22.4844V29.4219H64.625V22.4844H57.6875ZM103.414 8.23438C106.977 8.23438 110.125 8.82031 112.859 9.99219C115.297 11.0391 117.344 12.5156 119 14.4219C120.453 16.1094 121.547 18.0547 122.281 20.2578C122.938 22.1953 123.266 24.1719 123.266 26.1875C123.266 28.1719 122.945 30.1172 122.305 32.0234C121.57 34.2109 120.477 36.1406 119.023 37.8125C117.352 39.7188 115.273 41.1953 112.789 42.2422C109.977 43.4141 106.719 44 103.016 44H85.7891V8.23438H103.414ZM101.633 30.3125H102.008C105.633 30.3125 107.445 28.8906 107.445 26.0469C107.445 23.2969 105.844 21.9219 102.641 21.9219H101.633V30.3125ZM124.766 44L137.188 8.23438H159.758L172.18 44H156.359L154.297 37.9531H142.672L140.609 44H124.766ZM148.531 20.7734H148.438L145.555 29.5156H151.414L148.531 20.7734ZM186.078 44V28.3906L172.438 8.23438H188.469L194 16.3438L199.508 8.23438H215.539L201.898 28.3906V44H186.078Z"/>
</mask>
<path d="M5.84375 8.23438H37.625V24.0781H29.6562V44H13.8125V24.0781H5.84375V8.23438ZM43.4141 7.92969H78.7578L79.0391 8.21094V43.5547L78.7578 43.8359H43.4141L43.1328 43.5547V8.21094L43.4141 7.92969ZM57.6875 22.4844V29.4219H64.625V22.4844H57.6875ZM103.414 8.23438C106.977 8.23438 110.125 8.82031 112.859 9.99219C115.297 11.0391 117.344 12.5156 119 14.4219C120.453 16.1094 121.547 18.0547 122.281 20.2578C122.938 22.1953 123.266 24.1719 123.266 26.1875C123.266 28.1719 122.945 30.1172 122.305 32.0234C121.57 34.2109 120.477 36.1406 119.023 37.8125C117.352 39.7188 115.273 41.1953 112.789 42.2422C109.977 43.4141 106.719 44 103.016 44H85.7891V8.23438H103.414ZM101.633 30.3125H102.008C105.633 30.3125 107.445 28.8906 107.445 26.0469C107.445 23.2969 105.844 21.9219 102.641 21.9219H101.633V30.3125ZM124.766 44L137.188 8.23438H159.758L172.18 44H156.359L154.297 37.9531H142.672L140.609 44H124.766ZM148.531 20.7734H148.438L145.555 29.5156H151.414L148.531 20.7734ZM186.078 44V28.3906L172.438 8.23438H188.469L194 16.3438L199.508 8.23438H215.539L201.898 28.3906V44H186.078Z" fill="white"/>
<path d="M5.84375 8.23438V5.23438H2.84375V8.23438H5.84375ZM37.625 8.23438H40.625V5.23438H37.625V8.23438ZM37.625 24.0781V27.0781H40.625V24.0781H37.625ZM29.6562 24.0781V21.0781H26.6562V24.0781H29.6562ZM29.6562 44V47H32.6562V44H29.6562ZM13.8125 44H10.8125V47H13.8125V44ZM13.8125 24.0781H16.8125V21.0781H13.8125V24.0781ZM5.84375 24.0781H2.84375V27.0781H5.84375V24.0781ZM5.84375 11.2344H37.625V5.23438H5.84375V11.2344ZM34.625 8.23438V24.0781H40.625V8.23438H34.625ZM37.625 21.0781H29.6562V27.0781H37.625V21.0781ZM26.6562 24.0781V44H32.6562V24.0781H26.6562ZM29.6562 41H13.8125V47H29.6562V41ZM16.8125 44V24.0781H10.8125V44H16.8125ZM13.8125 21.0781H5.84375V27.0781H13.8125V21.0781ZM8.84375 24.0781V8.23438H2.84375V24.0781H8.84375ZM43.4141 7.92969V4.92969H42.1714L41.2927 5.80837L43.4141 7.92969ZM78.7578 7.92969L80.8791 5.80837L80.0005 4.92969H78.7578V7.92969ZM79.0391 8.21094H82.0391V6.9683L81.1604 6.08962L79.0391 8.21094ZM79.0391 43.5547L81.1604 45.676L82.0391 44.7973V43.5547H79.0391ZM78.7578 43.8359V46.8359H80.0005L80.8791 45.9573L78.7578 43.8359ZM43.4141 43.8359L41.2927 45.9573L42.1714 46.8359H43.4141V43.8359ZM43.1328 43.5547H40.1328V44.7973L41.0115 45.676L43.1328 43.5547ZM43.1328 8.21094L41.0115 6.08962L40.1328 6.9683V8.21094H43.1328ZM57.6875 22.4844V19.4844H54.6875V22.4844H57.6875ZM57.6875 29.4219H54.6875V32.4219H57.6875V29.4219ZM64.625 29.4219V32.4219H67.625V29.4219H64.625ZM64.625 22.4844H67.625V19.4844H64.625V22.4844ZM43.4141 10.9297H78.7578V4.92969H43.4141V10.9297ZM76.6365 10.051L76.9177 10.3323L81.1604 6.08962L80.8791 5.80837L76.6365 10.051ZM76.0391 8.21094V43.5547H82.0391V8.21094H76.0391ZM76.9177 41.4334L76.6365 41.7146L80.8791 45.9573L81.1604 45.676L76.9177 41.4334ZM78.7578 40.8359H43.4141V46.8359H78.7578V40.8359ZM45.5354 41.7146L45.2541 41.4334L41.0115 45.676L41.2927 45.9573L45.5354 41.7146ZM46.1328 43.5547V8.21094H40.1328V43.5547H46.1328ZM45.2541 10.3323L45.5354 10.051L41.2927 5.80837L41.0115 6.08962L45.2541 10.3323ZM54.6875 22.4844V29.4219H60.6875V22.4844H54.6875ZM57.6875 32.4219H64.625V26.4219H57.6875V32.4219ZM67.625 29.4219V22.4844H61.625V29.4219H67.625ZM64.625 19.4844H57.6875V25.4844H64.625V19.4844ZM112.859 9.99219L114.043 7.23567L114.041 7.23475L112.859 9.99219ZM119 14.4219L121.273 12.4643L121.265 12.4543L119 14.4219ZM122.281 20.2578L119.435 21.2065L119.437 21.2134L119.44 21.2202L122.281 20.2578ZM122.305 32.0234L119.461 31.0678L119.461 31.0687L122.305 32.0234ZM119.023 37.8125L121.279 39.7906L121.288 39.7805L119.023 37.8125ZM112.789 42.2422L113.943 45.0114L113.954 45.0068L112.789 42.2422ZM85.7891 44H82.7891V47H85.7891V44ZM85.7891 8.23438V5.23438H82.7891V8.23438H85.7891ZM101.633 30.3125H98.6328V33.3125H101.633V30.3125ZM101.633 21.9219V18.9219H98.6328V21.9219H101.633ZM103.414 11.2344C106.649 11.2344 109.383 11.7661 111.678 12.7496L114.041 7.23475C110.867 5.8745 107.304 5.23438 103.414 5.23438V11.2344ZM111.675 12.7487C113.719 13.6266 115.39 14.8415 116.735 16.3895L121.265 12.4543C119.297 10.1898 116.874 8.45156 114.043 7.23567L111.675 12.7487ZM116.727 16.3794C117.914 17.7585 118.819 19.3576 119.435 21.2065L125.127 19.3091C124.275 16.7518 122.992 14.4603 121.273 12.4643L116.727 16.3794ZM119.44 21.2202C119.993 22.8524 120.266 24.5041 120.266 26.1875H126.266C126.266 23.8397 125.882 21.5382 125.123 19.2954L119.44 21.2202ZM120.266 26.1875C120.266 27.8426 120 29.4653 119.461 31.0678L125.148 32.9791C125.891 30.7691 126.266 28.5012 126.266 26.1875H120.266ZM119.461 31.0687C118.846 32.8995 117.944 34.4815 116.759 35.8445L121.288 39.7805C123.009 37.7998 124.295 35.5223 125.149 32.9782L119.461 31.0687ZM116.768 35.8344C115.414 37.3779 113.717 38.5956 111.624 39.4776L113.954 45.0068C116.83 43.795 119.289 42.0596 121.279 39.7906L116.768 35.8344ZM111.635 39.473C109.258 40.4635 106.406 41 103.016 41V47C107.032 47 110.695 46.3646 113.943 45.0114L111.635 39.473ZM103.016 41H85.7891V47H103.016V41ZM88.7891 44V8.23438H82.7891V44H88.7891ZM85.7891 11.2344H103.414V5.23438H85.7891V11.2344ZM101.633 33.3125H102.008V27.3125H101.633V33.3125ZM102.008 33.3125C104.131 33.3125 106.276 32.91 107.938 31.6065C109.738 30.1942 110.445 28.1515 110.445 26.0469H104.445C104.445 26.4438 104.382 26.6518 104.344 26.7399C104.315 26.8098 104.286 26.8448 104.234 26.8857C104.083 27.0041 103.51 27.3125 102.008 27.3125V33.3125ZM110.445 26.0469C110.445 24.0798 109.851 22.0959 108.198 20.6769C106.633 19.3331 104.602 18.9219 102.641 18.9219V24.9219C103.882 24.9219 104.254 25.1981 104.29 25.2293C104.298 25.236 104.318 25.2495 104.348 25.328C104.386 25.4246 104.445 25.6438 104.445 26.0469H110.445ZM102.641 18.9219H101.633V24.9219H102.641V18.9219ZM98.6328 21.9219V30.3125H104.633V21.9219H98.6328ZM124.766 44L121.932 43.0157L120.548 47H124.766V44ZM137.188 8.23438V5.23438H135.054L134.354 7.25011L137.188 8.23438ZM159.758 8.23438L162.592 7.25011L161.892 5.23438H159.758V8.23438ZM172.18 44V47H176.397L175.014 43.0157L172.18 44ZM156.359 44L153.52 44.9685L154.213 47H156.359V44ZM154.297 37.9531L157.136 36.9847L156.443 34.9531H154.297V37.9531ZM142.672 37.9531V34.9531H140.525L139.832 36.9847L142.672 37.9531ZM140.609 44V47H142.756L143.449 44.9685L140.609 44ZM148.531 20.7734L151.38 19.8339L150.701 17.7734H148.531V20.7734ZM148.438 20.7734V17.7734H146.268L145.588 19.8339L148.438 20.7734ZM145.555 29.5156L142.706 28.5761L141.407 32.5156H145.555V29.5156ZM151.414 29.5156V32.5156H155.562L154.263 28.5761L151.414 29.5156ZM127.6 44.9843L140.021 9.21864L134.354 7.25011L121.932 43.0157L127.6 44.9843ZM137.188 11.2344H159.758V5.23438H137.188V11.2344ZM156.924 9.21864L169.346 44.9843L175.014 43.0157L162.592 7.25011L156.924 9.21864ZM172.18 41H156.359V47H172.18V41ZM159.199 43.0315L157.136 36.9847L151.457 38.9216L153.52 44.9685L159.199 43.0315ZM154.297 34.9531H142.672V40.9531H154.297V34.9531ZM139.832 36.9847L137.77 43.0315L143.449 44.9685L145.511 38.9216L139.832 36.9847ZM140.609 41H124.766V47H140.609V41ZM148.531 17.7734H148.438V23.7734H148.531V17.7734ZM145.588 19.8339L142.706 28.5761L148.404 30.4551L151.287 21.7129L145.588 19.8339ZM145.555 32.5156H151.414V26.5156H145.555V32.5156ZM154.263 28.5761L151.38 19.8339L145.682 21.7129L148.565 30.4551L154.263 28.5761ZM186.078 44H183.078V47H186.078V44ZM186.078 28.3906H189.078V27.4709L188.563 26.7092L186.078 28.3906ZM172.438 8.23438V5.23438H166.785L169.953 9.91577L172.438 8.23438ZM188.469 8.23438L190.947 6.54392L190.054 5.23438H188.469V8.23438ZM194 16.3438L191.522 18.0342L194.005 21.6755L196.482 18.0293L194 16.3438ZM199.508 8.23438V5.23438H197.919L197.026 6.54882L199.508 8.23438ZM215.539 8.23438L218.024 9.91577L221.192 5.23438H215.539V8.23438ZM201.898 28.3906L199.414 26.7092L198.898 27.4709V28.3906H201.898ZM201.898 44V47H204.898V44H201.898ZM189.078 44V28.3906H183.078V44H189.078ZM188.563 26.7092L174.922 6.55298L169.953 9.91577L183.594 30.072L188.563 26.7092ZM172.438 11.2344H188.469V5.23438H172.438V11.2344ZM185.99 9.92483L191.522 18.0342L196.478 14.6533L190.947 6.54392L185.99 9.92483ZM196.482 18.0293L201.99 9.91993L197.026 6.54882L191.518 14.6582L196.482 18.0293ZM199.508 11.2344H215.539V5.23438H199.508V11.2344ZM213.055 6.55298L199.414 26.7092L204.383 30.072L218.024 9.91577L213.055 6.55298ZM198.898 28.3906V44H204.898V28.3906H198.898ZM201.898 41H186.078V47H201.898V41Z" fill="black" mask="url(#path-1-outside-1_2002_15)"/>
</svg>
