<svg width="165" height="59" viewBox="0 0 165 59" fill="none" xmlns="http://www.w3.org/2000/svg">
<g filter="url(#filter0_i_23_492)">
<path d="M3 3H162V56H3V3Z" fill="#FFF258"/>
</g>
<path d="M3 1.5H1.5V3V56V57.5H3H162H163.5V56V3V1.5H162H3Z" stroke="black" stroke-width="3"/>
<g filter="url(#filter1_i_23_492)">
<path d="M3 3H162V56H3V3Z" fill="#FFF258"/>
</g>
<path d="M4 4H161V55H4V4Z" stroke="#FFD531" stroke-width="2"/>
<path fill-rule="evenodd" clip-rule="evenodd" d="M85.2858 27.4161C86.2703 26.9274 87.5228 26.2078 88.777 25.2217C89.0413 25.7686 89.0705 26.2458 88.934 26.6309C88.8375 26.9024 88.6554 27.1386 88.4164 27.3265C88.1575 27.5294 87.8339 27.6775 87.4763 27.7574C86.7978 27.9095 86.0054 27.8209 85.2858 27.4161ZM85.4565 32.4244L86.7596 33.174C84.0989 34.6591 83.3754 37.4168 82.516 40.1025C81.6569 37.4168 80.9333 34.6589 78.2726 33.174L79.5757 32.4244C79.8343 32.3271 80.0007 32.0752 79.9875 31.8001C79.868 29.2847 80.5501 28.1722 81.4703 27.474C81.8002 27.2238 82.1605 27.0983 82.516 27.0983C82.8715 27.0983 83.2318 27.2238 83.5616 27.474C84.4815 28.1725 85.1636 29.2847 85.0444 31.8001C85.0312 32.0752 85.1982 32.3271 85.4565 32.4244ZM82.5163 16C84.0226 16.0404 85.5328 16.3315 86.8434 16.8979C87.7511 17.2908 88.5976 17.8095 89.3646 18.43C89.7109 18.7101 89.9961 18.9807 90.3102 19.2923C91.1574 19.3214 92.3955 18.3843 92.9703 17.5074C91.9809 20.7368 87.467 24.5502 84.342 26.0096C84.3408 26.009 84.3399 26.0084 84.3391 26.0078C83.7782 25.5813 83.1474 25.368 82.5165 25.368C81.8857 25.368 81.2549 25.5813 80.6941 26.0078C80.6932 26.0084 80.6923 26.0092 80.6911 26.0096C77.5655 24.5502 73.0518 20.7365 72.0625 17.5074C72.6373 18.3843 73.8752 19.3217 74.7224 19.2923C75.0364 18.981 75.3216 18.7101 75.6679 18.43C76.4346 17.8095 77.2815 17.2908 78.1892 16.8979C79.5 16.3315 81.0099 16.0404 82.5163 16ZM79.7468 27.4161C78.7625 26.9274 77.5098 26.2078 76.2555 25.2217C75.9912 25.7686 75.962 26.2458 76.0982 26.6309C76.1947 26.9024 76.3768 27.1386 76.6158 27.3265C76.875 27.5294 77.1986 27.6775 77.5563 27.7574C78.2348 27.9095 79.0274 27.8209 79.7468 27.4161Z" fill="black"/>
<path fill-rule="evenodd" clip-rule="evenodd" d="M90.1512 24.0085C90.8417 23.3148 91.4502 22.5468 91.9392 21.8613L92.1877 22.3269C92.9875 23.9204 93.4032 25.5077 93.4032 27.2937L93.4014 30.1282L93.4163 31.5973C93.4742 35.2044 94.2581 38.8537 96.0335 42.1935L92.3189 39.2107L89.6906 43.4579L86.9294 40.8695L82.5168 48.0001L78.1041 40.8698L75.343 43.4582L72.7147 39.211L69 42.1938C70.7754 38.854 71.5591 35.2045 71.6172 31.5976L71.6321 30.1284L71.6304 27.294C71.6304 25.5077 72.0457 23.9207 72.8458 22.3272L73.0941 21.8616C73.5834 22.5468 74.1916 23.3148 74.882 24.0089L74.6663 24.4548C74.2473 25.321 74.1087 26.2895 74.435 27.2109C74.6454 27.8041 75.0292 28.313 75.5242 28.7015C76.0048 29.0786 76.5737 29.3329 77.1691 29.4664C77.5571 29.5534 77.9522 29.5893 78.345 29.5771C78.2534 30.0943 78.2132 30.6305 78.2109 31.1771L74.7068 33.1925L77.4107 34.7017C77.6268 34.8225 77.8327 34.9605 78.0258 35.1152C80.255 37.1083 81.5954 43.0048 82.5165 45.8849C83.4376 43.0048 84.7779 37.1083 87.0072 35.1152C87.2003 34.9608 87.4062 34.8225 87.6222 34.7017L90.3262 33.1925L86.8221 31.1771C86.8195 30.6305 86.7795 30.0943 86.688 29.5771C87.0808 29.5893 87.4759 29.5534 87.8639 29.4664C88.4593 29.3329 89.0282 29.0786 89.5088 28.7015C90.0038 28.313 90.3876 27.8041 90.5979 27.2109C90.9242 26.2899 90.7856 25.3213 90.3667 24.4548L90.1512 24.0085Z" fill="black"/>
<defs>
<filter id="filter0_i_23_492" x="0" y="0" width="165" height="59" filterUnits="userSpaceOnUse" color-interpolation-filters="sRGB">
<feFlood flood-opacity="0" result="BackgroundImageFix"/>
<feBlend mode="normal" in="SourceGraphic" in2="BackgroundImageFix" result="shape"/>
<feColorMatrix in="SourceAlpha" type="matrix" values="0 0 0 0 0 0 0 0 0 0 0 0 0 0 0 0 0 0 127 0" result="hardAlpha"/>
<feOffset dy="-32"/>
<feComposite in2="hardAlpha" operator="arithmetic" k2="-1" k3="1"/>
<feColorMatrix type="matrix" values="0 0 0 0 1 0 0 0 0 0.835294 0 0 0 0 0.192157 0 0 0 1 0"/>
<feBlend mode="normal" in2="shape" result="effect1_innerShadow_23_492"/>
</filter>
<filter id="filter1_i_23_492" x="3" y="3" width="159" height="53" filterUnits="userSpaceOnUse" color-interpolation-filters="sRGB">
<feFlood flood-opacity="0" result="BackgroundImageFix"/>
<feBlend mode="normal" in="SourceGraphic" in2="BackgroundImageFix" result="shape"/>
<feColorMatrix in="SourceAlpha" type="matrix" values="0 0 0 0 0 0 0 0 0 0 0 0 0 0 0 0 0 0 127 0" result="hardAlpha"/>
<feOffset dy="-32"/>
<feComposite in2="hardAlpha" operator="arithmetic" k2="-1" k3="1"/>
<feColorMatrix type="matrix" values="0 0 0 0 1 0 0 0 0 0.835294 0 0 0 0 0.192157 0 0 0 1 0"/>
<feBlend mode="normal" in2="shape" result="effect1_innerShadow_23_492"/>
</filter>
</defs>
</svg>
