<svg width="165" height="59" viewBox="0 0 165 59" fill="none" xmlns="http://www.w3.org/2000/svg">
<g filter="url(#filter0_i_23_498)">
<path d="M3 3H162V56H3V3Z" fill="#FFF258"/>
</g>
<path d="M3 1.5H1.5V3V56V57.5H3H162H163.5V56V3V1.5H162H3Z" stroke="black" stroke-width="3"/>
<g filter="url(#filter1_i_23_498)">
<path d="M3 3H162V56H3V3Z" fill="#FFF258"/>
</g>
<path d="M4 4H161V55H4V4Z" stroke="#FFD531" stroke-width="2"/>
<path fill-rule="evenodd" clip-rule="evenodd" d="M79.2741 19.655C77.6074 20.5185 76.2438 21.2492 76.2441 21.279C76.2449 21.3557 80.2442 23.3702 80.3862 23.3652C80.4507 23.3631 80.9191 23.1486 81.4271 22.8888L82.3507 22.4163L83.3593 22.932L84.368 23.4478L86.0199 22.7096C88.5088 21.5972 88.7673 21.4753 88.7268 21.4344C88.6731 21.3801 87.7804 20.9031 85.3583 19.6349C84.1878 19.0219 83.0516 18.421 82.8335 18.2993C82.6152 18.1775 82.4071 18.0797 82.3707 18.0816C82.3343 18.0835 80.9408 18.7916 79.2741 19.655ZM71.9639 23.4198L70.2289 24.3112V28.2232C70.2289 30.3748 70.2517 32.135 70.2797 32.135C70.3077 32.135 71.1612 31.767 72.1766 31.3172L74.0228 30.4993V26.3759L74.925 26.8648C75.6202 27.2411 76.3159 27.6166 77.0119 27.9915L78.1965 28.6294L78.7237 28.3923C79.0543 28.2434 79.3843 28.093 79.7135 27.9412C79.9679 27.8232 80.5925 27.5435 81.1015 27.3192C81.6105 27.095 82.0816 26.8693 82.1484 26.818C82.2371 26.7496 81.1551 26.1549 78.1461 24.6182C75.8781 23.4598 73.9497 22.5156 73.8607 22.5202C73.7717 22.5248 72.9182 22.9295 71.9639 23.4198ZM89.0393 23.6701C87.8577 24.2006 86.89 24.6559 86.8889 24.6819C86.8879 24.7078 87.5319 25.0887 88.3201 25.5282C89.1084 25.9677 89.7533 26.3508 89.7533 26.3797C89.7533 26.4086 89.0558 26.7446 88.2034 27.1268C87.3508 27.509 85.1961 28.4768 83.4148 29.2776L77.4464 31.9608C75.945 32.6358 74.5917 33.2442 74.439 33.313C71.3724 34.6936 70.5295 35.0767 70.4138 35.1425C70.2974 35.2087 70.2711 35.5933 70.2503 37.5239L70.2256 39.8266L71.7772 40.6128L73.3286 41.399L75.48 40.4334C76.6634 39.9023 77.6315 39.4401 77.6315 39.4059C77.6315 39.3718 77.4128 39.2303 77.1457 39.0909C76.8785 38.9515 76.3267 38.6431 75.9195 38.4052C75.5124 38.1673 75.1065 37.9492 75.0173 37.9202C74.9282 37.8913 74.8567 37.8408 74.8581 37.8079C74.8596 37.775 75.807 37.3275 76.9633 36.8132C79.2092 35.8146 80.9279 35.0448 84.6178 33.3853C86.2677 32.6433 87.918 31.9021 89.5682 31.1608C91.0186 30.5096 92.7051 29.7493 93.3158 29.471L94.4262 28.965L94.4508 26.6361L94.4756 24.3074L92.9019 23.5041C92.0364 23.0623 91.2966 22.7019 91.2578 22.7033C91.2191 22.7045 90.2208 23.1396 89.0393 23.6701ZM94.0047 32.0717C93.7728 32.1843 93.3148 32.3953 92.9869 32.5403C92.6589 32.6854 92.0367 32.9647 91.604 33.161L90.8176 33.5178L90.7996 35.5622C90.7897 36.6867 90.7481 37.6017 90.707 37.5958C90.614 37.582 89.1398 36.8301 87.6581 36.0404C86.5885 35.4704 86.5214 35.4478 86.2701 35.5716C86.1247 35.6433 85.2563 36.0306 84.3403 36.4325C83.4241 36.8344 82.6448 37.1896 82.608 37.2216C82.5716 37.2537 84.4152 38.2475 86.7053 39.4303L90.869 41.5808L92.6476 40.6656C93.6258 40.1624 94.4576 39.7034 94.4959 39.6456C94.5821 39.5158 94.5747 31.8489 94.4884 31.8593C94.4542 31.8634 94.2366 31.959 94.0047 32.0717ZM84.1552 41.0707C83.8466 41.2026 83.5382 41.3348 83.2298 41.467C82.2987 41.8677 82.4811 41.881 81.3733 41.3325C80.6354 40.9673 80.3173 40.8545 80.1794 40.9092C80.0758 40.9502 79.1846 41.349 78.1988 41.7954C77.213 42.2418 76.3723 42.607 76.3305 42.607C75.9168 42.607 76.6045 43.0155 79.2578 44.3467L82.3694 45.9076L83.6787 45.2649C84.3987 44.9113 85.8511 44.2031 86.9063 43.6915C87.9613 43.1796 88.8116 42.7474 88.7956 42.7312C88.7796 42.7149 87.8956 42.2634 86.831 41.7279L84.8953 40.7542L84.1552 41.0707Z" fill="black"/>
<defs>
<filter id="filter0_i_23_498" x="0" y="0" width="165" height="59" filterUnits="userSpaceOnUse" color-interpolation-filters="sRGB">
<feFlood flood-opacity="0" result="BackgroundImageFix"/>
<feBlend mode="normal" in="SourceGraphic" in2="BackgroundImageFix" result="shape"/>
<feColorMatrix in="SourceAlpha" type="matrix" values="0 0 0 0 0 0 0 0 0 0 0 0 0 0 0 0 0 0 127 0" result="hardAlpha"/>
<feOffset dy="-32"/>
<feComposite in2="hardAlpha" operator="arithmetic" k2="-1" k3="1"/>
<feColorMatrix type="matrix" values="0 0 0 0 1 0 0 0 0 0.835294 0 0 0 0 0.192157 0 0 0 1 0"/>
<feBlend mode="normal" in2="shape" result="effect1_innerShadow_23_498"/>
</filter>
<filter id="filter1_i_23_498" x="3" y="3" width="159" height="53" filterUnits="userSpaceOnUse" color-interpolation-filters="sRGB">
<feFlood flood-opacity="0" result="BackgroundImageFix"/>
<feBlend mode="normal" in="SourceGraphic" in2="BackgroundImageFix" result="shape"/>
<feColorMatrix in="SourceAlpha" type="matrix" values="0 0 0 0 0 0 0 0 0 0 0 0 0 0 0 0 0 0 127 0" result="hardAlpha"/>
<feOffset dy="-32"/>
<feComposite in2="hardAlpha" operator="arithmetic" k2="-1" k3="1"/>
<feColorMatrix type="matrix" values="0 0 0 0 1 0 0 0 0 0.835294 0 0 0 0 0.192157 0 0 0 1 0"/>
<feBlend mode="normal" in2="shape" result="effect1_innerShadow_23_498"/>
</filter>
</defs>
</svg>
