<svg width="388" height="54" viewBox="0 0 388 54" fill="none" xmlns="http://www.w3.org/2000/svg">
<mask id="path-1-outside-1_31_2249" maskUnits="userSpaceOnUse" x="8" y="2" width="372" height="48" fill="black">
<rect fill="white" x="8" y="2" width="372" height="48"/>
<path d="M11.8193 9.00957H42.0231V24.0669H34.4499V43H19.3925V24.0669H11.8193V9.00957ZM51.8906 6.51485L82.2726 14.3776L82.4062 14.5113L74.4098 45.1383C54.8679 40.1341 44.696 37.4686 43.8941 37.1419C48.7351 18.09 51.4005 7.88101 51.8906 6.51485ZM60.9784 22.1291L59.5084 28.1877H59.642L65.3219 29.6355C66.302 26.2053 66.792 24.2303 66.792 23.7105L60.9784 22.1291ZM100.849 20.3694C103.507 20.1764 105.512 19.0033 106.863 16.8501C108.081 14.9048 108.69 12.2913 108.69 9.00957H124.014C124.014 16.8204 121.78 22.4632 117.31 25.938C121.943 29.487 124.497 35.1743 124.972 43H108.734C108.363 34.8625 105.735 30.7269 100.849 30.5933V43H85.7919V9.00957H100.849V20.3694ZM157.203 43H128.959V9.00957H157.203V17.5406H144.017V21.7504H153.171V30.2814H144.017V34.469H157.203V43ZM161.747 9.00957H172.505L180.368 20.3694H180.457V9.00957H195.515V43.2673H184.11L176.893 32.687H176.804V43H161.747V9.00957ZM207.81 6.51485L238.192 14.3776L238.326 14.5113L230.329 45.1383C210.787 40.1341 200.615 37.4686 199.814 37.1419C204.654 18.09 207.32 7.88101 207.81 6.51485ZM216.898 22.1291L215.428 28.1877H215.561L221.241 29.6355C222.221 26.2053 222.711 24.2303 222.711 23.7105L216.898 22.1291ZM241.533 9.00957H256.123L262.293 16.0928L268.44 9.00957H283.052V43H267.995V25.9825L262.293 32.5534L256.591 25.9825V43H241.533V9.00957ZM289.69 9.00957H304.747V43H289.69V9.00957ZM336.8 24.0669C334.973 23.4284 332.932 23.1091 330.674 23.1091C327.482 23.1091 325.886 23.9778 325.886 25.7152C325.886 27.4823 327.608 28.3658 331.053 28.3658C333.295 28.3658 335.211 27.9649 336.8 27.163L343.081 40.0375C339.265 42.3837 334.706 43.5569 329.405 43.5569C326.331 43.5569 323.554 43.0594 321.074 42.0645C318.773 41.1438 316.805 39.8371 315.172 38.1442C312.038 34.9219 310.472 30.9571 310.472 26.2498C310.472 21.0822 312.246 16.8278 315.795 13.4867C319.344 10.1455 323.881 8.47498 329.405 8.47498C334.899 8.47498 339.458 9.67037 343.081 12.0611L336.8 24.0669ZM371.837 21.4608C369.432 18.1494 366.618 16.4937 363.395 16.4937C361.628 16.4937 360.745 17.1619 360.745 18.4984C360.745 19.0478 361.25 19.6047 362.259 20.1689C362.675 20.4065 363.21 20.6664 363.863 20.9485L367.984 22.6191C368.801 22.9606 369.521 23.2799 370.144 23.5769C371.733 24.3639 372.951 25.1806 373.797 26.0271C375.386 27.616 376.181 29.732 376.181 32.3752C376.181 39.8296 370.731 43.5569 359.831 43.5569C356.891 43.5569 354.196 43.3638 351.746 42.9777C349.103 42.5619 346.615 41.9011 344.284 40.9953L347.982 29.6355C350.254 33.2587 353.097 35.0704 356.513 35.0704C358.191 35.0704 359.03 34.4319 359.03 33.1548C359.03 32.2935 358.332 31.5139 356.936 30.816C356.654 30.6675 356.32 30.5116 355.933 30.3483L352.347 28.8559C351.412 28.4252 350.602 27.9872 349.919 27.5417C349.073 26.9774 348.36 26.3686 347.781 25.7152C346.385 24.156 345.687 22.2107 345.687 19.8794C345.687 12.2764 351.122 8.47498 361.992 8.47498C367.041 8.47498 371.57 9.23231 375.579 10.747L371.837 21.4608Z"/>
</mask>
<path d="M11.8193 9.00957H42.0231V24.0669H34.4499V43H19.3925V24.0669H11.8193V9.00957ZM51.8906 6.51485L82.2726 14.3776L82.4062 14.5113L74.4098 45.1383C54.8679 40.1341 44.696 37.4686 43.8941 37.1419C48.7351 18.09 51.4005 7.88101 51.8906 6.51485ZM60.9784 22.1291L59.5084 28.1877H59.642L65.3219 29.6355C66.302 26.2053 66.792 24.2303 66.792 23.7105L60.9784 22.1291ZM100.849 20.3694C103.507 20.1764 105.512 19.0033 106.863 16.8501C108.081 14.9048 108.69 12.2913 108.69 9.00957H124.014C124.014 16.8204 121.78 22.4632 117.31 25.938C121.943 29.487 124.497 35.1743 124.972 43H108.734C108.363 34.8625 105.735 30.7269 100.849 30.5933V43H85.7919V9.00957H100.849V20.3694ZM157.203 43H128.959V9.00957H157.203V17.5406H144.017V21.7504H153.171V30.2814H144.017V34.469H157.203V43ZM161.747 9.00957H172.505L180.368 20.3694H180.457V9.00957H195.515V43.2673H184.11L176.893 32.687H176.804V43H161.747V9.00957ZM207.81 6.51485L238.192 14.3776L238.326 14.5113L230.329 45.1383C210.787 40.1341 200.615 37.4686 199.814 37.1419C204.654 18.09 207.32 7.88101 207.81 6.51485ZM216.898 22.1291L215.428 28.1877H215.561L221.241 29.6355C222.221 26.2053 222.711 24.2303 222.711 23.7105L216.898 22.1291ZM241.533 9.00957H256.123L262.293 16.0928L268.44 9.00957H283.052V43H267.995V25.9825L262.293 32.5534L256.591 25.9825V43H241.533V9.00957ZM289.69 9.00957H304.747V43H289.69V9.00957ZM336.8 24.0669C334.973 23.4284 332.932 23.1091 330.674 23.1091C327.482 23.1091 325.886 23.9778 325.886 25.7152C325.886 27.4823 327.608 28.3658 331.053 28.3658C333.295 28.3658 335.211 27.9649 336.8 27.163L343.081 40.0375C339.265 42.3837 334.706 43.5569 329.405 43.5569C326.331 43.5569 323.554 43.0594 321.074 42.0645C318.773 41.1438 316.805 39.8371 315.172 38.1442C312.038 34.9219 310.472 30.9571 310.472 26.2498C310.472 21.0822 312.246 16.8278 315.795 13.4867C319.344 10.1455 323.881 8.47498 329.405 8.47498C334.899 8.47498 339.458 9.67037 343.081 12.0611L336.8 24.0669ZM371.837 21.4608C369.432 18.1494 366.618 16.4937 363.395 16.4937C361.628 16.4937 360.745 17.1619 360.745 18.4984C360.745 19.0478 361.25 19.6047 362.259 20.1689C362.675 20.4065 363.21 20.6664 363.863 20.9485L367.984 22.6191C368.801 22.9606 369.521 23.2799 370.144 23.5769C371.733 24.3639 372.951 25.1806 373.797 26.0271C375.386 27.616 376.181 29.732 376.181 32.3752C376.181 39.8296 370.731 43.5569 359.831 43.5569C356.891 43.5569 354.196 43.3638 351.746 42.9777C349.103 42.5619 346.615 41.9011 344.284 40.9953L347.982 29.6355C350.254 33.2587 353.097 35.0704 356.513 35.0704C358.191 35.0704 359.03 34.4319 359.03 33.1548C359.03 32.2935 358.332 31.5139 356.936 30.816C356.654 30.6675 356.32 30.5116 355.933 30.3483L352.347 28.8559C351.412 28.4252 350.602 27.9872 349.919 27.5417C349.073 26.9774 348.36 26.3686 347.781 25.7152C346.385 24.156 345.687 22.2107 345.687 19.8794C345.687 12.2764 351.122 8.47498 361.992 8.47498C367.041 8.47498 371.57 9.23231 375.579 10.747L371.837 21.4608Z" fill="url(#paint0_linear_31_2249)"/>
<path d="M11.8193 9.00957V5.68926H8.49897V9.00957H11.8193ZM42.0231 9.00957H45.3434V5.68926H42.0231V9.00957ZM42.0231 24.0669V27.3872H45.3434V24.0669H42.0231ZM34.4499 24.0669V20.7466H31.1296V24.0669H34.4499ZM34.4499 43V46.3203H37.7702V43H34.4499ZM19.3925 43H16.0722V46.3203H19.3925V43ZM19.3925 24.0669H22.7128V20.7466H19.3925V24.0669ZM11.8193 24.0669H8.49897V27.3872H11.8193V24.0669ZM11.8193 12.3299H42.0231V5.68926H11.8193V12.3299ZM38.7028 9.00957V24.0669H45.3434V9.00957H38.7028ZM42.0231 20.7466H34.4499V27.3872H42.0231V20.7466ZM31.1296 24.0669V43H37.7702V24.0669H31.1296ZM34.4499 39.6797H19.3925V46.3203H34.4499V39.6797ZM22.7128 43V24.0669H16.0722V43H22.7128ZM19.3925 20.7466H11.8193V27.3872H19.3925V20.7466ZM15.1396 24.0669V9.00957H8.49897V24.0669H15.1396ZM51.8906 6.51485L52.7225 3.30045L49.7885 2.54114L48.7652 5.39381L51.8906 6.51485ZM82.2726 14.3776L84.6204 12.0298L83.9805 11.39L83.1045 11.1632L82.2726 14.3776ZM82.4062 14.5113L85.6188 15.3501L86.0995 13.509L84.754 12.1635L82.4062 14.5113ZM74.4098 45.1383L73.5861 48.3548L76.7876 49.1747L77.6224 45.9771L74.4098 45.1383ZM43.8941 37.1419L40.6761 36.3242L39.9642 39.1261L42.6414 40.2168L43.8941 37.1419ZM60.9784 22.1291L61.85 18.9252L58.5566 18.0293L57.7518 21.3461L60.9784 22.1291ZM59.5084 28.1877L56.2817 27.4047L55.286 31.508H59.5084V28.1877ZM59.642 28.1877L60.4621 24.9702L60.0585 24.8673H59.642V28.1877ZM65.3219 29.6355L64.5018 32.8529L67.6281 33.6498L68.5145 30.5476L65.3219 29.6355ZM66.792 23.7105H70.1123V21.1728L67.6636 20.5067L66.792 23.7105ZM51.0587 9.72926L81.4407 17.5921L83.1045 11.1632L52.7225 3.30045L51.0587 9.72926ZM79.9248 16.7255L80.0584 16.8591L84.754 12.1635L84.6204 12.0298L79.9248 16.7255ZM79.1936 13.6725L71.1972 44.2995L77.6224 45.9771L85.6188 15.3501L79.1936 13.6725ZM75.2335 41.9218C65.4642 39.4201 58.0429 37.5045 52.9661 36.1741C50.4265 35.5087 48.4816 34.9917 47.1259 34.6221C45.6232 34.2123 45.1083 34.0513 45.1469 34.067L42.6414 40.2168C43.0809 40.3959 44.1382 40.6905 45.379 41.0288C46.7666 41.4072 48.7365 41.9306 51.2828 42.5979C56.3779 43.933 63.8135 45.8523 73.5861 48.3548L75.2335 41.9218ZM47.1122 37.9596C49.5321 28.4358 51.4066 21.1289 52.7366 16.035C54.0965 10.8263 54.8355 8.13881 55.0159 7.6359L48.7652 5.39381C48.4556 6.25705 47.6169 9.35712 46.3113 14.3574C44.9758 19.4726 43.0971 26.7961 40.6761 36.3242L47.1122 37.9596ZM57.7518 21.3461L56.2817 27.4047L62.735 28.9706L64.2051 22.912L57.7518 21.3461ZM59.5084 31.508H59.642V24.8673H59.5084V31.508ZM58.8219 31.4051L64.5018 32.8529L66.142 26.4181L60.4621 24.9702L58.8219 31.4051ZM68.5145 30.5476C69.0085 28.8184 69.3883 27.4242 69.6471 26.3812C69.776 25.8618 69.8821 25.4004 69.9582 25.0132C70.0185 24.7059 70.1123 24.1987 70.1123 23.7105H63.4717C63.4717 23.4823 63.5042 23.4168 63.4421 23.7332C63.3956 23.9697 63.3181 24.3139 63.2019 24.782C62.9707 25.714 62.6154 27.0223 62.1294 28.7233L68.5145 30.5476ZM67.6636 20.5067L61.85 18.9252L60.1069 25.3329L65.9205 26.9144L67.6636 20.5067ZM100.849 20.3694H97.529V23.9396L101.09 23.681L100.849 20.3694ZM106.863 16.8501L109.676 18.6151L109.678 18.6118L106.863 16.8501ZM108.69 9.00957V5.68926H105.369V9.00957H108.69ZM124.014 9.00957H127.335V5.68926H124.014V9.00957ZM117.31 25.938L115.272 23.3166L111.875 25.9573L115.291 28.5738L117.31 25.938ZM124.972 43V46.3203H128.5L128.286 42.7988L124.972 43ZM108.734 43L105.417 43.1513L105.562 46.3203H108.734V43ZM100.849 30.5933L100.94 27.2742L97.529 27.1809V30.5933H100.849ZM100.849 43V46.3203H104.17V43H100.849ZM85.7919 43H82.4716V46.3203H85.7919V43ZM85.7919 9.00957V5.68926H82.4716V9.00957H85.7919ZM100.849 9.00957H104.17V5.68926H100.849V9.00957ZM101.09 23.681C104.743 23.4157 107.731 21.7136 109.676 18.6151L104.051 15.0851C103.293 16.2929 102.272 16.937 100.609 17.0578L101.09 23.681ZM109.678 18.6118C111.339 15.9577 112.01 12.66 112.01 9.00957H105.369C105.369 11.9226 104.823 13.8519 104.049 15.0884L109.678 18.6118ZM108.69 12.3299H124.014V5.68926H108.69V12.3299ZM120.694 9.00957C120.694 16.2096 118.654 20.6875 115.272 23.3166L119.348 28.5593C124.905 24.2389 127.335 17.4312 127.335 9.00957H120.694ZM115.291 28.5738C118.921 31.3544 121.22 35.9886 121.658 43.2012L128.286 42.7988C127.774 34.3601 124.965 27.6196 119.329 23.3021L115.291 28.5738ZM124.972 39.6797H108.734V46.3203H124.972V39.6797ZM112.051 42.8487C111.855 38.5413 111.054 34.7949 109.287 32.0142C107.383 29.0179 104.49 27.3713 100.94 27.2742L100.758 33.9123C102.094 33.9489 102.958 34.4369 103.682 35.5761C104.544 36.9311 105.243 39.3212 105.417 43.1513L112.051 42.8487ZM97.529 30.5933V43H104.17V30.5933H97.529ZM100.849 39.6797H85.7919V46.3203H100.849V39.6797ZM89.1122 43V9.00957H82.4716V43H89.1122ZM85.7919 12.3299H100.849V5.68926H85.7919V12.3299ZM97.529 9.00957V20.3694H104.17V9.00957H97.529ZM157.203 43V46.3203H160.523V43H157.203ZM128.959 43H125.639V46.3203H128.959V43ZM128.959 9.00957V5.68926H125.639V9.00957H128.959ZM157.203 9.00957H160.523V5.68926H157.203V9.00957ZM157.203 17.5406V20.8609H160.523V17.5406H157.203ZM144.017 17.5406V14.2203H140.696V17.5406H144.017ZM144.017 21.7504H140.696V25.0707H144.017V21.7504ZM153.171 21.7504H156.492V18.4301H153.171V21.7504ZM153.171 30.2814V33.6017H156.492V30.2814H153.171ZM144.017 30.2814V26.9611H140.696V30.2814H144.017ZM144.017 34.469H140.696V37.7893H144.017V34.469ZM157.203 34.469H160.523V31.1487H157.203V34.469ZM157.203 39.6797H128.959V46.3203H157.203V39.6797ZM132.28 43V9.00957H125.639V43H132.28ZM128.959 12.3299H157.203V5.68926H128.959V12.3299ZM153.883 9.00957V17.5406H160.523V9.00957H153.883ZM157.203 14.2203H144.017V20.8609H157.203V14.2203ZM140.696 17.5406V21.7504H147.337V17.5406H140.696ZM144.017 25.0707H153.171V18.4301H144.017V25.0707ZM149.851 21.7504V30.2814H156.492V21.7504H149.851ZM153.171 26.9611H144.017V33.6017H153.171V26.9611ZM140.696 30.2814V34.469H147.337V30.2814H140.696ZM144.017 37.7893H157.203V31.1487H144.017V37.7893ZM153.883 34.469V43H160.523V34.469H153.883ZM161.747 9.00957V5.68926H158.427V9.00957H161.747ZM172.505 9.00957L175.236 7.11989L174.245 5.68926H172.505V9.00957ZM180.368 20.3694L177.638 22.2591L178.628 23.6897H180.368V20.3694ZM180.457 20.3694V23.6897H183.778V20.3694H180.457ZM180.457 9.00957V5.68926H177.137V9.00957H180.457ZM195.515 9.00957H198.835V5.68926H195.515V9.00957ZM195.515 43.2673V46.5876H198.835V43.2673H195.515ZM184.11 43.2673L181.367 45.1383L182.356 46.5876H184.11V43.2673ZM176.893 32.687L179.636 30.8161L178.648 29.3667H176.893V32.687ZM176.804 32.687V29.3667H173.484V32.687H176.804ZM176.804 43V46.3203H180.125V43H176.804ZM161.747 43H158.427V46.3203H161.747V43ZM161.747 12.3299H172.505V5.68926H161.747V12.3299ZM169.775 10.8992L177.638 22.2591L183.098 18.4797L175.236 7.11989L169.775 10.8992ZM180.368 23.6897H180.457V17.0491H180.368V23.6897ZM183.778 20.3694V9.00957H177.137V20.3694H183.778ZM180.457 12.3299H195.515V5.68926H180.457V12.3299ZM192.194 9.00957V43.2673H198.835V9.00957H192.194ZM195.515 39.947H184.11V46.5876H195.515V39.947ZM186.853 41.3963L179.636 30.8161L174.15 34.558L181.367 45.1383L186.853 41.3963ZM176.893 29.3667H176.804V36.0074H176.893V29.3667ZM173.484 32.687V43H180.125V32.687H173.484ZM176.804 39.6797H161.747V46.3203H176.804V39.6797ZM165.067 43V9.00957H158.427V43H165.067ZM207.81 6.51485L208.642 3.30045L205.708 2.54114L204.685 5.39381L207.81 6.51485ZM238.192 14.3776L240.54 12.0298L239.9 11.39L239.024 11.1632L238.192 14.3776ZM238.326 14.5113L241.538 15.3501L242.019 13.509L240.673 12.1635L238.326 14.5113ZM230.329 45.1383L229.506 48.3548L232.707 49.1747L233.542 45.9771L230.329 45.1383ZM199.814 37.1419L196.596 36.3242L195.884 39.1261L198.561 40.2168L199.814 37.1419ZM216.898 22.1291L217.769 18.9252L214.476 18.0293L213.671 21.3461L216.898 22.1291ZM215.428 28.1877L212.201 27.4047L211.205 31.508H215.428V28.1877ZM215.561 28.1877L216.382 24.9702L215.978 24.8673H215.561V28.1877ZM221.241 29.6355L220.421 32.8529L223.548 33.6498L224.434 30.5476L221.241 29.6355ZM222.711 23.7105H226.032V21.1728L223.583 20.5067L222.711 23.7105ZM206.978 9.72926L237.36 17.5921L239.024 11.1632L208.642 3.30045L206.978 9.72926ZM235.844 16.7255L235.978 16.8591L240.673 12.1635L240.54 12.0298L235.844 16.7255ZM235.113 13.6725L227.117 44.2995L233.542 45.9771L241.538 15.3501L235.113 13.6725ZM231.153 41.9218C221.384 39.4201 213.962 37.5045 208.886 36.1741C206.346 35.5087 204.401 34.9917 203.045 34.6221C201.543 34.2123 201.028 34.0513 201.066 34.067L198.561 40.2168C199 40.3959 200.058 40.6905 201.298 41.0288C202.686 41.4072 204.656 41.9306 207.202 42.5979C212.297 43.933 219.733 45.8523 229.506 48.3548L231.153 41.9218ZM203.032 37.9596C205.452 28.4358 207.326 21.1289 208.656 16.035C210.016 10.8263 210.755 8.13881 210.935 7.6359L204.685 5.39381C204.375 6.25705 203.536 9.35712 202.231 14.3574C200.895 19.4726 199.017 26.7961 196.596 36.3242L203.032 37.9596ZM213.671 21.3461L212.201 27.4047L218.654 28.9706L220.125 22.912L213.671 21.3461ZM215.428 31.508H215.561V24.8673H215.428V31.508ZM214.741 31.4051L220.421 32.8529L222.061 26.4181L216.382 24.9702L214.741 31.4051ZM224.434 30.5476C224.928 28.8184 225.308 27.4242 225.567 26.3812C225.695 25.8618 225.802 25.4004 225.878 25.0132C225.938 24.7059 226.032 24.1987 226.032 23.7105H219.391C219.391 23.4823 219.424 23.4168 219.362 23.7332C219.315 23.9697 219.237 24.3139 219.121 24.782C218.89 25.714 218.535 27.0223 218.049 28.7233L224.434 30.5476ZM223.583 20.5067L217.769 18.9252L216.026 25.3329L221.84 26.9144L223.583 20.5067ZM241.533 9.00957V5.68926H238.213V9.00957H241.533ZM256.123 9.00957L258.626 6.82871L257.634 5.68926H256.123V9.00957ZM262.293 16.0928L259.789 18.2736L262.297 21.1531L264.8 18.2691L262.293 16.0928ZM268.44 9.00957V5.68926H266.926L265.933 6.83319L268.44 9.00957ZM283.052 9.00957H286.373V5.68926H283.052V9.00957ZM283.052 43V46.3203H286.373V43H283.052ZM267.995 43H264.675V46.3203H267.995V43ZM267.995 25.9825H271.315V17.0904L265.487 23.8063L267.995 25.9825ZM262.293 32.5534L259.785 34.7296L262.293 37.6193L264.8 34.7296L262.293 32.5534ZM256.591 25.9825L259.098 23.8063L253.27 17.0904V25.9825H256.591ZM256.591 43V46.3203H259.911V43H256.591ZM241.533 43H238.213V46.3203H241.533V43ZM241.533 12.3299H256.123V5.68926H241.533V12.3299ZM253.619 11.1904L259.789 18.2736L264.796 13.9119L258.626 6.82871L253.619 11.1904ZM264.8 18.2691L270.948 11.1859L265.933 6.83319L259.785 13.9164L264.8 18.2691ZM268.44 12.3299H283.052V5.68926H268.44V12.3299ZM279.732 9.00957V43H286.373V9.00957H279.732ZM283.052 39.6797H267.995V46.3203H283.052V39.6797ZM271.315 43V25.9825H264.675V43H271.315ZM265.487 23.8063L259.785 30.3772L264.8 34.7296L270.503 28.1587L265.487 23.8063ZM264.8 30.3772L259.098 23.8063L254.083 28.1587L259.785 34.7296L264.8 30.3772ZM253.27 25.9825V43H259.911V25.9825H253.27ZM256.591 39.6797H241.533V46.3203H256.591V39.6797ZM244.853 43V9.00957H238.213V43H244.853ZM289.69 9.00957V5.68926H286.37V9.00957H289.69ZM304.747 9.00957H308.068V5.68926H304.747V9.00957ZM304.747 43V46.3203H308.068V43H304.747ZM289.69 43H286.37V46.3203H289.69V43ZM289.69 12.3299H304.747V5.68926H289.69V12.3299ZM301.427 9.00957V43H308.068V9.00957H301.427ZM304.747 39.6797H289.69V46.3203H304.747V39.6797ZM293.01 43V9.00957H286.37V43H293.01ZM336.8 24.0669L335.704 27.2012L338.412 28.1479L339.742 25.6061L336.8 24.0669ZM336.8 27.163L339.784 25.7071L338.308 22.6826L335.304 24.1988L336.8 27.163ZM343.081 40.0375L344.82 42.8661L347.386 41.2886L346.065 38.5816L343.081 40.0375ZM321.074 42.0645L322.311 38.9829L322.307 38.9817L321.074 42.0645ZM315.172 38.1442L317.561 35.8387L317.552 35.8296L315.172 38.1442ZM343.081 12.0611L346.023 13.6003L347.414 10.9421L344.91 9.28976L343.081 12.0611ZM337.896 20.9326C335.664 20.1524 333.244 19.7888 330.674 19.7888V26.4294C332.619 26.4294 334.283 26.7044 335.704 27.2012L337.896 20.9326ZM330.674 19.7888C328.886 19.7888 327.022 20.0135 325.496 20.8442C324.683 21.2867 323.91 21.9322 323.353 22.8407C322.792 23.7571 322.565 24.7545 322.565 25.7152H329.206C329.206 25.8072 329.178 26.0445 329.016 26.3094C328.859 26.5664 328.685 26.6689 328.67 26.6771C328.667 26.6788 328.701 26.66 328.787 26.6319C328.872 26.604 328.998 26.5705 329.172 26.539C329.526 26.4749 330.017 26.4294 330.674 26.4294V19.7888ZM322.565 25.7152C322.565 26.7209 322.819 27.7521 323.424 28.6841C324.019 29.5994 324.831 30.2313 325.662 30.6575C327.228 31.4606 329.154 31.6862 331.053 31.6862V25.0455C330.325 25.0455 329.766 24.9982 329.352 24.9274C328.929 24.8551 328.738 24.772 328.693 24.7489C328.663 24.7333 328.828 24.813 328.993 25.0656C329.168 25.335 329.206 25.5931 329.206 25.7152H322.565ZM331.053 31.6862C333.683 31.6862 336.138 31.2161 338.296 30.1273L335.304 24.1988C334.284 24.7137 332.907 25.0455 331.053 25.0455V31.6862ZM333.816 28.6189L340.097 41.4934L346.065 38.5816L339.784 25.7071L333.816 28.6189ZM341.342 37.209C338.138 39.1789 334.206 40.2365 329.405 40.2365V46.8772C335.206 46.8772 340.392 45.5886 344.82 42.8661L341.342 37.209ZM329.405 40.2365C326.692 40.2365 324.343 39.7983 322.311 38.9829L319.838 45.146C322.765 46.3205 325.97 46.8772 329.405 46.8772V40.2365ZM322.307 38.9817C320.418 38.2258 318.851 37.1755 317.561 35.8387L312.782 40.4497C314.759 42.4986 317.127 44.0618 319.841 45.1473L322.307 38.9817ZM317.552 35.8296C315.052 33.2588 313.792 30.138 313.792 26.2498H307.151C307.151 31.7762 309.024 36.585 312.791 40.4589L317.552 35.8296ZM313.792 26.2498C313.792 21.9358 315.232 18.5768 318.071 15.9042L313.519 11.0691C309.26 15.0788 307.151 20.2286 307.151 26.2498H313.792ZM318.071 15.9042C320.921 13.2213 324.605 11.7953 329.405 11.7953V5.15468C323.157 5.15468 317.768 7.06978 313.519 11.0691L318.071 15.9042ZM329.405 11.7953C334.421 11.7953 338.3 12.8841 341.253 14.8325L344.91 9.28976C340.616 6.45662 335.377 5.15468 329.405 5.15468V11.7953ZM340.139 10.5219L333.858 22.5277L339.742 25.6061L346.023 13.6003L340.139 10.5219ZM371.837 21.4608L369.151 23.4123L372.88 28.5453L374.972 22.5557L371.837 21.4608ZM362.259 20.1689L363.907 17.2861L363.893 17.2782L363.879 17.2705L362.259 20.1689ZM363.863 20.9485L362.547 23.9968L362.581 24.0116L362.616 24.0256L363.863 20.9485ZM367.984 22.6191L369.265 19.5559L369.248 19.5489L369.231 19.542L367.984 22.6191ZM370.144 23.5769L371.618 20.6016L371.595 20.5902L371.572 20.5791L370.144 23.5769ZM351.746 42.9777L352.263 39.6979L352.262 39.6978L351.746 42.9777ZM344.284 40.9953L341.127 39.9677L340.155 42.9532L343.082 44.0902L344.284 40.9953ZM347.982 29.6355L350.795 27.8716L347.022 21.8554L344.824 28.6078L347.982 29.6355ZM356.936 30.816L355.389 33.7542L355.42 33.7703L355.451 33.7858L356.936 30.816ZM355.933 30.3483L357.227 27.2904L357.218 27.2865L357.209 27.2828L355.933 30.3483ZM352.347 28.8559L350.959 31.872L351.015 31.8977L351.072 31.9213L352.347 28.8559ZM349.919 27.5417L348.078 30.3044L348.092 30.3137L348.106 30.3228L349.919 27.5417ZM347.781 25.7152L350.266 23.5128L350.26 23.5067L350.255 23.5006L347.781 25.7152ZM375.579 10.747L378.714 11.8418L379.782 8.78512L376.753 7.6409L375.579 10.747ZM374.524 19.5094C371.68 15.5958 367.963 13.1734 363.395 13.1734V19.814C365.272 19.814 367.183 20.703 369.151 23.4123L374.524 19.5094ZM363.395 13.1734C362.188 13.1734 360.676 13.385 359.404 14.3467C357.958 15.4405 357.424 17.0304 357.424 18.4984H364.065C364.065 18.5263 364.06 18.7069 363.949 18.9604C363.828 19.2334 363.635 19.4731 363.41 19.6431C363.204 19.7992 363.049 19.838 363.047 19.8386C363.045 19.8392 363.07 19.8326 363.131 19.8261C363.191 19.8196 363.278 19.814 363.395 19.814V13.1734ZM357.424 18.4984C357.424 19.8596 358.063 20.8959 358.664 21.5583C359.251 22.2068 359.971 22.6936 360.64 23.0674L363.879 17.2705C363.538 17.08 363.5 17.0062 363.583 17.0979C363.679 17.2034 364.065 17.6866 364.065 18.4984H357.424ZM360.612 23.0518C361.173 23.3723 361.829 23.6868 362.547 23.9968L365.179 17.9003C364.591 17.646 364.177 17.4408 363.907 17.2861L360.612 23.0518ZM362.616 24.0256L366.736 25.6962L369.231 19.542L365.111 17.8715L362.616 24.0256ZM366.703 25.6824C367.483 26.0087 368.153 26.306 368.717 26.5747L371.572 20.5791C370.889 20.2538 370.118 19.9126 369.265 19.5559L366.703 25.6824ZM368.671 26.5522C370.076 27.2485 370.95 27.8749 371.45 28.3749L376.145 23.6792C374.952 22.4863 373.39 21.4793 371.618 20.6016L368.671 26.5522ZM371.45 28.3749C372.307 29.232 372.86 30.4454 372.86 32.3752H379.501C379.501 29.0186 378.466 25.9999 376.145 23.6792L371.45 28.3749ZM372.86 32.3752C372.86 35.171 371.911 36.8636 370.219 38.0208C368.3 39.333 365.006 40.2365 359.831 40.2365V46.8772C365.556 46.8772 370.437 45.9171 373.968 43.5021C377.726 40.9321 379.501 37.0338 379.501 32.3752H372.86ZM359.831 40.2365C357.034 40.2365 354.514 40.0526 352.263 39.6979L351.229 46.2576C353.878 46.675 356.749 46.8772 359.831 46.8772V40.2365ZM352.262 39.6978C349.837 39.3163 347.582 38.7144 345.487 37.9004L343.082 44.0902C345.649 45.0879 348.368 45.8075 351.23 46.2577L352.262 39.6978ZM347.441 42.023L351.139 30.6631L344.824 28.6078L341.127 39.9677L347.441 42.023ZM345.169 31.3994C347.872 35.7112 351.659 38.3907 356.513 38.3907V31.7501C354.536 31.7501 352.635 30.8063 350.795 27.8716L345.169 31.3994ZM356.513 38.3907C357.679 38.3907 359.161 38.1853 360.411 37.2336C361.833 36.1517 362.35 34.5854 362.35 33.1548H355.709C355.709 33.1146 355.716 32.9235 355.831 32.6608C355.954 32.3785 356.154 32.1287 356.389 31.9493C356.607 31.7837 356.776 31.7376 356.797 31.7323C356.814 31.7281 356.732 31.7501 356.513 31.7501V38.3907ZM362.35 33.1548C362.35 30.2525 360.006 28.6391 358.421 27.8462L355.451 33.7858C355.681 33.901 355.838 33.9973 355.937 34.0676C356.038 34.1388 356.057 34.1667 356.032 34.1388C356.005 34.1086 355.921 34.0059 355.843 33.8237C355.762 33.6327 355.709 33.4019 355.709 33.1548H362.35ZM358.482 27.8778C358.097 27.6749 357.674 27.4795 357.227 27.2904L354.64 33.4061C354.965 33.5437 355.211 33.6602 355.389 33.7542L358.482 27.8778ZM357.209 27.2828L353.623 25.7904L351.072 31.9213L354.658 33.4137L357.209 27.2828ZM353.736 25.8398C352.911 25.4602 352.251 25.098 351.733 24.7606L348.106 30.3228C348.954 30.8764 349.912 31.3903 350.959 31.872L353.736 25.8398ZM351.761 24.779C351.114 24.3477 350.627 23.9209 350.266 23.5128L345.296 27.9176C346.093 28.8163 347.032 29.6071 348.078 30.3044L351.761 24.779ZM350.255 23.5006C349.468 22.6211 349.008 21.4938 349.008 19.8794H342.367C342.367 22.9276 343.303 25.691 345.307 27.9299L350.255 23.5006ZM349.008 19.8794C349.008 16.9786 349.978 15.2283 351.667 14.0469C353.572 12.7142 356.842 11.7953 361.992 11.7953V5.15468C356.272 5.15468 351.39 6.13647 347.86 8.60528C344.115 11.2253 342.367 15.1772 342.367 19.8794H349.008ZM361.992 11.7953C366.71 11.7953 370.832 12.5028 374.406 13.853L376.753 7.6409C372.308 5.96183 367.372 5.15468 361.992 5.15468V11.7953ZM372.445 9.65212L368.703 20.366L374.972 22.5557L378.714 11.8418L372.445 9.65212Z" fill="black" mask="url(#path-1-outside-1_31_2249)"/>
<mask id="path-3-outside-2_31_2249" maskUnits="userSpaceOnUse" x="10" y="4" width="368" height="43" fill="black">
<rect fill="white" x="10" y="4" width="368" height="43"/>
<path d="M11.8193 9.00957H42.0231V24.0669H34.4499V43H19.3925V24.0669H11.8193V9.00957ZM51.8906 6.51485L82.2726 14.3776L82.4062 14.5113L74.4098 45.1383C54.8679 40.1341 44.696 37.4686 43.8941 37.1419C48.7351 18.09 51.4005 7.88101 51.8906 6.51485ZM60.9784 22.1291L59.5084 28.1877H59.642L65.3219 29.6355C66.302 26.2053 66.792 24.2303 66.792 23.7105L60.9784 22.1291ZM100.849 20.3694C103.507 20.1764 105.512 19.0033 106.863 16.8501C108.081 14.9048 108.69 12.2913 108.69 9.00957H124.014C124.014 16.8204 121.78 22.4632 117.31 25.938C121.943 29.487 124.497 35.1743 124.972 43H108.734C108.363 34.8625 105.735 30.7269 100.849 30.5933V43H85.7919V9.00957H100.849V20.3694ZM157.203 43H128.959V9.00957H157.203V17.5406H144.017V21.7504H153.171V30.2814H144.017V34.469H157.203V43ZM161.747 9.00957H172.505L180.368 20.3694H180.457V9.00957H195.515V43.2673H184.11L176.893 32.687H176.804V43H161.747V9.00957ZM207.81 6.51485L238.192 14.3776L238.326 14.5113L230.329 45.1383C210.787 40.1341 200.615 37.4686 199.814 37.1419C204.654 18.09 207.32 7.88101 207.81 6.51485ZM216.898 22.1291L215.428 28.1877H215.561L221.241 29.6355C222.221 26.2053 222.711 24.2303 222.711 23.7105L216.898 22.1291ZM241.533 9.00957H256.123L262.293 16.0928L268.44 9.00957H283.052V43H267.995V25.9825L262.293 32.5534L256.591 25.9825V43H241.533V9.00957ZM289.69 9.00957H304.747V43H289.69V9.00957ZM336.8 24.0669C334.973 23.4284 332.932 23.1091 330.674 23.1091C327.482 23.1091 325.886 23.9778 325.886 25.7152C325.886 27.4823 327.608 28.3658 331.053 28.3658C333.295 28.3658 335.211 27.9649 336.8 27.163L343.081 40.0375C339.265 42.3837 334.706 43.5569 329.405 43.5569C326.331 43.5569 323.554 43.0594 321.074 42.0645C318.773 41.1438 316.805 39.8371 315.172 38.1442C312.038 34.9219 310.472 30.9571 310.472 26.2498C310.472 21.0822 312.246 16.8278 315.795 13.4867C319.344 10.1455 323.881 8.47498 329.405 8.47498C334.899 8.47498 339.458 9.67037 343.081 12.0611L336.8 24.0669ZM371.837 21.4608C369.432 18.1494 366.618 16.4937 363.395 16.4937C361.628 16.4937 360.745 17.1619 360.745 18.4984C360.745 19.0478 361.25 19.6047 362.259 20.1689C362.675 20.4065 363.21 20.6664 363.863 20.9485L367.984 22.6191C368.801 22.9606 369.521 23.2799 370.144 23.5769C371.733 24.3639 372.951 25.1806 373.797 26.0271C375.386 27.616 376.181 29.732 376.181 32.3752C376.181 39.8296 370.731 43.5569 359.831 43.5569C356.891 43.5569 354.196 43.3638 351.746 42.9777C349.103 42.5619 346.615 41.9011 344.284 40.9953L347.982 29.6355C350.254 33.2587 353.097 35.0704 356.513 35.0704C358.191 35.0704 359.03 34.4319 359.03 33.1548C359.03 32.2935 358.332 31.5139 356.936 30.816C356.654 30.6675 356.32 30.5116 355.933 30.3483L352.347 28.8559C351.412 28.4252 350.602 27.9872 349.919 27.5417C349.073 26.9774 348.36 26.3686 347.781 25.7152C346.385 24.156 345.687 22.2107 345.687 19.8794C345.687 12.2764 351.122 8.47498 361.992 8.47498C367.041 8.47498 371.57 9.23231 375.579 10.747L371.837 21.4608Z"/>
</mask>
<path d="M11.8193 9.00957H42.0231V24.0669H34.4499V43H19.3925V24.0669H11.8193V9.00957ZM51.8906 6.51485L82.2726 14.3776L82.4062 14.5113L74.4098 45.1383C54.8679 40.1341 44.696 37.4686 43.8941 37.1419C48.7351 18.09 51.4005 7.88101 51.8906 6.51485ZM60.9784 22.1291L59.5084 28.1877H59.642L65.3219 29.6355C66.302 26.2053 66.792 24.2303 66.792 23.7105L60.9784 22.1291ZM100.849 20.3694C103.507 20.1764 105.512 19.0033 106.863 16.8501C108.081 14.9048 108.69 12.2913 108.69 9.00957H124.014C124.014 16.8204 121.78 22.4632 117.31 25.938C121.943 29.487 124.497 35.1743 124.972 43H108.734C108.363 34.8625 105.735 30.7269 100.849 30.5933V43H85.7919V9.00957H100.849V20.3694ZM157.203 43H128.959V9.00957H157.203V17.5406H144.017V21.7504H153.171V30.2814H144.017V34.469H157.203V43ZM161.747 9.00957H172.505L180.368 20.3694H180.457V9.00957H195.515V43.2673H184.11L176.893 32.687H176.804V43H161.747V9.00957ZM207.81 6.51485L238.192 14.3776L238.326 14.5113L230.329 45.1383C210.787 40.1341 200.615 37.4686 199.814 37.1419C204.654 18.09 207.32 7.88101 207.81 6.51485ZM216.898 22.1291L215.428 28.1877H215.561L221.241 29.6355C222.221 26.2053 222.711 24.2303 222.711 23.7105L216.898 22.1291ZM241.533 9.00957H256.123L262.293 16.0928L268.44 9.00957H283.052V43H267.995V25.9825L262.293 32.5534L256.591 25.9825V43H241.533V9.00957ZM289.69 9.00957H304.747V43H289.69V9.00957ZM336.8 24.0669C334.973 23.4284 332.932 23.1091 330.674 23.1091C327.482 23.1091 325.886 23.9778 325.886 25.7152C325.886 27.4823 327.608 28.3658 331.053 28.3658C333.295 28.3658 335.211 27.9649 336.8 27.163L343.081 40.0375C339.265 42.3837 334.706 43.5569 329.405 43.5569C326.331 43.5569 323.554 43.0594 321.074 42.0645C318.773 41.1438 316.805 39.8371 315.172 38.1442C312.038 34.9219 310.472 30.9571 310.472 26.2498C310.472 21.0822 312.246 16.8278 315.795 13.4867C319.344 10.1455 323.881 8.47498 329.405 8.47498C334.899 8.47498 339.458 9.67037 343.081 12.0611L336.8 24.0669ZM371.837 21.4608C369.432 18.1494 366.618 16.4937 363.395 16.4937C361.628 16.4937 360.745 17.1619 360.745 18.4984C360.745 19.0478 361.25 19.6047 362.259 20.1689C362.675 20.4065 363.21 20.6664 363.863 20.9485L367.984 22.6191C368.801 22.9606 369.521 23.2799 370.144 23.5769C371.733 24.3639 372.951 25.1806 373.797 26.0271C375.386 27.616 376.181 29.732 376.181 32.3752C376.181 39.8296 370.731 43.5569 359.831 43.5569C356.891 43.5569 354.196 43.3638 351.746 42.9777C349.103 42.5619 346.615 41.9011 344.284 40.9953L347.982 29.6355C350.254 33.2587 353.097 35.0704 356.513 35.0704C358.191 35.0704 359.03 34.4319 359.03 33.1548C359.03 32.2935 358.332 31.5139 356.936 30.816C356.654 30.6675 356.32 30.5116 355.933 30.3483L352.347 28.8559C351.412 28.4252 350.602 27.9872 349.919 27.5417C349.073 26.9774 348.36 26.3686 347.781 25.7152C346.385 24.156 345.687 22.2107 345.687 19.8794C345.687 12.2764 351.122 8.47498 361.992 8.47498C367.041 8.47498 371.57 9.23231 375.579 10.747L371.837 21.4608Z" fill="url(#paint1_linear_31_2249)"/>
<path d="M11.8193 9.00957V7.73252H10.5422V9.00957H11.8193ZM42.0231 9.00957H43.3001V7.73252H42.0231V9.00957ZM42.0231 24.0669V25.344H43.3001V24.0669H42.0231ZM34.4499 24.0669V22.7899H33.1728V24.0669H34.4499ZM34.4499 43V44.277H35.7269V43H34.4499ZM19.3925 43H18.1155V44.277H19.3925V43ZM19.3925 24.0669H20.6696V22.7899H19.3925V24.0669ZM11.8193 24.0669H10.5422V25.344H11.8193V24.0669ZM11.8193 10.2866H42.0231V7.73252H11.8193V10.2866ZM40.7461 9.00957V24.0669H43.3001V9.00957H40.7461ZM42.0231 22.7899H34.4499V25.344H42.0231V22.7899ZM33.1728 24.0669V43H35.7269V24.0669H33.1728ZM34.4499 41.723H19.3925V44.277H34.4499V41.723ZM20.6696 43V24.0669H18.1155V43H20.6696ZM19.3925 22.7899H11.8193V25.344H19.3925V22.7899ZM13.0963 24.0669V9.00957H10.5422V24.0669H13.0963ZM51.8906 6.51485L52.2105 5.27854L51.0821 4.9865L50.6885 6.08368L51.8906 6.51485ZM82.2726 14.3776L83.1756 13.4746L82.9295 13.2285L82.5925 13.1413L82.2726 14.3776ZM82.4062 14.5113L83.6419 14.8339L83.8267 14.1258L83.3092 13.6083L82.4062 14.5113ZM74.4098 45.1383L74.093 46.3754L75.3243 46.6908L75.6454 45.4609L74.4098 45.1383ZM43.8941 37.1419L42.6564 36.8274L42.3826 37.905L43.4123 38.3245L43.8941 37.1419ZM60.9784 22.1291L61.3137 20.8968L60.047 20.5522L59.7374 21.8279L60.9784 22.1291ZM59.5084 28.1877L58.2673 27.8865L57.8844 29.4647H59.5084V28.1877ZM59.642 28.1877L59.9574 26.9502L59.8022 26.9106H59.642V28.1877ZM65.3219 29.6355L65.0065 30.8729L66.2089 31.1795L66.5498 29.9863L65.3219 29.6355ZM66.792 23.7105H68.0691V22.7345L67.1272 22.4783L66.792 23.7105ZM51.5706 7.75116L81.9526 15.614L82.5925 13.1413L52.2105 5.27854L51.5706 7.75116ZM81.3696 15.2807L81.5032 15.4143L83.3092 13.6083L83.1756 13.4746L81.3696 15.2807ZM81.1706 14.1887L73.1742 44.8157L75.6454 45.4609L83.6419 14.8339L81.1706 14.1887ZM74.7266 43.9012C64.9563 41.3992 57.5306 39.4825 52.4482 38.1507C49.9065 37.4846 47.9539 36.9657 46.5884 36.5934C45.905 36.407 45.3731 36.2586 44.9896 36.1475C44.7975 36.0918 44.6474 36.0468 44.5366 36.0121C44.4136 35.9735 44.3721 35.9577 44.376 35.9592L43.4123 38.3245C43.7047 38.4437 44.5951 38.6972 45.9165 39.0575C47.2943 39.4332 49.2565 39.9546 51.8007 40.6213C56.8902 41.955 64.3214 43.8731 74.093 46.3754L74.7266 43.9012ZM45.1318 37.4564C47.5521 27.9313 49.4279 20.6193 50.7596 15.5188C52.1028 10.3743 52.8725 7.55981 53.0926 6.94602L50.6885 6.08368C50.4187 6.83605 49.6106 9.80918 48.2883 14.8736C46.9545 19.9822 45.0771 27.3006 42.6564 36.8274L45.1318 37.4564ZM59.7374 21.8279L58.2673 27.8865L60.7494 28.4888L62.2195 22.4302L59.7374 21.8279ZM59.5084 29.4647H59.642V26.9106H59.5084V29.4647ZM59.3266 29.4251L65.0065 30.8729L65.6374 28.398L59.9574 26.9502L59.3266 29.4251ZM66.5498 29.9863C67.0414 28.2658 67.4136 26.8979 67.664 25.8891C67.7889 25.3855 67.8863 24.9602 67.9532 24.6193C68.0141 24.3092 68.0691 23.9782 68.0691 23.7105H65.515C65.515 23.7027 65.5086 23.8135 65.447 24.1271C65.3915 24.4099 65.3051 24.7902 65.185 25.274C64.9453 26.2402 64.5825 27.575 64.094 29.2846L66.5498 29.9863ZM67.1272 22.4783L61.3137 20.8968L60.6432 23.3613L66.4568 24.9428L67.1272 22.4783ZM100.849 20.3694H99.5722V21.7426L100.942 21.6431L100.849 20.3694ZM106.863 16.8501L107.945 17.5289L107.946 17.5277L106.863 16.8501ZM108.69 9.00957V7.73252H107.413V9.00957H108.69ZM124.014 9.00957H125.291V7.73252H124.014V9.00957ZM117.31 25.938L116.526 24.9297L115.22 25.9454L116.533 26.9517L117.31 25.938ZM124.972 43V44.277H126.329L126.247 42.9226L124.972 43ZM108.734 43L107.459 43.0582L107.514 44.277H108.734V43ZM100.849 30.5933L100.884 29.3167L99.5722 29.2808V30.5933H100.849ZM100.849 43V44.277H102.126V43H100.849ZM85.7919 43H84.5149V44.277H85.7919V43ZM85.7919 9.00957V7.73252H84.5149V9.00957H85.7919ZM100.849 9.00957H102.126V7.73252H100.849V9.00957ZM100.942 21.6431C103.982 21.4223 106.365 20.0457 107.945 17.5289L105.782 16.1712C104.659 17.9608 103.032 18.9305 100.757 19.0957L100.942 21.6431ZM107.946 17.5277C109.334 15.3098 109.967 12.4331 109.967 9.00957H107.413C107.413 12.1495 106.828 14.4998 105.781 16.1725L107.946 17.5277ZM108.69 10.2866H124.014V7.73252H108.69V10.2866ZM122.737 9.00957C122.737 16.5855 120.577 21.7802 116.526 24.9297L118.094 26.9462C122.982 23.1461 125.291 17.0553 125.291 9.00957H122.737ZM116.533 26.9517C120.781 30.2052 123.237 35.4875 123.698 43.0774L126.247 42.9226C125.757 34.8612 123.105 28.7688 118.086 24.9242L116.533 26.9517ZM124.972 41.723H108.734V44.277H124.972V41.723ZM110.01 42.9418C109.82 38.7813 109.051 35.4522 107.562 33.1102C106.021 30.6853 103.753 29.3952 100.884 29.3167L100.814 31.8698C102.831 31.925 104.32 32.7695 105.407 34.4802C106.547 36.2738 107.277 39.0812 107.459 43.0582L110.01 42.9418ZM99.5722 30.5933V43H102.126V30.5933H99.5722ZM100.849 41.723H85.7919V44.277H100.849V41.723ZM87.069 43V9.00957H84.5149V43H87.069ZM85.7919 10.2866H100.849V7.73252H85.7919V10.2866ZM99.5722 9.00957V20.3694H102.126V9.00957H99.5722ZM157.203 43V44.277H158.48V43H157.203ZM128.959 43H127.682V44.277H128.959V43ZM128.959 9.00957V7.73252H127.682V9.00957H128.959ZM157.203 9.00957H158.48V7.73252H157.203V9.00957ZM157.203 17.5406V18.8176H158.48V17.5406H157.203ZM144.017 17.5406V16.2635H142.74V17.5406H144.017ZM144.017 21.7504H142.74V23.0275H144.017V21.7504ZM153.171 21.7504H154.448V20.4734H153.171V21.7504ZM153.171 30.2814V31.5585H154.448V30.2814H153.171ZM144.017 30.2814V29.0044H142.74V30.2814H144.017ZM144.017 34.469H142.74V35.746H144.017V34.469ZM157.203 34.469H158.48V33.1919H157.203V34.469ZM157.203 41.723H128.959V44.277H157.203V41.723ZM130.236 43V9.00957H127.682V43H130.236ZM128.959 10.2866H157.203V7.73252H128.959V10.2866ZM155.926 9.00957V17.5406H158.48V9.00957H155.926ZM157.203 16.2635H144.017V18.8176H157.203V16.2635ZM142.74 17.5406V21.7504H145.294V17.5406H142.74ZM144.017 23.0275H153.171V20.4734H144.017V23.0275ZM151.894 21.7504V30.2814H154.448V21.7504H151.894ZM153.171 29.0044H144.017V31.5585H153.171V29.0044ZM142.74 30.2814V34.469H145.294V30.2814H142.74ZM144.017 35.746H157.203V33.1919H144.017V35.746ZM155.926 34.469V43H158.48V34.469H155.926ZM161.747 9.00957V7.73252H160.47V9.00957H161.747ZM172.505 9.00957L173.555 8.28277L173.175 7.73252H172.505V9.00957ZM180.368 20.3694L179.318 21.0962L179.699 21.6465H180.368V20.3694ZM180.457 20.3694V21.6465H181.734V20.3694H180.457ZM180.457 9.00957V7.73252H179.18V9.00957H180.457ZM195.515 9.00957H196.792V7.73252H195.515V9.00957ZM195.515 43.2673V44.5443H196.792V43.2673H195.515ZM184.11 43.2673L183.055 43.9869L183.435 44.5443H184.11V43.2673ZM176.893 32.687L177.948 31.9674L177.568 31.41H176.893V32.687ZM176.804 32.687V31.41H175.527V32.687H176.804ZM176.804 43V44.277H178.081V43H176.804ZM161.747 43H160.47V44.277H161.747V43ZM161.747 10.2866H172.505V7.73252H161.747V10.2866ZM171.455 9.73636L179.318 21.0962L181.418 19.6426L173.555 8.28277L171.455 9.73636ZM180.368 21.6465H180.457V19.0924H180.368V21.6465ZM181.734 20.3694V9.00957H179.18V20.3694H181.734ZM180.457 10.2866H195.515V7.73252H180.457V10.2866ZM194.238 9.00957V43.2673H196.792V9.00957H194.238ZM195.515 41.9902H184.11V44.5443H195.515V41.9902ZM185.165 42.5477L177.948 31.9674L175.838 33.4067L183.055 43.9869L185.165 42.5477ZM176.893 31.41H176.804V33.9641H176.893V31.41ZM175.527 32.687V43H178.081V32.687H175.527ZM176.804 41.723H161.747V44.277H176.804V41.723ZM163.024 43V9.00957H160.47V43H163.024ZM207.81 6.51485L208.13 5.27854L207.002 4.9865L206.608 6.08368L207.81 6.51485ZM238.192 14.3776L239.095 13.4746L238.849 13.2285L238.512 13.1413L238.192 14.3776ZM238.326 14.5113L239.561 14.8339L239.746 14.1258L239.229 13.6083L238.326 14.5113ZM230.329 45.1383L230.012 46.3754L231.244 46.6908L231.565 45.4609L230.329 45.1383ZM199.814 37.1419L198.576 36.8274L198.302 37.905L199.332 38.3245L199.814 37.1419ZM216.898 22.1291L217.233 20.8968L215.966 20.5522L215.657 21.8279L216.898 22.1291ZM215.428 28.1877L214.187 27.8865L213.804 29.4647H215.428V28.1877ZM215.561 28.1877L215.877 26.9502L215.722 26.9106H215.561V28.1877ZM221.241 29.6355L220.926 30.8729L222.128 31.1795L222.469 29.9863L221.241 29.6355ZM222.711 23.7105H223.988V22.7345L223.047 22.4783L222.711 23.7105ZM207.49 7.75116L237.872 15.614L238.512 13.1413L208.13 5.27854L207.49 7.75116ZM237.289 15.2807L237.423 15.4143L239.229 13.6083L239.095 13.4746L237.289 15.2807ZM237.09 14.1887L229.094 44.8157L231.565 45.4609L239.561 14.8339L237.09 14.1887ZM230.646 43.9012C220.876 41.3992 213.45 39.4825 208.368 38.1507C205.826 37.4846 203.873 36.9657 202.508 36.5934C201.824 36.407 201.293 36.2586 200.909 36.1475C200.717 36.0918 200.567 36.0468 200.456 36.0121C200.333 35.9735 200.292 35.9577 200.295 35.9592L199.332 38.3245C199.624 38.4437 200.515 38.6972 201.836 39.0575C203.214 39.4332 205.176 39.9546 207.72 40.6213C212.81 41.955 220.241 43.8731 230.012 46.3754L230.646 43.9012ZM201.051 37.4564C203.472 27.9313 205.347 20.6193 206.679 15.5188C208.022 10.3743 208.792 7.55981 209.012 6.94602L206.608 6.08368C206.338 6.83605 205.53 9.80918 204.208 14.8736C202.874 19.9822 200.997 27.3006 198.576 36.8274L201.051 37.4564ZM215.657 21.8279L214.187 27.8865L216.669 28.4888L218.139 22.4302L215.657 21.8279ZM215.428 29.4647H215.561V26.9106H215.428V29.4647ZM215.246 29.4251L220.926 30.8729L221.557 28.398L215.877 26.9502L215.246 29.4251ZM222.469 29.9863C222.961 28.2658 223.333 26.8979 223.583 25.8891C223.708 25.3855 223.806 24.9602 223.873 24.6193C223.934 24.3092 223.988 23.9782 223.988 23.7105H221.434C221.434 23.7027 221.428 23.8135 221.366 24.1271C221.311 24.4099 221.225 24.7902 221.104 25.274C220.865 26.2402 220.502 27.575 220.013 29.2846L222.469 29.9863ZM223.047 22.4783L217.233 20.8968L216.563 23.3613L222.376 24.9428L223.047 22.4783ZM241.533 9.00957V7.73252H240.256V9.00957H241.533ZM256.123 9.00957L257.086 8.17077L256.704 7.73252H256.123V9.00957ZM262.293 16.0928L261.33 16.9316L262.294 18.039L263.257 16.9298L262.293 16.0928ZM268.44 9.00957V7.73252H267.858L267.476 8.1725L268.44 9.00957ZM283.052 9.00957H284.329V7.73252H283.052V9.00957ZM283.052 43V44.277H284.329V43H283.052ZM267.995 43H266.718V44.277H267.995V43ZM267.995 25.9825H269.272V22.5625L267.03 25.1455L267.995 25.9825ZM262.293 32.5534L261.328 33.3904L262.293 34.5018L263.257 33.3904L262.293 32.5534ZM256.591 25.9825L257.555 25.1455L255.313 22.5625V25.9825H256.591ZM256.591 43V44.277H257.868V43H256.591ZM241.533 43H240.256V44.277H241.533V43ZM241.533 10.2866H256.123V7.73252H241.533V10.2866ZM255.16 9.84836L261.33 16.9316L263.256 15.254L257.086 8.17077L255.16 9.84836ZM263.257 16.9298L269.405 9.84663L267.476 8.1725L261.328 15.2557L263.257 16.9298ZM268.44 10.2866H283.052V7.73252H268.44V10.2866ZM281.775 9.00957V43H284.329V9.00957H281.775ZM283.052 41.723H267.995V44.277H283.052V41.723ZM269.272 43V25.9825H266.718V43H269.272ZM267.03 25.1455L261.328 31.7164L263.257 33.3904L268.959 26.8195L267.03 25.1455ZM263.257 31.7164L257.555 25.1455L255.626 26.8195L261.328 33.3904L263.257 31.7164ZM255.313 25.9825V43H257.868V25.9825H255.313ZM256.591 41.723H241.533V44.277H256.591V41.723ZM242.81 43V9.00957H240.256V43H242.81ZM289.69 9.00957V7.73252H288.413V9.00957H289.69ZM304.747 9.00957H306.024V7.73252H304.747V9.00957ZM304.747 43V44.277H306.024V43H304.747ZM289.69 43H288.413V44.277H289.69V43ZM289.69 10.2866H304.747V7.73252H289.69V10.2866ZM303.47 9.00957V43H306.024V9.00957H303.47ZM304.747 41.723H289.69V44.277H304.747V41.723ZM290.967 43V9.00957H288.413V43H290.967ZM336.8 24.0669L336.378 25.2724L337.42 25.6365L337.931 24.6589L336.8 24.0669ZM336.8 27.163L337.948 26.6031L337.38 25.4398L336.225 26.023L336.8 27.163ZM343.081 40.0375L343.75 41.1254L344.737 40.5187L344.229 39.4776L343.081 40.0375ZM321.074 42.0645L321.55 40.8793L321.549 40.8788L321.074 42.0645ZM315.172 38.1442L316.091 37.2575L316.087 37.254L315.172 38.1442ZM343.081 12.0611L344.213 12.6531L344.748 11.6307L343.785 10.9952L343.081 12.0611ZM337.221 22.8614C335.239 22.1684 333.052 21.8321 330.674 21.8321V24.3862C332.812 24.3862 334.708 24.6884 336.378 25.2724L337.221 22.8614ZM330.674 21.8321C329.004 21.8321 327.551 22.0522 326.472 22.639C325.914 22.9428 325.433 23.3581 325.096 23.908C324.757 24.4609 324.608 25.0784 324.608 25.7152H327.163C327.163 25.4833 327.213 25.3407 327.274 25.2421C327.336 25.1405 327.453 25.0129 327.693 24.8824C328.211 24.6004 329.152 24.3862 330.674 24.3862V21.8321ZM324.608 25.7152C324.608 26.3739 324.772 27.0084 325.138 27.5707C325.499 28.1267 326.01 28.5396 326.595 28.8395C327.727 29.4202 329.263 29.6429 331.053 29.6429V27.0888C329.398 27.0888 328.351 26.8697 327.76 26.5669C327.484 26.425 327.349 26.2857 327.279 26.179C327.214 26.0787 327.163 25.9401 327.163 25.7152H324.608ZM331.053 29.6429C333.445 29.6429 335.568 29.2154 337.375 28.3031L336.225 26.023C334.854 26.7144 333.146 27.0888 331.053 27.0888V29.6429ZM335.652 27.723L341.933 40.5975L344.229 39.4776L337.948 26.6031L335.652 27.723ZM342.412 38.9496C338.832 41.1511 334.514 42.2798 329.405 42.2798V44.8339C334.898 44.8339 339.698 43.6164 343.75 41.1254L342.412 38.9496ZM329.405 42.2798C326.47 42.2798 323.858 41.8051 321.55 40.8793L320.599 43.2497C323.251 44.3137 326.192 44.8339 329.405 44.8339V42.2798ZM321.549 40.8788C319.405 40.0215 317.592 38.8134 316.091 37.2575L314.253 39.031C316.018 40.8607 318.14 42.2661 320.6 43.2502L321.549 40.8788ZM316.087 37.254C313.198 34.2822 311.749 30.642 311.749 26.2498H309.195C309.195 31.2721 310.879 35.5615 314.256 39.0345L316.087 37.254ZM311.749 26.2498C311.749 21.4105 313.395 17.5005 316.671 14.4165L314.92 12.5569C311.098 16.1551 309.195 20.7539 309.195 26.2498H311.749ZM316.671 14.4165C319.951 11.3285 324.159 9.75203 329.405 9.75203V7.19794C323.602 7.19794 318.738 8.96256 314.92 12.5569L316.671 14.4165ZM329.405 9.75203C334.715 9.75203 339.012 10.9064 342.378 13.127L343.785 10.9952C339.903 8.43431 335.083 7.19794 329.405 7.19794V9.75203ZM341.95 11.4691L335.668 23.4749L337.931 24.6589L344.213 12.6531L341.95 11.4691ZM371.837 21.4608L370.804 22.2114L372.238 24.1856L373.043 21.8819L371.837 21.4608ZM362.259 20.1689L362.893 19.0601L362.882 19.0542L362.259 20.1689ZM363.863 20.9485L363.357 22.1209L363.37 22.1266L363.383 22.132L363.863 20.9485ZM367.984 22.6191L368.477 21.4409L368.464 21.4356L367.984 22.6191ZM370.144 23.5769L370.711 22.4325L370.702 22.4282L370.693 22.4239L370.144 23.5769ZM351.746 42.9777L351.945 41.7162L351.944 41.7162L351.746 42.9777ZM344.284 40.9953L343.07 40.6001L342.696 41.7483L343.822 42.1857L344.284 40.9953ZM347.982 29.6355L349.063 28.9571L347.613 26.6431L346.767 29.2402L347.982 29.6355ZM356.936 30.816L356.341 31.9461L356.353 31.9523L356.365 31.9582L356.936 30.816ZM355.933 30.3483L356.431 29.1721L356.424 29.1692L355.933 30.3483ZM352.347 28.8559L351.813 30.0159L351.835 30.0258L351.857 30.0349L352.347 28.8559ZM349.919 27.5417L349.211 28.6043L349.222 28.6114L349.919 27.5417ZM347.781 25.7152L348.737 24.8681L348.733 24.8634L347.781 25.7152ZM375.579 10.747L376.785 11.168L377.196 9.9924L376.031 9.55232L375.579 10.747ZM372.87 20.7103C370.297 17.1673 367.135 15.2167 363.395 15.2167V17.7707C366.1 17.7707 368.567 19.1316 370.804 22.2114L372.87 20.7103ZM363.395 15.2167C362.387 15.2167 361.398 15.4009 360.637 15.9763C359.809 16.6027 359.468 17.5226 359.468 18.4984H362.022C362.022 18.1377 362.122 18.0553 362.178 18.0134C362.3 17.9206 362.636 17.7707 363.395 17.7707V15.2167ZM359.468 18.4984C359.468 19.191 359.791 19.7597 360.177 20.1859C360.559 20.6066 361.068 20.9664 361.636 21.2837L362.882 19.0542C362.44 18.8072 362.193 18.6064 362.069 18.4703C361.951 18.3396 362.022 18.3552 362.022 18.4984H359.468ZM361.626 21.2777C362.097 21.5472 362.679 21.8281 363.357 22.1209L364.369 19.7761C363.741 19.5047 363.253 19.2659 362.893 19.0602L361.626 21.2777ZM363.383 22.132L367.504 23.8026L368.464 21.4356L364.343 19.7651L363.383 22.132ZM367.491 23.7973C368.294 24.133 368.995 24.4438 369.595 24.7299L370.693 22.4239C370.047 22.116 369.307 21.7883 368.476 21.4409L367.491 23.7973ZM369.578 24.7212C371.096 25.4734 372.181 26.2169 372.894 26.9301L374.7 25.1241C373.721 24.1444 372.371 23.2545 370.711 22.4325L369.578 24.7212ZM372.894 26.9301C374.202 28.2375 374.904 30.0064 374.904 32.3752H377.458C377.458 29.4576 376.571 26.9944 374.7 25.1241L372.894 26.9301ZM374.904 32.3752C374.904 35.7442 373.7 38.1154 371.372 39.7074C368.958 41.3589 365.175 42.2798 359.831 42.2798V44.8339C365.387 44.8339 369.779 43.8912 372.814 41.8155C375.936 39.6802 377.458 36.4607 377.458 32.3752H374.904ZM359.831 42.2798C356.946 42.2798 354.318 42.0903 351.945 41.7162L351.547 44.2392C354.074 44.6373 356.836 44.8339 359.831 44.8339V42.2798ZM351.944 41.7162C349.385 41.3136 346.987 40.6755 344.747 39.805L343.822 42.1857C346.244 43.1268 348.82 43.8102 351.547 44.2393L351.944 41.7162ZM345.498 41.3906L349.196 30.0307L346.767 29.2402L343.07 40.6001L345.498 41.3906ZM346.9 30.3139C349.338 34.202 352.544 36.3474 356.513 36.3474V33.7933C353.65 33.7933 351.169 32.3155 349.063 28.9571L346.9 30.3139ZM356.513 36.3474C357.477 36.3474 358.435 36.1702 359.174 35.6077C359.979 34.9951 360.307 34.098 360.307 33.1548H357.753C357.753 33.4887 357.661 33.5494 357.627 33.5753C357.527 33.6513 357.226 33.7933 356.513 33.7933V36.3474ZM360.307 33.1548C360.307 31.5085 358.976 30.4082 357.507 29.6738L356.365 31.9582C357.687 32.6196 357.753 33.0785 357.753 33.1548H360.307ZM357.531 29.6859C357.209 29.5165 356.841 29.3454 356.431 29.1721L355.436 31.5244C355.799 31.6778 356.099 31.8185 356.341 31.9461L357.531 29.6859ZM356.424 29.1692L352.838 27.6769L351.857 30.0349L355.443 31.5273L356.424 29.1692ZM352.881 27.6958C351.988 27.2849 351.236 26.876 350.617 26.472L349.222 28.6114C349.969 29.0984 350.835 29.5656 351.813 30.0159L352.881 27.6958ZM350.628 26.4791C349.858 25.966 349.232 25.4272 348.737 24.8681L346.825 26.5623C347.488 27.31 348.288 27.9888 349.211 28.6043L350.628 26.4791ZM348.733 24.8634C347.571 23.5657 346.964 21.935 346.964 19.8794H344.41C344.41 22.4865 345.2 24.7464 346.83 26.567L348.733 24.8634ZM346.964 19.8794C346.964 16.4243 348.174 13.9966 350.495 12.3725C352.901 10.6903 356.667 9.75203 361.992 9.75203V7.19794C356.447 7.19794 352.061 8.1604 349.032 10.2796C345.919 12.457 344.41 15.7315 344.41 19.8794H346.964ZM361.992 9.75203C366.914 9.75203 371.286 10.4902 375.128 11.9416L376.031 9.55232C371.854 7.97443 367.168 7.19794 361.992 7.19794V9.75203ZM374.374 10.3259L370.632 21.0398L373.043 21.8819L376.785 11.168L374.374 10.3259Z" fill="#FFEB01" mask="url(#path-3-outside-2_31_2249)"/>
<defs>
<linearGradient id="paint0_linear_31_2249" x1="194" y1="3.8491" x2="194" y2="37.101" gradientUnits="userSpaceOnUse">
<stop stop-color="#FFF258"/>
<stop offset="0.522986" stop-color="#FFF258"/>
<stop offset="0.523086" stop-color="#D2C534"/>
<stop offset="1" stop-color="#D2C534"/>
</linearGradient>
<linearGradient id="paint1_linear_31_2249" x1="194" y1="3.8491" x2="194" y2="50" gradientUnits="userSpaceOnUse">
<stop stop-color="#FFEB01"/>
<stop offset="0.522986" stop-color="#FFEB01"/>
<stop offset="0.523086" stop-color="#C9BB0D"/>
<stop offset="1" stop-color="#C9BB0D"/>
</linearGradient>
</defs>
</svg>
