<svg width="179" height="59" viewBox="0 0 179 59" fill="none" xmlns="http://www.w3.org/2000/svg">
<g filter="url(#filter0_i_71_331)">
<path d="M3 3H176V56H3V3Z" fill="#3DFD00"/>
</g>
<path d="M3 1.5H1.5V3V56V57.5H3H176H177.5V56V3V1.5H176H3Z" stroke="black" stroke-width="3"/>
<g filter="url(#filter1_i_71_331)">
<path d="M3 3H176V56H3V3Z" fill="#3DFD00"/>
</g>
<path d="M4 4H175V55H4V4Z" stroke="#3DFD00" stroke-width="2"/>
<path d="M46.0653 20.5455V38H43.2528L35.0284 26.1108H34.8835V38H31.7216V20.5455H34.5511L42.767 32.4432H42.9205V20.5455H46.0653ZM55.0845 38.2557C53.8061 38.2557 52.6982 37.9744 51.7607 37.4119C50.8232 36.8494 50.0959 36.0625 49.5788 35.0511C49.0675 34.0398 48.8118 32.858 48.8118 31.5057C48.8118 30.1534 49.0675 28.9687 49.5788 27.9517C50.0959 26.9347 50.8232 26.1449 51.7607 25.5824C52.6982 25.0199 53.8061 24.7386 55.0845 24.7386C56.3629 24.7386 57.4709 25.0199 58.4084 25.5824C59.3459 26.1449 60.0703 26.9347 60.5817 27.9517C61.0987 28.9687 61.3572 30.1534 61.3572 31.5057C61.3572 32.858 61.0987 34.0398 60.5817 35.0511C60.0703 36.0625 59.3459 36.8494 58.4084 37.4119C57.4709 37.9744 56.3629 38.2557 55.0845 38.2557ZM55.1016 35.7841C55.7947 35.7841 56.3743 35.5937 56.8402 35.2131C57.3061 34.8267 57.6527 34.3097 57.88 33.6619C58.1129 33.0142 58.2294 32.2926 58.2294 31.4972C58.2294 30.696 58.1129 29.9716 57.88 29.3239C57.6527 28.6705 57.3061 28.1506 56.8402 27.7642C56.3743 27.3778 55.7947 27.1847 55.1016 27.1847C54.3913 27.1847 53.8004 27.3778 53.3288 27.7642C52.8629 28.1506 52.5135 28.6705 52.2805 29.3239C52.0533 29.9716 51.9396 30.696 51.9396 31.4972C51.9396 32.2926 52.0533 33.0142 52.2805 33.6619C52.5135 34.3097 52.8629 34.8267 53.3288 35.2131C53.8004 35.5937 54.3913 35.7841 55.1016 35.7841ZM69.6861 38.2557C68.4077 38.2557 67.2997 37.9744 66.3622 37.4119C65.4247 36.8494 64.6974 36.0625 64.1804 35.0511C63.669 34.0398 63.4134 32.858 63.4134 31.5057C63.4134 30.1534 63.669 28.9687 64.1804 27.9517C64.6974 26.9347 65.4247 26.1449 66.3622 25.5824C67.2997 25.0199 68.4077 24.7386 69.6861 24.7386C70.9645 24.7386 72.0724 25.0199 73.0099 25.5824C73.9474 26.1449 74.6719 26.9347 75.1832 27.9517C75.7003 28.9687 75.9588 30.1534 75.9588 31.5057C75.9588 32.858 75.7003 34.0398 75.1832 35.0511C74.6719 36.0625 73.9474 36.8494 73.0099 37.4119C72.0724 37.9744 70.9645 38.2557 69.6861 38.2557ZM69.7031 35.7841C70.3963 35.7841 70.9759 35.5937 71.4418 35.2131C71.9077 34.8267 72.2543 34.3097 72.4815 33.6619C72.7145 33.0142 72.831 32.2926 72.831 31.4972C72.831 30.696 72.7145 29.9716 72.4815 29.3239C72.2543 28.6705 71.9077 28.1506 71.4418 27.7642C70.9759 27.3778 70.3963 27.1847 69.7031 27.1847C68.9929 27.1847 68.402 27.3778 67.9304 27.7642C67.4645 28.1506 67.1151 28.6705 66.8821 29.3239C66.6548 29.9716 66.5412 30.696 66.5412 31.4972C66.5412 32.2926 66.6548 33.0142 66.8821 33.6619C67.1151 34.3097 67.4645 34.8267 67.9304 35.2131C68.402 35.5937 68.9929 35.7841 69.7031 35.7841ZM78.7138 38V20.5455H81.799V27.0739H81.9268C82.0859 26.7557 82.3104 26.4176 82.6001 26.0597C82.8899 25.696 83.282 25.3864 83.7763 25.1307C84.2706 24.8693 84.9013 24.7386 85.6683 24.7386C86.6797 24.7386 87.5916 24.9972 88.4041 25.5142C89.2223 26.0256 89.87 26.7841 90.3473 27.7898C90.8303 28.7898 91.0717 30.017 91.0717 31.4716C91.0717 32.9091 90.8359 34.1307 90.3643 35.1364C89.8928 36.142 89.2507 36.9091 88.4382 37.4375C87.6257 37.9659 86.7053 38.2301 85.6768 38.2301C84.9268 38.2301 84.3047 38.1051 83.8104 37.8551C83.3161 37.6051 82.9183 37.304 82.6172 36.9517C82.3217 36.5937 82.0916 36.2557 81.9268 35.9375H81.7479V38H78.7138ZM81.7393 31.4545C81.7393 32.3011 81.8587 33.0426 82.0973 33.679C82.3416 34.3153 82.6911 34.8125 83.1456 35.1705C83.6058 35.5227 84.1626 35.6989 84.8161 35.6989C85.4979 35.6989 86.0689 35.517 86.5291 35.1534C86.9893 34.7841 87.3359 34.2812 87.5689 33.6449C87.8075 33.0028 87.9268 32.2727 87.9268 31.4545C87.9268 30.642 87.8104 29.9205 87.5774 29.2898C87.3445 28.6591 86.9979 28.1648 86.5376 27.8068C86.0774 27.4489 85.5036 27.2699 84.8161 27.2699C84.157 27.2699 83.5973 27.4432 83.1371 27.7898C82.6768 28.1364 82.3274 28.6222 82.0888 29.2472C81.8558 29.8722 81.7393 30.608 81.7393 31.4545ZM103.457 38L98.5312 20.5455H101.932L105.077 33.3722H105.239L108.597 20.5455H111.69L115.057 33.3807H115.21L118.355 20.5455H121.756L116.83 38H113.71L110.216 25.7528H110.08L106.577 38H103.457ZM123.812 38V24.9091H126.897V38H123.812ZM125.363 23.0511C124.874 23.0511 124.454 22.8892 124.102 22.5653C123.749 22.2358 123.573 21.8409 123.573 21.3807C123.573 20.9148 123.749 20.5199 124.102 20.196C124.454 19.8665 124.874 19.7017 125.363 19.7017C125.857 19.7017 126.278 19.8665 126.624 20.196C126.977 20.5199 127.153 20.9148 127.153 21.3807C127.153 21.8409 126.977 22.2358 126.624 22.5653C126.278 22.8892 125.857 23.0511 125.363 23.0511ZM132.882 33.892L132.874 30.1676H133.368L138.072 24.9091H141.678L135.891 31.3523H135.251L132.882 33.892ZM130.07 38V20.5455H133.155V38H130.07ZM138.286 38L134.024 32.0426L136.104 29.8693L141.976 38H138.286ZM143.734 38V24.9091H146.819V38H143.734ZM145.285 23.0511C144.796 23.0511 144.376 22.8892 144.023 22.5653C143.671 22.2358 143.495 21.8409 143.495 21.3807C143.495 20.9148 143.671 20.5199 144.023 20.196C144.376 19.8665 144.796 19.7017 145.285 19.7017C145.779 19.7017 146.2 19.8665 146.546 20.196C146.898 20.5199 147.075 20.9148 147.075 21.3807C147.075 21.8409 146.898 22.2358 146.546 22.5653C146.2 22.8892 145.779 23.0511 145.285 23.0511Z" fill="black"/>
<defs>
<filter id="filter0_i_71_331" x="0" y="0" width="179" height="59" filterUnits="userSpaceOnUse" color-interpolation-filters="sRGB">
<feFlood flood-opacity="0" result="BackgroundImageFix"/>
<feBlend mode="normal" in="SourceGraphic" in2="BackgroundImageFix" result="shape"/>
<feColorMatrix in="SourceAlpha" type="matrix" values="0 0 0 0 0 0 0 0 0 0 0 0 0 0 0 0 0 0 127 0" result="hardAlpha"/>
<feOffset dy="-32"/>
<feComposite in2="hardAlpha" operator="arithmetic" k2="-1" k3="1"/>
<feColorMatrix type="matrix" values="0 0 0 0 1 0 0 0 0 0.835294 0 0 0 0 0.192157 0 0 0 1 0"/>
<feBlend mode="normal" in2="shape" result="effect1_innerShadow_71_331"/>
</filter>
<filter id="filter1_i_71_331" x="3" y="3" width="173" height="53" filterUnits="userSpaceOnUse" color-interpolation-filters="sRGB">
<feFlood flood-opacity="0" result="BackgroundImageFix"/>
<feBlend mode="normal" in="SourceGraphic" in2="BackgroundImageFix" result="shape"/>
<feColorMatrix in="SourceAlpha" type="matrix" values="0 0 0 0 0 0 0 0 0 0 0 0 0 0 0 0 0 0 127 0" result="hardAlpha"/>
<feOffset dy="-27"/>
<feComposite in2="hardAlpha" operator="arithmetic" k2="-1" k3="1"/>
<feColorMatrix type="matrix" values="0 0 0 0 0.101961 0 0 0 0 0.776471 0 0 0 0 0 0 0 0 1 0"/>
<feBlend mode="normal" in2="shape" result="effect1_innerShadow_71_331"/>
</filter>
</defs>
</svg>
